STARTFONT 2.1
COMMENT
COMMENT Converted from OpenType font "UbuntuMono-Bold.ttf" by "otf2bdf 3.0".
COMMENT
FONT -FreeType-Ubuntu Mono-Bold-R-Normal--25-180-100-100-P-113-ISO10646-1
SIZE 18 100 100
FONTBOUNDINGBOX 27 25 -10 -4
STARTPROPERTIES 19
FOUNDRY "FreeType"
FAMILY_NAME "Ubuntu Mono"
WEIGHT_NAME "Bold"
SLANT "R"
SETWIDTH_NAME "Normal"
ADD_STYLE_NAME ""
PIXEL_SIZE 25
POINT_SIZE 180
RESOLUTION_X 100
RESOLUTION_Y 100
SPACING "P"
AVERAGE_WIDTH 113
CHARSET_REGISTRY "ISO10646"
CHARSET_ENCODING "1"
FONT_ASCENT 20
FONT_DESCENT 4
COPYRIGHT "Copyright 2011 Canonical Ltd.  Licensed under the Ubuntu Font Licence 1.0"
_OTF_FONTFILE "UbuntuMono-Bold.ttf"
_OTF_PSNAME "UbuntuMono-Bold"
ENDPROPERTIES
CHARS 1224
STARTCHAR 0000
ENCODING 0
SWIDTH 480 0
DWIDTH 12 0
BBX 0 0 0 0
BITMAP
ENDCHAR
STARTCHAR 0008
ENCODING 8
SWIDTH 480 0
DWIDTH 12 0
BBX 0 0 0 0
BITMAP
ENDCHAR
STARTCHAR 0009
ENCODING 9
SWIDTH 480 0
DWIDTH 12 0
BBX 0 0 0 0
BITMAP
ENDCHAR
STARTCHAR 000D
ENCODING 13
SWIDTH 480 0
DWIDTH 12 0
BBX 0 0 0 0
BITMAP
ENDCHAR
STARTCHAR 001D
ENCODING 29
SWIDTH 480 0
DWIDTH 12 0
BBX 0 0 0 0
BITMAP
ENDCHAR
STARTCHAR 0020
ENCODING 32
SWIDTH 480 0
DWIDTH 12 0
BBX 0 0 0 0
BITMAP
ENDCHAR
STARTCHAR 0021
ENCODING 33
SWIDTH 480 0
DWIDTH 12 0
BBX 4 15 4 0
BITMAP
F0
F0
F0
F0
F0
70
70
70
70
00
00
60
F0
F0
70
ENDCHAR
STARTCHAR 0022
ENCODING 34
SWIDTH 480 0
DWIDTH 12 0
BBX 8 7 2 10
BITMAP
E7
E7
E7
E7
E7
63
63
ENDCHAR
STARTCHAR 0023
ENCODING 35
SWIDTH 480 0
DWIDTH 12 0
BBX 12 15 0 0
BITMAP
0EE0
0CE0
0CE0
FFF0
FFF0
FFF0
19C0
19C0
39C0
FFF0
FFF0
3380
3380
7380
7300
ENDCHAR
STARTCHAR 0024
ENCODING 36
SWIDTH 480 0
DWIDTH 12 0
BBX 11 19 1 -2
BITMAP
0E00
0E00
1F80
7FC0
7FC0
F000
F000
7800
7F00
3F80
07C0
01E0
01E0
41E0
FFC0
FFC0
3F00
0E00
0E00
ENDCHAR
STARTCHAR 0025
ENCODING 37
SWIDTH 480 0
DWIDTH 12 0
BBX 12 16 0 0
BITMAP
3000
7830
EC60
CCE0
CCC0
CD80
7B80
3B00
0600
0FE0
0DF0
19B0
39B0
31B0
61F0
E0E0
ENDCHAR
STARTCHAR 0026
ENCODING 38
SWIDTH 480 0
DWIDTH 12 0
BBX 11 16 1 0
BITMAP
1C00
3F00
7700
6300
6300
7700
7E00
3C00
7CC0
FEC0
CFC0
C7C0
C380
E7C0
FFC0
7CE0
ENDCHAR
STARTCHAR 0027
ENCODING 39
SWIDTH 480 0
DWIDTH 12 0
BBX 3 8 5 9
BITMAP
E0
E0
E0
E0
E0
E0
C0
C0
ENDCHAR
STARTCHAR 0028
ENCODING 40
SWIDTH 480 0
DWIDTH 12 0
BBX 8 21 2 -3
BITMAP
07
0F
1E
3C
38
70
70
70
E0
E0
E0
E0
E0
70
70
70
38
3C
1E
0F
02
ENDCHAR
STARTCHAR 0029
ENCODING 41
SWIDTH 480 0
DWIDTH 12 0
BBX 8 22 2 -4
BITMAP
40
60
78
3C
1C
0E
0E
07
07
07
07
07
07
07
07
07
0E
1E
1C
78
F0
60
ENDCHAR
STARTCHAR 002A
ENCODING 42
SWIDTH 480 0
DWIDTH 12 0
BBX 10 9 1 6
BITMAP
0E00
0E00
6DC0
FFC0
7FC0
1E00
3B80
7B80
3300
ENDCHAR
STARTCHAR 002B
ENCODING 43
SWIDTH 480 0
DWIDTH 12 0
BBX 11 11 1 1
BITMAP
0E00
0E00
0E00
0E00
FFE0
FFE0
FFE0
0E00
0E00
0E00
0E00
ENDCHAR
STARTCHAR 002C
ENCODING 44
SWIDTH 480 0
DWIDTH 12 0
BBX 6 8 3 -4
BITMAP
38
7C
7C
3C
18
38
F0
C0
ENDCHAR
STARTCHAR 002D
ENCODING 45
SWIDTH 480 0
DWIDTH 12 0
BBX 7 3 3 5
BITMAP
FE
FE
FE
ENDCHAR
STARTCHAR 002E
ENCODING 46
SWIDTH 480 0
DWIDTH 12 0
BBX 4 4 4 0
BITMAP
70
F0
F0
70
ENDCHAR
STARTCHAR 002F
ENCODING 47
SWIDTH 480 0
DWIDTH 12 0
BBX 10 21 1 -4
BITMAP
01C0
01C0
0380
0380
0380
0700
0700
0700
0E00
0E00
0E00
1C00
1C00
1C00
3C00
3800
3800
7800
7000
7000
F000
ENDCHAR
STARTCHAR 0030
ENCODING 48
SWIDTH 480 0
DWIDTH 12 0
BBX 11 16 1 0
BITMAP
1E00
3F80
7F80
71C0
E1C0
E0C0
E4E0
EEE0
EEE0
E4E0
E0C0
E1C0
E1C0
7BC0
7F80
3F00
ENDCHAR
STARTCHAR 0031
ENCODING 49
SWIDTH 480 0
DWIDTH 12 0
BBX 10 15 1 0
BITMAP
0E00
1E00
7E00
FE00
6E00
0E00
0E00
0E00
0E00
0E00
0E00
0E00
7FC0
7FC0
7FC0
ENDCHAR
STARTCHAR 0032
ENCODING 50
SWIDTH 480 0
DWIDTH 12 0
BBX 11 16 1 0
BITMAP
1E00
7F80
FF80
63C0
01C0
01C0
0380
0780
0F00
1E00
3C00
7800
7000
7FE0
FFE0
FFE0
ENDCHAR
STARTCHAR 0033
ENCODING 51
SWIDTH 480 0
DWIDTH 12 0
BBX 10 16 1 0
BITMAP
3E00
FF80
7F80
43C0
01C0
03C0
0780
1F00
1F80
07C0
01C0
01C0
01C0
E3C0
FF80
FF00
ENDCHAR
STARTCHAR 0034
ENCODING 52
SWIDTH 480 0
DWIDTH 12 0
BBX 11 15 1 0
BITMAP
0380
0780
0F80
1F80
3B80
3B80
7380
6380
E380
FFE0
FFE0
0380
0380
0380
0380
ENDCHAR
STARTCHAR 0035
ENCODING 53
SWIDTH 480 0
DWIDTH 12 0
BBX 10 15 1 0
BITMAP
3FC0
3FC0
3000
7000
7000
7C00
7F00
7F80
03C0
01C0
01C0
01C0
C7C0
FF80
FF00
ENDCHAR
STARTCHAR 0036
ENCODING 54
SWIDTH 480 0
DWIDTH 12 0
BBX 10 16 1 0
BITMAP
0080
07C0
1FC0
3E00
7800
7000
7F00
FF80
FFC0
E1C0
E1C0
E1C0
F1C0
7BC0
7F80
3F00
ENDCHAR
STARTCHAR 0037
ENCODING 55
SWIDTH 480 0
DWIDTH 12 0
BBX 10 15 1 0
BITMAP
FFC0
FFC0
03C0
0380
0780
0700
0F00
0E00
0E00
1E00
1C00
1C00
1C00
3C00
3800
ENDCHAR
STARTCHAR 0038
ENCODING 56
SWIDTH 480 0
DWIDTH 12 0
BBX 11 16 1 0
BITMAP
1F00
3F80
7FC0
E1C0
E1C0
E1C0
7BC0
7F80
3F80
77C0
E1C0
E0E0
E0E0
F1C0
7FC0
3F80
ENDCHAR
STARTCHAR 0039
ENCODING 57
SWIDTH 480 0
DWIDTH 12 0
BBX 10 16 1 0
BITMAP
1E00
3F80
7F80
F1C0
E1C0
E1C0
E1C0
F1C0
7FC0
3FC0
01C0
0380
0780
7F00
7E00
7800
ENDCHAR
STARTCHAR 003A
ENCODING 58
SWIDTH 480 0
DWIDTH 12 0
BBX 5 12 4 0
BITMAP
60
F0
F8
F0
60
00
00
00
70
F0
F0
70
ENDCHAR
STARTCHAR 003B
ENCODING 59
SWIDTH 480 0
DWIDTH 12 0
BBX 6 16 3 -4
BITMAP
30
78
7C
78
30
00
00
00
38
78
78
38
18
78
F0
C0
ENDCHAR
STARTCHAR 003C
ENCODING 60
SWIDTH 480 0
DWIDTH 12 0
BBX 11 11 1 1
BITMAP
0040
03C0
0FC0
3F80
FC00
F000
FC00
7F80
0FE0
03C0
00C0
ENDCHAR
STARTCHAR 003D
ENCODING 61
SWIDTH 480 0
DWIDTH 12 0
BBX 11 7 1 3
BITMAP
FFE0
FFE0
0000
0000
0000
FFE0
FFE0
ENDCHAR
STARTCHAR 003E
ENCODING 62
SWIDTH 480 0
DWIDTH 12 0
BBX 10 11 1 1
BITMAP
4000
F000
FC00
3F80
0FC0
01C0
07C0
3F80
FE00
F800
4000
ENDCHAR
STARTCHAR 003F
ENCODING 63
SWIDTH 480 0
DWIDTH 12 0
BBX 9 16 2 0
BITMAP
3C00
FF00
FF80
0780
0380
0780
0F00
1E00
3C00
3800
0000
0000
1800
3C00
3C00
3800
ENDCHAR
STARTCHAR 0040
ENCODING 64
SWIDTH 480 0
DWIDTH 12 0
BBX 12 19 0 -3
BITMAP
0780
1FC0
3CE0
3060
7070
63F0
67F0
6F70
EE70
EE70
EE70
6E70
6770
67F0
63F0
7000
3800
1FE0
0FE0
ENDCHAR
STARTCHAR 0041
ENCODING 65
SWIDTH 480 0
DWIDTH 12 0
BBX 12 15 0 0
BITMAP
0F00
0F80
0F80
1F80
1DC0
19C0
39C0
39C0
38E0
3FE0
7FE0
70E0
70F0
7070
F070
ENDCHAR
STARTCHAR 0042
ENCODING 66
SWIDTH 480 0
DWIDTH 12 0
BBX 11 16 1 0
BITMAP
3C00
FF80
FFC0
E1C0
E1C0
E1C0
E380
FF00
FF80
E1C0
E0E0
E0E0
E1E0
F7C0
FFC0
FF00
ENDCHAR
STARTCHAR 0043
ENCODING 67
SWIDTH 480 0
DWIDTH 12 0
BBX 11 16 1 0
BITMAP
0F80
1FE0
7FC0
7840
F000
E000
E000
E000
E000
E000
E000
E000
F000
7CC0
3FC0
1FC0
ENDCHAR
STARTCHAR 0044
ENCODING 68
SWIDTH 480 0
DWIDTH 12 0
BBX 11 16 1 0
BITMAP
3800
FF00
FF80
E3C0
E1C0
E1E0
E0E0
E0E0
E0E0
E0E0
E1E0
E1C0
E3C0
FF80
FF80
FE00
ENDCHAR
STARTCHAR 0045
ENCODING 69
SWIDTH 480 0
DWIDTH 12 0
BBX 10 15 2 0
BITMAP
FF80
FF80
E000
E000
E000
E000
FF00
FF00
E000
E000
E000
E000
FFC0
FFC0
FFC0
ENDCHAR
STARTCHAR 0046
ENCODING 70
SWIDTH 480 0
DWIDTH 12 0
BBX 9 15 2 0
BITMAP
FF80
FF80
E000
E000
E000
E000
FF00
FF00
E000
E000
E000
E000
E000
E000
E000
ENDCHAR
STARTCHAR 0047
ENCODING 71
SWIDTH 480 0
DWIDTH 12 0
BBX 11 16 1 0
BITMAP
0F80
3FE0
7FC0
7840
F000
E000
E000
E000
E1E0
E1E0
E1E0
E1E0
F1E0
7DE0
3FE0
1FE0
ENDCHAR
STARTCHAR 0048
ENCODING 72
SWIDTH 480 0
DWIDTH 12 0
BBX 10 15 1 0
BITMAP
E1C0
E1C0
E1C0
E1C0
E1C0
E1C0
FFC0
FFC0
E1C0
E1C0
E1C0
E1C0
E1C0
E1C0
E1C0
ENDCHAR
STARTCHAR 0049
ENCODING 73
SWIDTH 480 0
DWIDTH 12 0
BBX 10 15 1 0
BITMAP
FFC0
FFC0
0E00
0E00
0E00
0E00
0E00
0E00
0E00
0E00
0E00
0E00
FFC0
FFC0
FFC0
ENDCHAR
STARTCHAR 004A
ENCODING 74
SWIDTH 480 0
DWIDTH 12 0
BBX 10 15 1 0
BITMAP
3FC0
3FC0
01C0
01C0
01C0
01C0
01C0
01C0
01C0
01C0
01C0
03C0
7780
FF80
7F00
ENDCHAR
STARTCHAR 004B
ENCODING 75
SWIDTH 480 0
DWIDTH 12 0
BBX 11 15 1 0
BITMAP
E1C0
E3C0
E380
E700
EF00
EE00
FC00
FE00
EF00
E700
E780
E3C0
E1C0
E1E0
E0E0
ENDCHAR
STARTCHAR 004C
ENCODING 76
SWIDTH 480 0
DWIDTH 12 0
BBX 10 15 2 0
BITMAP
E000
E000
E000
E000
E000
E000
E000
E000
E000
E000
E000
E000
FFC0
FFC0
FFC0
ENDCHAR
STARTCHAR 004D
ENCODING 77
SWIDTH 480 0
DWIDTH 12 0
BBX 11 15 1 0
BITMAP
E1C0
F1C0
F3C0
F3C0
DBC0
DFC0
DEE0
CEE0
CEE0
CCE0
C0E0
C0E0
C0E0
C0E0
C0E0
ENDCHAR
STARTCHAR 004E
ENCODING 78
SWIDTH 480 0
DWIDTH 12 0
BBX 10 15 1 0
BITMAP
E0C0
F0C0
F0C0
F8C0
F8C0
FCC0
ECC0
EEC0
E6C0
E7C0
E3C0
E3C0
E1C0
E1C0
E0C0
ENDCHAR
STARTCHAR 004F
ENCODING 79
SWIDTH 480 0
DWIDTH 12 0
BBX 11 16 1 0
BITMAP
1E00
3F80
7FC0
F1C0
E1C0
E0E0
E0E0
E0E0
E0E0
E0E0
E0E0
E1E0
E1C0
7BC0
7F80
3F00
ENDCHAR
STARTCHAR 0050
ENCODING 80
SWIDTH 480 0
DWIDTH 12 0
BBX 11 16 1 0
BITMAP
3C00
FF80
FFC0
E1E0
E0E0
E0E0
E0E0
E1E0
FFC0
FF80
FE00
E000
E000
E000
E000
E000
ENDCHAR
STARTCHAR 0051
ENCODING 81
SWIDTH 480 0
DWIDTH 12 0
BBX 11 20 1 -4
BITMAP
0E00
3F80
7FC0
F1C0
E1C0
E0E0
E0E0
E0E0
E0E0
E0E0
E0E0
E1E0
E1C0
7BC0
7F80
3F00
0E00
0F00
07E0
01C0
ENDCHAR
STARTCHAR 0052
ENCODING 82
SWIDTH 480 0
DWIDTH 12 0
BBX 11 16 1 0
BITMAP
3C00
FF80
FF80
E3C0
E1C0
E1C0
E1C0
E3C0
FF80
FF00
E700
E380
E3C0
E1C0
E1E0
E0E0
ENDCHAR
STARTCHAR 0053
ENCODING 83
SWIDTH 480 0
DWIDTH 12 0
BBX 10 16 1 0
BITMAP
1F00
3FC0
7F80
F000
E000
F000
7800
7F00
1F80
07C0
01C0
01C0
01C0
63C0
FFC0
7F80
ENDCHAR
STARTCHAR 0054
ENCODING 84
SWIDTH 480 0
DWIDTH 12 0
BBX 11 15 1 0
BITMAP
FFE0
FFE0
0E00
0E00
0E00
0E00
0E00
0E00
0E00
0E00
0E00
0E00
0E00
0E00
0E00
ENDCHAR
STARTCHAR 0055
ENCODING 85
SWIDTH 480 0
DWIDTH 12 0
BBX 11 15 1 0
BITMAP
E1E0
E1E0
E1E0
E1E0
E1E0
E1E0
E1E0
E1E0
E1E0
E1E0
E1C0
E1C0
F3C0
7FC0
3F80
ENDCHAR
STARTCHAR 0056
ENCODING 86
SWIDTH 480 0
DWIDTH 12 0
BBX 11 15 1 0
BITMAP
E0E0
E0E0
E1E0
E1C0
E1C0
71C0
71C0
7380
3380
3B80
3B00
3F00
1F00
1E00
1E00
ENDCHAR
STARTCHAR 0057
ENCODING 87
SWIDTH 480 0
DWIDTH 12 0
BBX 11 15 1 0
BITMAP
C0E0
C0E0
C0E0
C0E0
C0E0
CEE0
CEE0
DEE0
DEE0
DBC0
DBC0
F3C0
F1C0
F1C0
E1C0
ENDCHAR
STARTCHAR 0058
ENCODING 88
SWIDTH 480 0
DWIDTH 12 0
BBX 12 15 0 0
BITMAP
70E0
38E0
39C0
1DC0
1F80
0F80
0F00
0F00
0F80
1FC0
1DC0
39E0
78E0
70F0
F070
ENDCHAR
STARTCHAR 0059
ENCODING 89
SWIDTH 480 0
DWIDTH 12 0
BBX 11 15 1 0
BITMAP
E0E0
E1C0
F1C0
71C0
7380
3B80
3F00
1F00
1E00
0E00
0E00
0E00
0E00
0E00
0E00
ENDCHAR
STARTCHAR 005A
ENCODING 90
SWIDTH 480 0
DWIDTH 12 0
BBX 10 15 1 0
BITMAP
FFC0
FFC0
03C0
0380
0700
0F00
0E00
1E00
1C00
3800
3800
7000
7FC0
FFC0
FFC0
ENDCHAR
STARTCHAR 005B
ENCODING 91
SWIDTH 480 0
DWIDTH 12 0
BBX 7 21 3 -4
BITMAP
FE
FE
E0
E0
E0
E0
E0
E0
E0
E0
E0
E0
E0
E0
E0
E0
E0
E0
E0
FE
FE
ENDCHAR
STARTCHAR 005C
ENCODING 92
SWIDTH 480 0
DWIDTH 12 0
BBX 9 21 2 -4
BITMAP
E000
E000
E000
F000
7000
7000
7800
3800
3800
3C00
1C00
1C00
1E00
0E00
0E00
0F00
0700
0700
0780
0380
0380
ENDCHAR
STARTCHAR 005D
ENCODING 93
SWIDTH 480 0
DWIDTH 12 0
BBX 7 21 3 -4
BITMAP
FE
FE
0E
0E
0E
0E
0E
0E
0E
0E
0E
0E
0E
0E
0E
0E
0E
0E
0E
FE
FE
ENDCHAR
STARTCHAR 005E
ENCODING 94
SWIDTH 480 0
DWIDTH 12 0
BBX 11 9 1 6
BITMAP
1E00
1F00
3F00
3B80
7BC0
F1C0
E1E0
E0E0
0080
ENDCHAR
STARTCHAR 005F
ENCODING 95
SWIDTH 480 0
DWIDTH 12 0
BBX 12 3 0 -4
BITMAP
FFF0
FFF0
FFF0
ENDCHAR
STARTCHAR 0060
ENCODING 96
SWIDTH 480 0
DWIDTH 12 0
BBX 5 4 4 13
BITMAP
40
F0
78
18
ENDCHAR
STARTCHAR 0061
ENCODING 97
SWIDTH 480 0
DWIDTH 12 0
BBX 10 12 1 0
BITMAP
7F00
7F80
3FC0
01C0
01C0
3FC0
7FC0
E1C0
E1C0
F1C0
7FC0
3FC0
ENDCHAR
STARTCHAR 0062
ENCODING 98
SWIDTH 480 0
DWIDTH 12 0
BBX 10 17 2 0
BITMAP
E000
E000
E000
E000
E000
FE00
FF00
FF80
E380
E3C0
E1C0
E1C0
E3C0
E380
E780
FF00
FE00
ENDCHAR
STARTCHAR 0063
ENCODING 99
SWIDTH 480 0
DWIDTH 12 0
BBX 11 12 1 0
BITMAP
0FC0
3FC0
7FC0
7000
F000
E000
E000
E000
F000
7C40
3FC0
1FE0
ENDCHAR
STARTCHAR 0064
ENCODING 100
SWIDTH 480 0
DWIDTH 12 0
BBX 10 17 1 0
BITMAP
01C0
01C0
01C0
01C0
01C0
3FC0
7FC0
FFC0
E1C0
E1C0
E1C0
E1C0
E1C0
E1C0
F9C0
7FC0
3FC0
ENDCHAR
STARTCHAR 0065
ENCODING 101
SWIDTH 480 0
DWIDTH 12 0
BBX 11 12 1 0
BITMAP
1F00
3F80
7FC0
E1C0
E0E0
FFE0
FFE0
E000
E000
7DC0
7FC0
1FC0
ENDCHAR
STARTCHAR 0066
ENCODING 102
SWIDTH 480 0
DWIDTH 12 0
BBX 11 17 1 0
BITMAP
0FE0
1FE0
1E60
1C00
3C00
FFC0
FFC0
FFC0
3C00
3C00
3C00
3C00
3C00
3C00
3C00
3C00
3C00
ENDCHAR
STARTCHAR 0067
ENCODING 103
SWIDTH 480 0
DWIDTH 12 0
BBX 10 16 1 -4
BITMAP
1FC0
7FC0
7FC0
F1C0
E1C0
E1C0
E1C0
E1C0
F3C0
7FC0
3FC0
01C0
01C0
E780
FF80
FF00
ENDCHAR
STARTCHAR 0068
ENCODING 104
SWIDTH 480 0
DWIDTH 12 0
BBX 9 17 2 0
BITMAP
E000
E000
E000
E000
E000
FE00
FF00
FF80
E380
E380
E380
E380
E380
E380
E380
E380
E380
ENDCHAR
STARTCHAR 0069
ENCODING 105
SWIDTH 480 0
DWIDTH 12 0
BBX 11 17 1 0
BITMAP
1C00
3C00
3C00
1800
0000
FC00
FC00
FC00
1C00
1C00
1C00
1C00
1C00
1C00
1E40
0FE0
07E0
ENDCHAR
STARTCHAR 006A
ENCODING 106
SWIDTH 480 0
DWIDTH 12 0
BBX 9 21 1 -4
BITMAP
0700
0780
0780
0300
0000
7F80
7F80
7F80
0380
0380
0380
0380
0380
0380
0380
0380
0380
0380
7F80
FF00
7E00
ENDCHAR
STARTCHAR 006B
ENCODING 107
SWIDTH 480 0
DWIDTH 12 0
BBX 10 17 2 0
BITMAP
E000
E000
E000
E000
E000
E3C0
E780
E700
EE00
FC00
F800
FC00
EE00
EF00
E780
E380
E3C0
ENDCHAR
STARTCHAR 006C
ENCODING 108
SWIDTH 480 0
DWIDTH 12 0
BBX 11 17 1 0
BITMAP
FC00
FC00
1C00
1C00
1C00
1C00
1C00
1C00
1C00
1C00
1C00
1C00
1C00
1C00
1FC0
0FE0
07E0
ENDCHAR
STARTCHAR 006D
ENCODING 109
SWIDTH 480 0
DWIDTH 12 0
BBX 11 12 1 0
BITMAP
7B80
FFC0
FFE0
CCE0
CCE0
CEE0
CEE0
CEE0
C0E0
C0E0
C0E0
C0E0
ENDCHAR
STARTCHAR 006E
ENCODING 110
SWIDTH 480 0
DWIDTH 12 0
BBX 9 12 2 0
BITMAP
FE00
FF00
FF80
E380
E380
E380
E380
E380
E380
E380
E380
E380
ENDCHAR
STARTCHAR 006F
ENCODING 111
SWIDTH 480 0
DWIDTH 12 0
BBX 11 12 1 0
BITMAP
1F00
7F80
7FC0
F1C0
E1E0
E0E0
E0E0
E1E0
E1C0
FBC0
7F80
3F00
ENDCHAR
STARTCHAR 0070
ENCODING 112
SWIDTH 480 0
DWIDTH 12 0
BBX 10 16 2 -4
BITMAP
FE00
FF00
FF80
E380
E3C0
E1C0
E1C0
E3C0
E380
F780
FF80
FF00
E000
E000
E000
E000
ENDCHAR
STARTCHAR 0071
ENCODING 113
SWIDTH 480 0
DWIDTH 12 0
BBX 10 16 1 -4
BITMAP
1F80
7FC0
7FC0
F1C0
E1C0
E1C0
E1C0
E1C0
E1C0
FBC0
7FC0
3FC0
01C0
01C0
01C0
01C0
ENDCHAR
STARTCHAR 0072
ENCODING 114
SWIDTH 480 0
DWIDTH 12 0
BBX 9 12 2 0
BITMAP
3F80
FF80
FF80
E000
E000
E000
E000
E000
E000
E000
E000
E000
ENDCHAR
STARTCHAR 0073
ENCODING 115
SWIDTH 480 0
DWIDTH 12 0
BBX 10 12 1 0
BITMAP
1F80
7F80
7F80
7000
7800
7F00
3F80
07C0
01C0
73C0
FFC0
7F00
ENDCHAR
STARTCHAR 0074
ENCODING 116
SWIDTH 480 0
DWIDTH 12 0
BBX 11 15 1 0
BITMAP
1C00
1C00
1C00
FFE0
FFE0
FFE0
1C00
1C00
1C00
1C00
1C00
1C00
1E40
1FE0
0FE0
ENDCHAR
STARTCHAR 0075
ENCODING 117
SWIDTH 480 0
DWIDTH 12 0
BBX 10 12 1 0
BITMAP
F1C0
F1C0
F1C0
F1C0
F1C0
F1C0
F1C0
F1C0
71C0
7BC0
7FC0
3FC0
ENDCHAR
STARTCHAR 0076
ENCODING 118
SWIDTH 480 0
DWIDTH 12 0
BBX 12 12 0 0
BITMAP
F070
7070
70E0
70E0
38E0
39C0
39C0
1DC0
1F80
0F80
0F00
0700
ENDCHAR
STARTCHAR 0077
ENCODING 119
SWIDTH 480 0
DWIDTH 12 0
BBX 12 12 0 0
BITMAP
E030
E030
E070
6770
6770
6F70
6F60
6FE0
6DE0
79E0
39E0
38E0
ENDCHAR
STARTCHAR 0078
ENCODING 120
SWIDTH 480 0
DWIDTH 12 0
BBX 11 12 1 0
BITMAP
E0E0
F1C0
7380
3B80
1F00
1E00
1F00
3F00
3B80
73C0
E1C0
E0E0
ENDCHAR
STARTCHAR 0079
ENCODING 121
SWIDTH 480 0
DWIDTH 12 0
BBX 11 16 1 -4
BITMAP
E0E0
E1C0
71C0
71C0
71C0
3B80
3B80
3B80
1F00
1F00
0F00
0E00
0E00
BC00
FC00
F800
ENDCHAR
STARTCHAR 007A
ENCODING 122
SWIDTH 480 0
DWIDTH 12 0
BBX 9 12 2 0
BITMAP
FF80
FF80
FF80
0F00
1E00
1C00
3800
7800
7000
FF80
FF80
FF80
ENDCHAR
STARTCHAR 007B
ENCODING 123
SWIDTH 480 0
DWIDTH 12 0
BBX 9 21 2 -4
BITMAP
1F80
1F80
3800
3800
3800
3800
3800
3800
3800
F000
E000
F800
3800
3800
3800
3800
3800
3800
3C00
1F80
0F80
ENDCHAR
STARTCHAR 007C
ENCODING 124
SWIDTH 480 0
DWIDTH 12 0
BBX 3 21 5 -4
BITMAP
E0
E0
E0
E0
E0
E0
E0
E0
E0
E0
E0
E0
E0
E0
E0
E0
E0
E0
E0
E0
E0
ENDCHAR
STARTCHAR 007D
ENCODING 125
SWIDTH 480 0
DWIDTH 12 0
BBX 9 21 2 -4
BITMAP
F800
FC00
1C00
1C00
1C00
1C00
1C00
1C00
0C00
0F80
0780
0F80
1C00
1C00
1C00
1C00
1C00
1C00
3C00
FC00
F800
ENDCHAR
STARTCHAR 007E
ENCODING 126
SWIDTH 480 0
DWIDTH 12 0
BBX 11 5 1 4
BITMAP
3840
FCE0
FFE0
C7C0
4180
ENDCHAR
STARTCHAR 00A0
ENCODING 160
SWIDTH 480 0
DWIDTH 12 0
BBX 0 0 0 0
BITMAP
ENDCHAR
STARTCHAR 00A1
ENCODING 161
SWIDTH 480 0
DWIDTH 12 0
BBX 4 16 4 -4
BITMAP
20
F0
F0
F0
00
00
70
70
70
70
F0
F0
F0
F0
F0
F0
ENDCHAR
STARTCHAR 00A2
ENCODING 162
SWIDTH 480 0
DWIDTH 12 0
BBX 10 17 1 -2
BITMAP
0700
0700
0700
1FC0
7FC0
7CC0
F000
E000
E000
E000
F000
7EC0
3FC0
1FC0
0700
0700
0700
ENDCHAR
STARTCHAR 00A3
ENCODING 163
SWIDTH 480 0
DWIDTH 12 0
BBX 10 16 1 0
BITMAP
0780
1FC0
1FC0
3800
3800
3800
3800
FF80
FF80
FF80
3800
3800
3800
3FC0
7FC0
7FC0
ENDCHAR
STARTCHAR 00A4
ENCODING 164
SWIDTH 480 0
DWIDTH 12 0
BBX 11 11 1 2
BITMAP
40C0
FFE0
FFC0
73C0
71C0
61C0
71C0
7FC0
FFE0
EEC0
4000
ENDCHAR
STARTCHAR 00A5
ENCODING 165
SWIDTH 480 0
DWIDTH 12 0
BBX 11 15 1 0
BITMAP
E0E0
E1C0
71C0
7180
3B80
3B00
1F00
FFC0
FFC0
0E00
FFC0
FFC0
0E00
0E00
0E00
ENDCHAR
STARTCHAR 00A6
ENCODING 166
SWIDTH 480 0
DWIDTH 12 0
BBX 3 21 5 -4
BITMAP
E0
E0
E0
E0
E0
E0
E0
E0
00
00
00
00
E0
E0
E0
E0
E0
E0
E0
E0
E0
ENDCHAR
STARTCHAR 00A7
ENCODING 167
SWIDTH 480 0
DWIDTH 12 0
BBX 10 18 1 -2
BITMAP
0F00
3FC0
7F80
7000
7800
3E00
3F80
77C0
E1C0
E1C0
71C0
7F80
3F80
07C0
01C0
63C0
7FC0
FF80
ENDCHAR
STARTCHAR 00A8
ENCODING 168
SWIDTH 480 0
DWIDTH 12 0
BBX 8 3 2 13
BITMAP
63
E7
E7
ENDCHAR
STARTCHAR 00A9
ENCODING 169
SWIDTH 480 0
DWIDTH 12 0
BBX 11 12 1 0
BITMAP
1E00
3F80
60C0
CEC0
DE60
9060
9060
9860
DE60
C0C0
7380
3F00
ENDCHAR
STARTCHAR 00AA
ENCODING 170
SWIDTH 480 0
DWIDTH 12 0
BBX 7 9 3 7
BITMAP
78
7E
0E
06
FE
E6
C6
FE
7E
ENDCHAR
STARTCHAR 00AB
ENCODING 171
SWIDTH 480 0
DWIDTH 12 0
BBX 10 10 1 2
BITMAP
18C0
39C0
3180
7380
E700
6300
7380
39C0
18C0
1080
ENDCHAR
STARTCHAR 00AC
ENCODING 172
SWIDTH 480 0
DWIDTH 12 0
BBX 10 8 1 1
BITMAP
FFC0
FFC0
00C0
00C0
00C0
00C0
00C0
00C0
ENDCHAR
STARTCHAR 00AD
ENCODING 173
SWIDTH 480 0
DWIDTH 12 0
BBX 7 3 3 5
BITMAP
FE
FE
FE
ENDCHAR
STARTCHAR 00AE
ENCODING 174
SWIDTH 480 0
DWIDTH 12 0
BBX 11 12 1 0
BITMAP
1E00
3F80
60C0
DEC0
DB60
9B60
9E60
9E60
DB60
C0C0
7380
3F00
ENDCHAR
STARTCHAR 00AF
ENCODING 175
SWIDTH 480 0
DWIDTH 12 0
BBX 7 2 3 14
BITMAP
FE
FE
ENDCHAR
STARTCHAR 00B0
ENCODING 176
SWIDTH 480 0
DWIDTH 12 0
BBX 7 6 3 11
BITMAP
7C
FE
C6
C6
FE
7C
ENDCHAR
STARTCHAR 00B1
ENCODING 177
SWIDTH 480 0
DWIDTH 12 0
BBX 11 14 1 0
BITMAP
0E00
0E00
0E00
0E00
FFE0
FFE0
FFE0
0E00
0E00
0E00
0000
FFE0
FFE0
FFE0
ENDCHAR
STARTCHAR 00B2
ENCODING 178
SWIDTH 480 0
DWIDTH 12 0
BBX 7 9 3 7
BITMAP
38
FC
FC
0C
1C
38
70
FE
FE
ENDCHAR
STARTCHAR 00B3
ENCODING 179
SWIDTH 480 0
DWIDTH 12 0
BBX 7 9 3 7
BITMAP
78
FC
4C
0C
38
3C
0E
FC
FC
ENDCHAR
STARTCHAR 00B4
ENCODING 180
SWIDTH 480 0
DWIDTH 12 0
BBX 5 4 4 13
BITMAP
10
78
F0
C0
ENDCHAR
STARTCHAR 00B5
ENCODING 181
SWIDTH 480 0
DWIDTH 12 0
BBX 10 16 1 -4
BITMAP
F1C0
F1C0
F1C0
F1C0
F1C0
F1C0
F1C0
F1C0
F1C0
F9C0
FFC0
FFC0
E000
F000
F000
F000
ENDCHAR
STARTCHAR 00B6
ENCODING 182
SWIDTH 480 0
DWIDTH 12 0
BBX 11 20 0 -4
BITMAP
0780
3FE0
7FE0
7E60
FE60
FE60
7E60
7E60
7E60
3E60
0E60
0E60
0E60
0E60
0E60
0E60
0E60
0E60
0E60
0E60
ENDCHAR
STARTCHAR 00B7
ENCODING 183
SWIDTH 480 0
DWIDTH 12 0
BBX 5 5 4 4
BITMAP
60
F0
F8
F0
60
ENDCHAR
STARTCHAR 00B8
ENCODING 184
SWIDTH 480 0
DWIDTH 12 0
BBX 5 4 4 -4
BITMAP
30
38
B8
F0
ENDCHAR
STARTCHAR 00B9
ENCODING 185
SWIDTH 480 0
DWIDTH 12 0
BBX 8 9 3 7
BITMAP
1C
3C
FC
5C
1C
1C
1C
FF
FF
ENDCHAR
STARTCHAR 00BA
ENCODING 186
SWIDTH 480 0
DWIDTH 12 0
BBX 9 9 2 7
BITMAP
3C00
7E00
F700
E300
C380
C380
E700
7F00
3E00
ENDCHAR
STARTCHAR 00BB
ENCODING 187
SWIDTH 480 0
DWIDTH 12 0
BBX 10 10 1 2
BITMAP
E700
6300
7380
39C0
39C0
39C0
3180
6300
E700
4200
ENDCHAR
STARTCHAR 00BC
ENCODING 188
SWIDTH 480 0
DWIDTH 12 0
BBX 12 16 0 0
BITMAP
1000
70E0
F0C0
31C0
3180
3380
3300
0700
0600
0E00
0CE0
1CE0
19E0
39F0
33F0
7060
ENDCHAR
STARTCHAR 00BD
ENCODING 189
SWIDTH 480 0
DWIDTH 12 0
BBX 12 16 0 0
BITMAP
1000
70E0
F0C0
31C0
3180
3380
3300
0700
0600
0E00
0DF0
1CB0
1830
38E0
31F0
71F0
ENDCHAR
STARTCHAR 00BE
ENCODING 190
SWIDTH 480 0
DWIDTH 12 0
BBX 11 16 1 0
BITMAP
F000
F0C0
31C0
7180
3B80
FB00
F700
0600
0E00
0C00
1DC0
19C0
3BC0
73E0
77E0
E0C0
ENDCHAR
STARTCHAR 00BF
ENCODING 191
SWIDTH 480 0
DWIDTH 12 0
BBX 9 16 2 -4
BITMAP
0C00
1E00
1E00
1E00
0000
0000
0C00
1C00
3C00
7800
F000
E000
E000
F300
FF80
7F00
ENDCHAR
STARTCHAR 00C0
ENCODING 192
SWIDTH 480 0
DWIDTH 12 0
BBX 12 20 0 1
BITMAP
0E00
1F00
0780
0100
0000
0F00
0F80
0F80
1F80
1DC0
19C0
39C0
39C0
38E0
3FE0
7FE0
70E0
70F0
7070
F070
ENDCHAR
STARTCHAR 00C1
ENCODING 193
SWIDTH 480 0
DWIDTH 12 0
BBX 12 21 0 0
BITMAP
0100
0300
0F80
0E00
0800
0000
0F00
0F80
0F80
1F80
1DC0
19C0
39C0
39C0
38E0
3FE0
7FE0
70E0
70F0
7070
F070
ENDCHAR
STARTCHAR 00C2
ENCODING 194
SWIDTH 480 0
DWIDTH 12 0
BBX 12 21 0 0
BITMAP
0200
0700
0F80
1DC0
0080
0000
0F00
0F80
0F80
1F80
1DC0
19C0
39C0
39C0
38E0
3FE0
7FE0
70E0
70F0
7070
F070
ENDCHAR
STARTCHAR 00C3
ENCODING 195
SWIDTH 480 0
DWIDTH 12 0
BBX 12 20 0 0
BITMAP
1EC0
1FC0
1380
0000
0000
0F00
0F80
0F80
1F80
1DC0
19C0
39C0
39C0
38E0
3FE0
7FE0
70E0
70F0
7070
F070
ENDCHAR
STARTCHAR 00C4
ENCODING 196
SWIDTH 480 0
DWIDTH 12 0
BBX 12 20 0 0
BITMAP
39C0
3DE0
39C0
0000
0000
0F00
0F80
0F80
1F80
1DC0
19C0
39C0
39C0
38E0
3FE0
7FE0
70E0
70F0
7070
F070
ENDCHAR
STARTCHAR 00C5
ENCODING 197
SWIDTH 480 0
DWIDTH 12 0
BBX 12 20 0 0
BITMAP
0600
0F80
0980
0980
0F00
0F00
0F80
0F80
1F80
1D80
19C0
39C0
39C0
38E0
3FE0
7FE0
70E0
70F0
7070
F070
ENDCHAR
STARTCHAR 00C6
ENCODING 198
SWIDTH 480 0
DWIDTH 12 0
BBX 12 15 0 0
BITMAP
07F0
0FF0
0F80
0F80
1F80
1B80
1BE0
3BE0
3B80
3F80
7F80
7380
73F0
73F0
F3F0
ENDCHAR
STARTCHAR 00C7
ENCODING 199
SWIDTH 480 0
DWIDTH 12 0
BBX 11 20 1 -4
BITMAP
0F80
1FE0
7FC0
7840
F000
E000
E000
E000
E000
E000
E000
E000
F000
7CC0
3FC0
1FC0
0E00
0700
1700
1E00
ENDCHAR
STARTCHAR 00C8
ENCODING 200
SWIDTH 480 0
DWIDTH 12 0
BBX 10 20 2 1
BITMAP
3800
7C00
1E00
0400
0000
FF80
FF80
E000
E000
E000
E000
FF00
FF00
E000
E000
E000
E000
FFC0
FFC0
FFC0
ENDCHAR
STARTCHAR 00C9
ENCODING 201
SWIDTH 480 0
DWIDTH 12 0
BBX 10 21 2 0
BITMAP
0400
0C00
3E00
3800
2000
0000
FF80
FF80
E000
E000
E000
E000
FF00
FF00
E000
E000
E000
E000
FFC0
FFC0
FFC0
ENDCHAR
STARTCHAR 00CA
ENCODING 202
SWIDTH 480 0
DWIDTH 12 0
BBX 10 21 2 0
BITMAP
0800
1C00
3E00
7700
0200
0000
FF80
FF80
E000
E000
E000
E000
FF00
FF00
E000
E000
E000
E000
FFC0
FFC0
FFC0
ENDCHAR
STARTCHAR 00CB
ENCODING 203
SWIDTH 480 0
DWIDTH 12 0
BBX 10 20 2 0
BITMAP
E700
F780
E700
0000
0000
FF80
FF80
E000
E000
E000
E000
FF00
FF00
E000
E000
E000
E000
FFC0
FFC0
FFC0
ENDCHAR
STARTCHAR 00CC
ENCODING 204
SWIDTH 480 0
DWIDTH 12 0
BBX 10 20 1 1
BITMAP
1C00
3E00
0F00
0200
0000
FFC0
FFC0
0E00
0E00
0E00
0E00
0E00
0E00
0E00
0E00
0E00
0E00
FFC0
FFC0
FFC0
ENDCHAR
STARTCHAR 00CD
ENCODING 205
SWIDTH 480 0
DWIDTH 12 0
BBX 10 21 1 0
BITMAP
0200
0600
1F00
1C00
1000
0000
FFC0
FFC0
0E00
0E00
0E00
0E00
0E00
0E00
0E00
0E00
0E00
0E00
FFC0
FFC0
FFC0
ENDCHAR
STARTCHAR 00CE
ENCODING 206
SWIDTH 480 0
DWIDTH 12 0
BBX 10 21 1 0
BITMAP
0400
0E00
1F00
3B80
0100
0000
FFC0
FFC0
0E00
0E00
0E00
0E00
0E00
0E00
0E00
0E00
0E00
0E00
FFC0
FFC0
FFC0
ENDCHAR
STARTCHAR 00CF
ENCODING 207
SWIDTH 480 0
DWIDTH 12 0
BBX 10 20 1 0
BITMAP
7380
7BC0
7380
0000
0000
FFC0
FFC0
0E00
0E00
0E00
0E00
0E00
0E00
0E00
0E00
0E00
0E00
FFC0
FFC0
FFC0
ENDCHAR
STARTCHAR 00D0
ENCODING 208
SWIDTH 480 0
DWIDTH 12 0
BBX 12 16 0 0
BITMAP
1C00
3F80
3FC0
39E0
38E0
38F0
3870
FE70
FE70
3870
38F0
38E0
38E0
3FE0
3FC0
3F00
ENDCHAR
STARTCHAR 00D1
ENCODING 209
SWIDTH 480 0
DWIDTH 12 0
BBX 10 20 1 0
BITMAP
3D80
3F80
2700
0000
0000
E0C0
F0C0
F0C0
F8C0
F8C0
FCC0
ECC0
EEC0
E6C0
E7C0
E3C0
E3C0
E1C0
E1C0
E0C0
ENDCHAR
STARTCHAR 00D2
ENCODING 210
SWIDTH 480 0
DWIDTH 12 0
BBX 11 20 1 1
BITMAP
1C00
3E00
0F00
0200
1E00
3F80
7FC0
F1C0
E1C0
E0E0
E0E0
E0E0
E0E0
E0E0
E0E0
E1E0
E1C0
7BC0
7F80
3F00
ENDCHAR
STARTCHAR 00D3
ENCODING 211
SWIDTH 480 0
DWIDTH 12 0
BBX 11 21 1 0
BITMAP
0200
0600
1F00
1C00
1000
1E00
3F80
7FC0
F1C0
E1C0
E0E0
E0E0
E0E0
E0E0
E0E0
E0E0
E1E0
E1C0
7BC0
7F80
3F00
ENDCHAR
STARTCHAR 00D4
ENCODING 212
SWIDTH 480 0
DWIDTH 12 0
BBX 11 21 1 0
BITMAP
0400
0E00
1F00
3B80
0100
1E00
3F80
7FC0
F1C0
E1C0
E0E0
E0E0
E0E0
E0E0
E0E0
E0E0
E1E0
E1C0
7BC0
7F80
3F00
ENDCHAR
STARTCHAR 00D5
ENCODING 213
SWIDTH 480 0
DWIDTH 12 0
BBX 11 20 1 0
BITMAP
3D80
3F80
2700
0000
1E00
3F80
7FC0
F1C0
E1C0
E0E0
E0E0
E0E0
E0E0
E0E0
E0E0
E1E0
E1C0
7BC0
7F80
3F00
ENDCHAR
STARTCHAR 00D6
ENCODING 214
SWIDTH 480 0
DWIDTH 12 0
BBX 11 20 1 0
BITMAP
7380
7BC0
7380
0000
1E00
3F80
7FC0
F1C0
E1C0
E0E0
E0E0
E0E0
E0E0
E0E0
E0E0
E1E0
E1C0
7BC0
7F80
3F00
ENDCHAR
STARTCHAR 00D7
ENCODING 215
SWIDTH 480 0
DWIDTH 12 0
BBX 9 9 2 3
BITMAP
C300
E780
7F00
3E00
1C00
3E00
7700
E380
C100
ENDCHAR
STARTCHAR 00D8
ENCODING 216
SWIDTH 480 0
DWIDTH 12 0
BBX 11 17 1 -1
BITMAP
1EC0
3FC0
7FC0
F3C0
E3C0
E7E0
E6E0
EEE0
ECE0
FCE0
F8E0
F9E0
F1C0
7BC0
7F80
FF00
4000
ENDCHAR
STARTCHAR 00D9
ENCODING 217
SWIDTH 480 0
DWIDTH 12 0
BBX 11 20 1 1
BITMAP
1800
3E00
0E00
0200
0000
E1E0
E1E0
E1E0
E1E0
E1E0
E1E0
E1E0
E1E0
E1E0
E1E0
E1C0
E1C0
F3C0
7FC0
3F80
ENDCHAR
STARTCHAR 00DA
ENCODING 218
SWIDTH 480 0
DWIDTH 12 0
BBX 11 21 1 0
BITMAP
0200
0700
0F00
1E00
0000
0000
E1E0
E1E0
E1E0
E1E0
E1E0
E1E0
E1E0
E1E0
E1E0
E1E0
E1C0
E1C0
F3C0
7FC0
3F80
ENDCHAR
STARTCHAR 00DB
ENCODING 219
SWIDTH 480 0
DWIDTH 12 0
BBX 11 21 1 0
BITMAP
0400
0E00
1F00
3B80
0100
0000
E1E0
E1E0
E1E0
E1E0
E1E0
E1E0
E1E0
E1E0
E1E0
E1E0
E1C0
E1C0
F3C0
7FC0
3F80
ENDCHAR
STARTCHAR 00DC
ENCODING 220
SWIDTH 480 0
DWIDTH 12 0
BBX 11 20 1 0
BITMAP
7380
7BC0
7380
0000
0000
E1E0
E1E0
E1E0
E1E0
E1E0
E1E0
E1E0
E1E0
E1E0
E1E0
E1C0
E1C0
F3C0
7FC0
3F80
ENDCHAR
STARTCHAR 00DD
ENCODING 221
SWIDTH 480 0
DWIDTH 12 0
BBX 11 21 1 0
BITMAP
0200
0700
0F00
1E00
0000
0000
E0E0
E1C0
F1C0
71C0
7380
3B80
3F00
1F00
1E00
0E00
0E00
0E00
0E00
0E00
0E00
ENDCHAR
STARTCHAR 00DE
ENCODING 222
SWIDTH 480 0
DWIDTH 12 0
BBX 11 15 1 0
BITMAP
E000
E000
FF00
FFC0
E3C0
E1E0
E0E0
E0E0
E1E0
FFC0
FFC0
FF00
E000
E000
E000
ENDCHAR
STARTCHAR 00DF
ENCODING 223
SWIDTH 480 0
DWIDTH 12 0
BBX 11 17 1 0
BITMAP
3F00
7F80
F780
E380
E380
E380
E700
E700
E700
E700
E7C0
E3E0
E0E0
E0E0
EDE0
EFE0
EFC0
ENDCHAR
STARTCHAR 00E0
ENCODING 224
SWIDTH 480 0
DWIDTH 12 0
BBX 10 17 1 0
BITMAP
1800
1C00
1F00
0600
0000
7F00
7F80
3FC0
01C0
01C0
3FC0
7FC0
E1C0
E1C0
F1C0
7FC0
3FC0
ENDCHAR
STARTCHAR 00E1
ENCODING 225
SWIDTH 480 0
DWIDTH 12 0
BBX 10 17 1 0
BITMAP
0200
0F00
1E00
1800
0000
7F00
7F80
3FC0
01C0
01C0
3FC0
7FC0
E1C0
E1C0
F1C0
7FC0
3FC0
ENDCHAR
STARTCHAR 00E2
ENCODING 226
SWIDTH 480 0
DWIDTH 12 0
BBX 10 17 1 0
BITMAP
0C00
1E00
3F00
3100
0000
7F00
7F80
3FC0
01C0
01C0
3FC0
7FC0
E1C0
E1C0
F1C0
7FC0
3FC0
ENDCHAR
STARTCHAR 00E3
ENCODING 227
SWIDTH 480 0
DWIDTH 12 0
BBX 10 17 1 0
BITMAP
1800
3F80
7F80
0000
0000
7F00
7F80
3FC0
01C0
01C0
3FC0
7FC0
E1C0
E1C0
F1C0
7FC0
3FC0
ENDCHAR
STARTCHAR 00E4
ENCODING 228
SWIDTH 480 0
DWIDTH 12 0
BBX 10 17 1 0
BITMAP
3180
7380
7380
0000
0000
7F00
7F80
3FC0
01C0
01C0
3FC0
7FC0
E1C0
E1C0
F1C0
7FC0
3FC0
ENDCHAR
STARTCHAR 00E5
ENCODING 229
SWIDTH 480 0
DWIDTH 12 0
BBX 10 18 1 0
BITMAP
0C00
1F00
1300
1300
1E00
0000
7F00
7F80
3FC0
01C0
01C0
3FC0
7FC0
E1C0
E1C0
F1C0
7FC0
3FC0
ENDCHAR
STARTCHAR 00E6
ENCODING 230
SWIDTH 480 0
DWIDTH 12 0
BBX 11 12 1 0
BITMAP
7BC0
7FC0
5FE0
0E60
0E60
7FE0
FFE0
CE00
CE00
C700
FFE0
7BE0
ENDCHAR
STARTCHAR 00E7
ENCODING 231
SWIDTH 480 0
DWIDTH 12 0
BBX 11 16 1 -4
BITMAP
0FC0
3FC0
7FC0
7000
F000
E000
E000
E000
F000
7C40
3FC0
1FE0
0E00
0700
1700
1E00
ENDCHAR
STARTCHAR 00E8
ENCODING 232
SWIDTH 480 0
DWIDTH 12 0
BBX 11 17 1 0
BITMAP
1800
1C00
1F00
0600
0000
1F00
3F80
7FC0
E1C0
E0E0
FFE0
FFE0
E000
E000
7DC0
7FC0
1FC0
ENDCHAR
STARTCHAR 00E9
ENCODING 233
SWIDTH 480 0
DWIDTH 12 0
BBX 11 17 1 0
BITMAP
0200
0F00
1F00
0C00
0000
1F00
3F80
7FC0
E1C0
E0E0
FFE0
FFE0
E000
E000
7DC0
7FC0
1FC0
ENDCHAR
STARTCHAR 00EA
ENCODING 234
SWIDTH 480 0
DWIDTH 12 0
BBX 11 17 1 0
BITMAP
0C00
1E00
3F80
1100
0000
1F00
3F80
7FC0
E1C0
E0E0
FFE0
FFE0
E000
E000
7DC0
7FC0
1FC0
ENDCHAR
STARTCHAR 00EB
ENCODING 235
SWIDTH 480 0
DWIDTH 12 0
BBX 11 17 1 0
BITMAP
3180
7380
7380
0000
0000
1F00
3F80
7FC0
E1C0
E0E0
FFE0
FFE0
E000
E000
7DC0
7FC0
1FC0
ENDCHAR
STARTCHAR 00EC
ENCODING 236
SWIDTH 480 0
DWIDTH 12 0
BBX 11 17 1 0
BITMAP
1800
3C00
1E00
0600
0000
FC00
FC00
FC00
1C00
1C00
1C00
1C00
1C00
1C00
1E40
0FE0
07E0
ENDCHAR
STARTCHAR 00ED
ENCODING 237
SWIDTH 480 0
DWIDTH 12 0
BBX 11 17 1 0
BITMAP
0600
0F00
3E00
1800
0000
FC00
FC00
FC00
1C00
1C00
1C00
1C00
1C00
1C00
1E40
0FE0
07E0
ENDCHAR
STARTCHAR 00EE
ENCODING 238
SWIDTH 480 0
DWIDTH 12 0
BBX 11 17 1 0
BITMAP
0C00
1E00
3F00
3300
0000
FC00
FC00
FC00
1C00
1C00
1C00
1C00
1C00
1C00
1E40
0FE0
07E0
ENDCHAR
STARTCHAR 00EF
ENCODING 239
SWIDTH 480 0
DWIDTH 12 0
BBX 11 17 1 0
BITMAP
6300
7380
7380
2100
0000
FC00
FC00
FC00
1C00
1C00
1C00
1C00
1C00
1C00
1E40
0FE0
07E0
ENDCHAR
STARTCHAR 00F0
ENCODING 240
SWIDTH 480 0
DWIDTH 12 0
BBX 11 17 1 0
BITMAP
0C00
1E60
0FE0
1F80
1F80
03C0
09C0
3FC0
7FC0
F1C0
E1C0
E1C0
E1C0
F1C0
7BC0
7F80
3F00
ENDCHAR
STARTCHAR 00F1
ENCODING 241
SWIDTH 480 0
DWIDTH 12 0
BBX 9 17 2 0
BITMAP
3000
7F00
FF00
0000
0000
FE00
FF00
FF80
E380
E380
E380
E380
E380
E380
E380
E380
E380
ENDCHAR
STARTCHAR 00F2
ENCODING 242
SWIDTH 480 0
DWIDTH 12 0
BBX 11 17 1 0
BITMAP
1800
1C00
1F00
0600
0000
1F00
7F80
7FC0
F1C0
E1E0
E0E0
E0E0
E1E0
E1C0
FBC0
7F80
3F00
ENDCHAR
STARTCHAR 00F3
ENCODING 243
SWIDTH 480 0
DWIDTH 12 0
BBX 11 17 1 0
BITMAP
0600
0F00
1E00
1800
0000
1F00
7F80
7FC0
F1C0
E1E0
E0E0
E0E0
E1E0
E1C0
FBC0
7F80
3F00
ENDCHAR
STARTCHAR 00F4
ENCODING 244
SWIDTH 480 0
DWIDTH 12 0
BBX 11 17 1 0
BITMAP
0C00
1E00
3F00
3100
0000
1F00
7F80
7FC0
F1C0
E1E0
E0E0
E0E0
E1E0
E1C0
FBC0
7F80
3F00
ENDCHAR
STARTCHAR 00F5
ENCODING 245
SWIDTH 480 0
DWIDTH 12 0
BBX 11 17 1 0
BITMAP
1800
3F80
7F80
0000
0000
1F00
7F80
7FC0
F1C0
E1E0
E0E0
E0E0
E1E0
E1C0
FBC0
7F80
3F00
ENDCHAR
STARTCHAR 00F6
ENCODING 246
SWIDTH 480 0
DWIDTH 12 0
BBX 11 17 1 0
BITMAP
3180
7380
7380
0000
0000
1F00
7F80
7FC0
F1C0
E1E0
E0E0
E0E0
E1E0
E1C0
FBC0
7F80
3F00
ENDCHAR
STARTCHAR 00F7
ENCODING 247
SWIDTH 480 0
DWIDTH 12 0
BBX 11 13 1 0
BITMAP
0C00
0E00
0E00
0400
0000
FFE0
FFE0
FFE0
0000
0C00
0E00
0E00
0C00
ENDCHAR
STARTCHAR 00F8
ENCODING 248
SWIDTH 480 0
DWIDTH 12 0
BBX 11 13 1 0
BITMAP
1FC0
7FC0
7FC0
F3C0
E7E0
E6E0
ECE0
FCE0
F9C0
F3C0
7F80
FF00
4000
ENDCHAR
STARTCHAR 00F9
ENCODING 249
SWIDTH 480 0
DWIDTH 12 0
BBX 10 17 1 0
BITMAP
1800
1C00
1F00
0600
0000
F1C0
F1C0
F1C0
F1C0
F1C0
F1C0
F1C0
F1C0
71C0
7BC0
7FC0
3FC0
ENDCHAR
STARTCHAR 00FA
ENCODING 250
SWIDTH 480 0
DWIDTH 12 0
BBX 10 17 1 0
BITMAP
0600
0F00
3E00
1800
0000
F1C0
F1C0
F1C0
F1C0
F1C0
F1C0
F1C0
F1C0
71C0
7BC0
7FC0
3FC0
ENDCHAR
STARTCHAR 00FB
ENCODING 251
SWIDTH 480 0
DWIDTH 12 0
BBX 10 17 1 0
BITMAP
0C00
1E00
3F00
3100
0000
F1C0
F1C0
F1C0
F1C0
F1C0
F1C0
F1C0
F1C0
71C0
7BC0
7FC0
3FC0
ENDCHAR
STARTCHAR 00FC
ENCODING 252
SWIDTH 480 0
DWIDTH 12 0
BBX 10 17 1 0
BITMAP
3180
7380
7380
0000
0000
F1C0
F1C0
F1C0
F1C0
F1C0
F1C0
F1C0
F1C0
71C0
7BC0
7FC0
3FC0
ENDCHAR
STARTCHAR 00FD
ENCODING 253
SWIDTH 480 0
DWIDTH 12 0
BBX 11 21 1 -4
BITMAP
0600
0F00
3E00
1800
0000
E0E0
E1C0
71C0
71C0
71C0
3B80
3B80
3B80
1F00
1F00
0F00
0E00
0E00
BC00
FC00
F800
ENDCHAR
STARTCHAR 00FE
ENCODING 254
SWIDTH 480 0
DWIDTH 12 0
BBX 10 21 2 -4
BITMAP
E000
E000
E000
E000
E000
FE00
FF00
FF80
E380
E3C0
E1C0
E1C0
E3C0
E380
F780
FF80
FF00
E000
E000
E000
E000
ENDCHAR
STARTCHAR 00FF
ENCODING 255
SWIDTH 480 0
DWIDTH 12 0
BBX 11 21 1 -4
BITMAP
3180
7380
7380
0000
0000
E0E0
E1C0
71C0
71C0
71C0
3B80
3B80
3B80
1F00
1F00
0F00
0E00
0E00
BC00
FC00
F800
ENDCHAR
STARTCHAR 0100
ENCODING 256
SWIDTH 480 0
DWIDTH 12 0
BBX 12 20 0 0
BITMAP
1FC0
1FC0
1FC0
0000
0000
0F00
0F80
0F80
1F80
1DC0
19C0
39C0
39C0
38E0
3FE0
7FE0
70E0
70F0
7070
F070
ENDCHAR
STARTCHAR 0101
ENCODING 257
SWIDTH 480 0
DWIDTH 12 0
BBX 10 16 1 0
BITMAP
3F80
3F80
0000
0000
7F00
7F80
3FC0
01C0
01C0
3FC0
7FC0
E1C0
E1C0
F1C0
7FC0
3FC0
ENDCHAR
STARTCHAR 0102
ENCODING 258
SWIDTH 480 0
DWIDTH 12 0
BBX 12 21 0 0
BITMAP
18C0
19C0
1F80
0F80
0000
0000
0F00
0F80
0F80
1F80
1DC0
19C0
39C0
39C0
38E0
3FE0
7FE0
70E0
70F0
7070
F070
ENDCHAR
STARTCHAR 0103
ENCODING 259
SWIDTH 480 0
DWIDTH 12 0
BBX 10 17 1 0
BITMAP
3180
3F80
3F00
0C00
0000
7F00
7F80
3FC0
01C0
01C0
3FC0
7FC0
E1C0
E1C0
F1C0
7FC0
3FC0
ENDCHAR
STARTCHAR 0104
ENCODING 260
SWIDTH 480 0
DWIDTH 12 0
BBX 13 19 0 -4
BITMAP
0F00
0F80
0F80
1F80
1DC0
19C0
39C0
39C0
38E0
3FE0
7FE0
70E0
70F0
7070
F070
0070
00E0
00E0
00F8
ENDCHAR
STARTCHAR 0105
ENCODING 261
SWIDTH 480 0
DWIDTH 12 0
BBX 10 16 1 -4
BITMAP
7F00
7F80
3FC0
01C0
01C0
3FC0
7FC0
E1C0
E1C0
F1C0
7FC0
3FC0
0380
0300
0700
03C0
ENDCHAR
STARTCHAR 0106
ENCODING 262
SWIDTH 480 0
DWIDTH 12 0
BBX 11 21 1 0
BITMAP
0100
0300
0F80
0E00
0000
0F80
1FE0
7FC0
7840
F000
E000
E000
E000
E000
E000
E000
E000
F000
7CC0
3FC0
1FC0
ENDCHAR
STARTCHAR 0107
ENCODING 263
SWIDTH 480 0
DWIDTH 12 0
BBX 11 17 1 0
BITMAP
0300
0780
1F00
0C00
0000
0FC0
3FC0
7FC0
7000
F000
E000
E000
E000
F000
7C40
3FC0
1FE0
ENDCHAR
STARTCHAR 0108
ENCODING 264
SWIDTH 480 0
DWIDTH 12 0
BBX 11 21 1 0
BITMAP
0200
0700
0F80
1DC0
0880
0F80
1FE0
7FC0
7840
F000
E000
E000
E000
E000
E000
E000
E000
F000
7CC0
3FC0
1FC0
ENDCHAR
STARTCHAR 0109
ENCODING 265
SWIDTH 480 0
DWIDTH 12 0
BBX 11 17 1 0
BITMAP
0200
0F00
1FC0
0880
0000
0FC0
3FC0
7FC0
7000
F000
E000
E000
E000
F000
7C40
3FC0
1FE0
ENDCHAR
STARTCHAR 010A
ENCODING 266
SWIDTH 480 0
DWIDTH 12 0
BBX 11 20 1 0
BITMAP
0700
0700
0700
0000
0F80
1FE0
7FC0
7840
F000
E000
E000
E000
E000
E000
E000
E000
F000
7CC0
3FC0
1FC0
ENDCHAR
STARTCHAR 010B
ENCODING 267
SWIDTH 480 0
DWIDTH 12 0
BBX 11 17 1 0
BITMAP
0700
0700
0700
0200
0000
0FC0
3FC0
7FC0
7000
F000
E000
E000
E000
F000
7C40
3FC0
1FE0
ENDCHAR
STARTCHAR 010C
ENCODING 268
SWIDTH 480 0
DWIDTH 12 0
BBX 11 21 1 0
BITMAP
0880
1DC0
0F80
0700
0200
0F80
1FE0
7FC0
7840
F000
E000
E000
E000
E000
E000
E000
E000
F000
7CC0
3FC0
1FC0
ENDCHAR
STARTCHAR 010D
ENCODING 269
SWIDTH 480 0
DWIDTH 12 0
BBX 11 17 1 0
BITMAP
0880
1FC0
0780
0200
0000
0FC0
3FC0
7FC0
7000
F000
E000
E000
E000
F000
7C40
3FC0
1FE0
ENDCHAR
STARTCHAR 010E
ENCODING 270
SWIDTH 480 0
DWIDTH 12 0
BBX 11 21 1 0
BITMAP
0200
7700
3E00
1C00
0800
3800
FF00
FF80
E3C0
E1C0
E1E0
E0E0
E0E0
E0E0
E0E0
E1E0
E1C0
E3C0
FF80
FF80
FE00
ENDCHAR
STARTCHAR 010F
ENCODING 271
SWIDTH 480 0
DWIDTH 12 0
BBX 13 17 0 0
BITMAP
03B8
03B8
03B8
03B0
03B0
3F80
7F80
7F80
7380
F380
E380
E380
F380
7380
7B80
7F80
3F80
ENDCHAR
STARTCHAR 0110
ENCODING 272
SWIDTH 480 0
DWIDTH 12 0
BBX 12 16 0 0
BITMAP
1C00
3F80
3FC0
39E0
38E0
38F0
3870
FE70
FE70
3870
38F0
38E0
38E0
3FE0
3FC0
3F00
ENDCHAR
STARTCHAR 0111
ENCODING 273
SWIDTH 480 0
DWIDTH 12 0
BBX 11 17 1 0
BITMAP
01C0
01C0
1FE0
1FE0
01C0
3FC0
7FC0
FFC0
E1C0
E1C0
E1C0
E1C0
E1C0
E1C0
F9C0
7FC0
3FC0
ENDCHAR
STARTCHAR 0112
ENCODING 274
SWIDTH 480 0
DWIDTH 12 0
BBX 10 20 2 0
BITMAP
7F00
7F00
7F00
0000
0000
FF80
FF80
E000
E000
E000
E000
FF00
FF00
E000
E000
E000
E000
FFC0
FFC0
FFC0
ENDCHAR
STARTCHAR 0113
ENCODING 275
SWIDTH 480 0
DWIDTH 12 0
BBX 11 16 1 0
BITMAP
3F80
3F80
0000
0000
1F00
3F80
7FC0
E1C0
E0E0
FFE0
FFE0
E000
E000
7DC0
7FC0
1FC0
ENDCHAR
STARTCHAR 0114
ENCODING 276
SWIDTH 480 0
DWIDTH 12 0
BBX 10 21 2 0
BITMAP
6300
6700
7E00
3E00
0000
0000
FF80
FF80
E000
E000
E000
E000
FF00
FF00
E000
E000
E000
E000
FFC0
FFC0
FFC0
ENDCHAR
STARTCHAR 0115
ENCODING 277
SWIDTH 480 0
DWIDTH 12 0
BBX 11 17 1 0
BITMAP
3180
3F80
3F00
0C00
0000
1F00
3F80
7FC0
E1C0
E0E0
FFE0
FFE0
E000
E000
7DC0
7FC0
1FC0
ENDCHAR
STARTCHAR 0116
ENCODING 278
SWIDTH 480 0
DWIDTH 12 0
BBX 10 20 2 0
BITMAP
1C00
3C00
1C00
0000
0000
FF80
FF80
E000
E000
E000
E000
FF00
FF00
E000
E000
E000
E000
FFC0
FFC0
FFC0
ENDCHAR
STARTCHAR 0117
ENCODING 279
SWIDTH 480 0
DWIDTH 12 0
BBX 11 17 1 0
BITMAP
0C00
1E00
0E00
0400
0000
1F00
3F80
7FC0
E1C0
E0E0
FFE0
FFE0
E000
E000
7DC0
7FC0
1FC0
ENDCHAR
STARTCHAR 0118
ENCODING 280
SWIDTH 480 0
DWIDTH 12 0
BBX 10 19 2 -4
BITMAP
FF80
FF80
E000
E000
E000
E000
FF00
FF00
E000
E000
E000
E000
FFC0
FFC0
FFC0
0380
0300
0740
03C0
ENDCHAR
STARTCHAR 0119
ENCODING 281
SWIDTH 480 0
DWIDTH 12 0
BBX 11 16 1 -4
BITMAP
1F00
3F80
7FC0
E1C0
E0E0
FFE0
FFE0
E000
E000
7DC0
7FC0
1FC0
0380
0700
0740
07C0
ENDCHAR
STARTCHAR 011A
ENCODING 282
SWIDTH 480 0
DWIDTH 12 0
BBX 10 21 2 0
BITMAP
0200
7700
3E00
1C00
0800
0000
FF80
FF80
E000
E000
E000
E000
FF00
FF00
E000
E000
E000
E000
FFC0
FFC0
FFC0
ENDCHAR
STARTCHAR 011B
ENCODING 283
SWIDTH 480 0
DWIDTH 12 0
BBX 11 17 1 0
BITMAP
3300
3F00
1E00
0C00
0000
1F00
3F80
7FC0
E1C0
E0E0
FFE0
FFE0
E000
E000
7DC0
7FC0
1FC0
ENDCHAR
STARTCHAR 011C
ENCODING 284
SWIDTH 480 0
DWIDTH 12 0
BBX 11 21 1 0
BITMAP
0200
0700
0F80
1DC0
0880
0F80
3FE0
7FC0
7840
F000
E000
E000
E000
E1E0
E1E0
E1E0
E1E0
F1E0
7DE0
3FE0
1FE0
ENDCHAR
STARTCHAR 011D
ENCODING 285
SWIDTH 480 0
DWIDTH 12 0
BBX 10 21 1 -4
BITMAP
0C00
1E00
3F00
3100
0000
1FC0
7FC0
7FC0
F1C0
E1C0
E1C0
E1C0
E1C0
F3C0
7FC0
3FC0
01C0
01C0
E780
FF80
FF00
ENDCHAR
STARTCHAR 011E
ENCODING 286
SWIDTH 480 0
DWIDTH 12 0
BBX 11 21 1 0
BITMAP
18C0
19C0
1FC0
0F80
0000
0F80
3FE0
7FC0
7840
F000
E000
E000
E000
E1E0
E1E0
E1E0
E1E0
F1E0
7DE0
3FE0
1FE0
ENDCHAR
STARTCHAR 011F
ENCODING 287
SWIDTH 480 0
DWIDTH 12 0
BBX 10 21 1 -4
BITMAP
3180
3F80
3F00
0C00
0000
1FC0
7FC0
7FC0
F1C0
E1C0
E1C0
E1C0
E1C0
F3C0
7FC0
3FC0
01C0
01C0
E780
FF80
FF00
ENDCHAR
STARTCHAR 0120
ENCODING 288
SWIDTH 480 0
DWIDTH 12 0
BBX 11 20 1 0
BITMAP
0700
0700
0700
0000
0F80
3FE0
7FC0
7840
F000
E000
E000
E000
E1E0
E1E0
E1E0
E1E0
F1E0
7DE0
3FE0
1FE0
ENDCHAR
STARTCHAR 0121
ENCODING 289
SWIDTH 480 0
DWIDTH 12 0
BBX 10 21 1 -4
BITMAP
0C00
1E00
0E00
0400
0000
1FC0
7FC0
7FC0
F1C0
E1C0
E1C0
E1C0
E1C0
F3C0
7FC0
3FC0
01C0
01C0
E780
FF80
FF00
ENDCHAR
STARTCHAR 0122
ENCODING 290
SWIDTH 480 0
DWIDTH 12 0
BBX 11 20 1 -4
BITMAP
0F80
3FE0
7FC0
7840
F000
E000
E000
E000
E1E0
E1E0
E1E0
E1E0
F1E0
7DE0
3FE0
1FE0
0000
0600
0E00
1E00
ENDCHAR
STARTCHAR 0123
ENCODING 291
SWIDTH 480 0
DWIDTH 12 0
BBX 10 21 1 -3
BITMAP
0700
0E00
0E00
0E00
0000
1FC0
7FC0
7FC0
F1C0
E1C0
E1C0
E1C0
E1C0
F3C0
7FC0
3FC0
01C0
01C0
E780
FF80
FF00
ENDCHAR
STARTCHAR 0124
ENCODING 292
SWIDTH 480 0
DWIDTH 12 0
BBX 10 21 1 0
BITMAP
0400
0E00
1F00
3B80
0100
0000
E1C0
E1C0
E1C0
E1C0
E1C0
E1C0
FFC0
FFC0
E1C0
E1C0
E1C0
E1C0
E1C0
E1C0
E1C0
ENDCHAR
STARTCHAR 0125
ENCODING 293
SWIDTH 480 0
DWIDTH 12 0
BBX 9 21 2 0
BITMAP
2000
7000
FC00
8800
0000
E000
E000
E000
E000
FE00
FF00
FF80
E380
E380
E380
E380
E380
E380
E380
E380
E380
ENDCHAR
STARTCHAR 0126
ENCODING 294
SWIDTH 480 0
DWIDTH 12 0
BBX 12 15 0 0
BITMAP
38E0
FFF0
FFF0
FFF0
38E0
38E0
3FE0
3FE0
3FE0
38E0
38E0
38E0
38E0
38E0
38E0
ENDCHAR
STARTCHAR 0127
ENCODING 295
SWIDTH 480 0
DWIDTH 12 0
BBX 10 17 1 0
BITMAP
7000
7000
FE00
FE00
7000
7F00
7F80
7FC0
71C0
71C0
71C0
71C0
71C0
71C0
71C0
71C0
71C0
ENDCHAR
STARTCHAR 0128
ENCODING 296
SWIDTH 480 0
DWIDTH 12 0
BBX 10 20 1 0
BITMAP
3D80
3F80
2700
0000
0000
FFC0
FFC0
0E00
0E00
0E00
0E00
0E00
0E00
0E00
0E00
0E00
0E00
FFC0
FFC0
FFC0
ENDCHAR
STARTCHAR 0129
ENCODING 297
SWIDTH 480 0
DWIDTH 12 0
BBX 11 17 1 0
BITMAP
1100
7F80
7F00
0000
0000
FC00
FC00
FC00
1C00
1C00
1C00
1C00
1C00
1C00
1E40
0FE0
07E0
ENDCHAR
STARTCHAR 012A
ENCODING 298
SWIDTH 480 0
DWIDTH 12 0
BBX 10 20 1 0
BITMAP
3F80
3F80
3F80
0000
0000
FFC0
FFC0
0E00
0E00
0E00
0E00
0E00
0E00
0E00
0E00
0E00
0E00
FFC0
FFC0
FFC0
ENDCHAR
STARTCHAR 012B
ENCODING 299
SWIDTH 480 0
DWIDTH 12 0
BBX 11 16 1 0
BITMAP
7F00
7F00
0000
0000
FC00
FC00
FC00
1C00
1C00
1C00
1C00
1C00
1C00
1E40
0FE0
07E0
ENDCHAR
STARTCHAR 012C
ENCODING 300
SWIDTH 480 0
DWIDTH 12 0
BBX 10 21 1 0
BITMAP
3180
3380
3F00
1F00
0000
0000
FFC0
FFC0
0E00
0E00
0E00
0E00
0E00
0E00
0E00
0E00
0E00
0E00
FFC0
FFC0
FFC0
ENDCHAR
STARTCHAR 012D
ENCODING 301
SWIDTH 480 0
DWIDTH 12 0
BBX 11 17 1 0
BITMAP
7300
7F00
3F00
0C00
0000
FC00
FC00
FC00
1C00
1C00
1C00
1C00
1C00
1C00
1E40
0FE0
07E0
ENDCHAR
STARTCHAR 012E
ENCODING 302
SWIDTH 480 0
DWIDTH 12 0
BBX 10 19 1 -4
BITMAP
FFC0
FFC0
0E00
0E00
0E00
0E00
0E00
0E00
0E00
0E00
0E00
0E00
FFC0
FFC0
FFC0
0C00
1C00
1C00
1E00
ENDCHAR
STARTCHAR 012F
ENCODING 303
SWIDTH 480 0
DWIDTH 12 0
BBX 11 21 1 -4
BITMAP
1C00
3C00
3C00
1800
0000
FC00
FC00
FC00
1C00
1C00
1C00
1C00
1C00
1C00
1F40
0FE0
07E0
0180
0380
0380
03C0
ENDCHAR
STARTCHAR 0130
ENCODING 304
SWIDTH 480 0
DWIDTH 12 0
BBX 10 21 1 0
BITMAP
0400
0E00
0E00
0400
0000
0000
FFC0
FFC0
0E00
0E00
0E00
0E00
0E00
0E00
0E00
0E00
0E00
0E00
FFC0
FFC0
FFC0
ENDCHAR
STARTCHAR 0131
ENCODING 305
SWIDTH 480 0
DWIDTH 12 0
BBX 11 12 1 0
BITMAP
FC00
FC00
FC00
1C00
1C00
1C00
1C00
1C00
1C00
1E40
0FE0
07E0
ENDCHAR
STARTCHAR 0132
ENCODING 306
SWIDTH 480 0
DWIDTH 12 0
BBX 11 15 1 0
BITMAP
E0E0
E0E0
E0E0
E0E0
E0E0
E0E0
E0E0
E0E0
E0E0
E0E0
E0E0
E0E0
EDE0
EFC0
EF80
ENDCHAR
STARTCHAR 0133
ENCODING 307
SWIDTH 480 0
DWIDTH 12 0
BBX 10 21 1 -4
BITMAP
71C0
F3C0
F3C0
7180
0000
71C0
71C0
71C0
71C0
71C0
71C0
71C0
71C0
71C0
71C0
71C0
71C0
03C0
0F80
0F80
1F00
ENDCHAR
STARTCHAR 0134
ENCODING 308
SWIDTH 480 0
DWIDTH 12 0
BBX 10 21 1 0
BITMAP
0200
0700
0F80
1DC0
0880
0000
3FC0
3FC0
01C0
01C0
01C0
01C0
01C0
01C0
01C0
01C0
01C0
03C0
7780
FF80
7F00
ENDCHAR
STARTCHAR 0135
ENCODING 309
SWIDTH 480 0
DWIDTH 12 0
BBX 9 21 1 -4
BITMAP
0600
0F00
1F80
1980
0000
7F80
7F80
7F80
0380
0380
0380
0380
0380
0380
0380
0380
0380
0380
7F80
FF00
7E00
ENDCHAR
STARTCHAR 0136
ENCODING 310
SWIDTH 480 0
DWIDTH 12 0
BBX 11 19 1 -4
BITMAP
E1C0
E3C0
E380
E700
EF00
EE00
FC00
FE00
EF00
E700
E780
E3C0
E1C0
E1E0
E0E0
0000
0600
0E00
1C00
ENDCHAR
STARTCHAR 0137
ENCODING 311
SWIDTH 480 0
DWIDTH 12 0
BBX 10 21 2 -4
BITMAP
E000
E000
E000
E000
E000
E3C0
E780
E700
EE00
FC00
F800
FC00
EE00
EF00
E780
E380
E3C0
0000
0C00
1C00
3800
ENDCHAR
STARTCHAR 0138
ENCODING 312
SWIDTH 480 0
DWIDTH 12 0
BBX 10 12 2 0
BITMAP
E3C0
E780
E700
EE00
FC00
F800
FC00
EE00
EF00
E780
E380
E3C0
ENDCHAR
STARTCHAR 0139
ENCODING 313
SWIDTH 480 0
DWIDTH 12 0
BBX 10 21 2 0
BITMAP
0800
1800
7C00
7000
4000
0000
E000
E000
E000
E000
E000
E000
E000
E000
E000
E000
E000
E000
FFC0
FFC0
FFC0
ENDCHAR
STARTCHAR 013A
ENCODING 314
SWIDTH 480 0
DWIDTH 12 0
BBX 11 20 1 1
BITMAP
0E00
3F00
1800
0000
FC00
FC00
1C00
1C00
1C00
1C00
1C00
1C00
1C00
1C00
1C00
1C00
1C00
1FC0
0FE0
07E0
ENDCHAR
STARTCHAR 013B
ENCODING 315
SWIDTH 480 0
DWIDTH 12 0
BBX 10 19 2 -4
BITMAP
E000
E000
E000
E000
E000
E000
E000
E000
E000
E000
E000
E000
FFC0
FFC0
FFC0
0000
0C00
1C00
3C00
ENDCHAR
STARTCHAR 013C
ENCODING 316
SWIDTH 480 0
DWIDTH 12 0
BBX 11 21 1 -4
BITMAP
FC00
FC00
1C00
1C00
1C00
1C00
1C00
1C00
1C00
1C00
1C00
1C00
1C00
1C00
1FC0
0FE0
07E0
0000
0300
0700
0F00
ENDCHAR
STARTCHAR 013D
ENCODING 317
SWIDTH 480 0
DWIDTH 12 0
BBX 10 16 2 0
BITMAP
0700
E700
E700
E600
E600
E600
E000
E000
E000
E000
E000
E000
E000
FFC0
FFC0
FFC0
ENDCHAR
STARTCHAR 013E
ENCODING 318
SWIDTH 480 0
DWIDTH 12 0
BBX 11 17 1 0
BITMAP
FCE0
FCE0
1CE0
1CC0
1CC0
1C00
1C00
1C00
1C00
1C00
1C00
1C00
1C00
1C00
1FC0
0FE0
07E0
ENDCHAR
STARTCHAR 013F
ENCODING 319
SWIDTH 480 0
DWIDTH 12 0
BBX 10 15 2 0
BITMAP
E000
E000
E000
E000
E380
E780
E780
E380
E000
E000
E000
E000
FFC0
FFC0
FFC0
ENDCHAR
STARTCHAR 0140
ENCODING 320
SWIDTH 480 0
DWIDTH 12 0
BBX 13 17 1 0
BITMAP
FC00
FC00
1C00
1C00
1C00
1C00
1C78
1C78
1C78
1C30
1C00
1C00
1C00
1C00
1FC0
0FE0
07E0
ENDCHAR
STARTCHAR 0141
ENCODING 321
SWIDTH 480 0
DWIDTH 12 0
BBX 12 15 0 0
BITMAP
3800
3800
3800
3800
3B00
3F80
3F00
FC00
F800
7800
3800
3800
3FF0
3FF0
3FF0
ENDCHAR
STARTCHAR 0142
ENCODING 322
SWIDTH 480 0
DWIDTH 12 0
BBX 11 17 1 0
BITMAP
FC00
FC00
1C00
1C00
1C00
1F00
1F80
3E00
7C00
7C00
1C00
1C00
1C00
1C00
1FC0
0FE0
07E0
ENDCHAR
STARTCHAR 0143
ENCODING 323
SWIDTH 480 0
DWIDTH 12 0
BBX 10 21 1 0
BITMAP
0200
0700
0F00
1C00
0000
0000
E0C0
F0C0
F0C0
F8C0
F8C0
FCC0
ECC0
EEC0
E6C0
E7C0
E3C0
E3C0
E1C0
E1C0
E0C0
ENDCHAR
STARTCHAR 0144
ENCODING 324
SWIDTH 480 0
DWIDTH 12 0
BBX 9 17 2 0
BITMAP
0C00
1E00
3C00
3000
0000
FE00
FF00
FF80
E380
E380
E380
E380
E380
E380
E380
E380
E380
ENDCHAR
STARTCHAR 0145
ENCODING 325
SWIDTH 480 0
DWIDTH 12 0
BBX 10 19 1 -4
BITMAP
E0C0
F0C0
F0C0
F8C0
F8C0
FCC0
ECC0
EEC0
E6C0
E7C0
E3C0
E3C0
E1C0
E1C0
E0C0
0000
0600
0E00
1C00
ENDCHAR
STARTCHAR 0146
ENCODING 326
SWIDTH 480 0
DWIDTH 12 0
BBX 9 16 2 -4
BITMAP
FE00
FF00
FF80
E380
E380
E380
E380
E380
E380
E380
E380
E380
0000
1C00
3C00
7800
ENDCHAR
STARTCHAR 0147
ENCODING 327
SWIDTH 480 0
DWIDTH 12 0
BBX 10 21 1 0
BITMAP
0100
3B80
1F00
0E00
0400
0000
E0C0
F0C0
F0C0
F8C0
F8C0
FCC0
ECC0
EEC0
E6C0
E7C0
E3C0
E3C0
E1C0
E1C0
E0C0
ENDCHAR
STARTCHAR 0148
ENCODING 328
SWIDTH 480 0
DWIDTH 12 0
BBX 9 17 2 0
BITMAP
6600
7E00
3C00
1800
0000
FE00
FF00
FF80
E380
E380
E380
E380
E380
E380
E380
E380
E380
ENDCHAR
STARTCHAR 0149
ENCODING 329
SWIDTH 480 0
DWIDTH 12 0
BBX 11 17 0 0
BITMAP
E000
E000
E000
C000
C000
1F80
3FC0
3FE0
38E0
38E0
38E0
38E0
38E0
38E0
38E0
38E0
38E0
ENDCHAR
STARTCHAR 014A
ENCODING 330
SWIDTH 480 0
DWIDTH 12 0
BBX 10 19 1 -4
BITMAP
E0C0
F0C0
F0C0
F8C0
F8C0
FCC0
ECC0
EEC0
E6C0
E7C0
E3C0
E3C0
E1C0
E1C0
E0C0
00C0
07C0
07C0
0780
ENDCHAR
STARTCHAR 014B
ENCODING 331
SWIDTH 480 0
DWIDTH 12 0
BBX 9 16 2 -4
BITMAP
FE00
FF00
FF80
E380
E380
E380
E380
E380
E380
E380
E380
E380
0380
0780
0F80
1F00
ENDCHAR
STARTCHAR 014C
ENCODING 332
SWIDTH 480 0
DWIDTH 12 0
BBX 11 20 1 0
BITMAP
3F80
3F80
3F80
0000
1E00
3F80
7FC0
F1C0
E1C0
E0E0
E0E0
E0E0
E0E0
E0E0
E0E0
E1E0
E1C0
7BC0
7F80
3F00
ENDCHAR
STARTCHAR 014D
ENCODING 333
SWIDTH 480 0
DWIDTH 12 0
BBX 11 16 1 0
BITMAP
3F80
3F80
0000
0000
1F00
7F80
7FC0
F1C0
E1E0
E0E0
E0E0
E1E0
E1C0
FBC0
7F80
3F00
ENDCHAR
STARTCHAR 014E
ENCODING 334
SWIDTH 480 0
DWIDTH 12 0
BBX 11 21 1 0
BITMAP
3180
3380
3F00
1F00
0000
1E00
3F80
7FC0
F1C0
E1C0
E0E0
E0E0
E0E0
E0E0
E0E0
E0E0
E1E0
E1C0
7BC0
7F80
3F00
ENDCHAR
STARTCHAR 014F
ENCODING 335
SWIDTH 480 0
DWIDTH 12 0
BBX 11 17 1 0
BITMAP
3180
3F80
3F00
0C00
0000
1F00
7F80
7FC0
F1C0
E1E0
E0E0
E0E0
E1E0
E1C0
FBC0
7F80
3F00
ENDCHAR
STARTCHAR 0150
ENCODING 336
SWIDTH 480 0
DWIDTH 12 0
BBX 11 21 1 0
BITMAP
0800
1CC0
1DC0
3380
2100
1E00
3F80
7FC0
F1C0
E1C0
E0E0
E0E0
E0E0
E0E0
E0E0
E0E0
E1E0
E1C0
7BC0
7F80
3F00
ENDCHAR
STARTCHAR 0151
ENCODING 337
SWIDTH 480 0
DWIDTH 12 0
BBX 11 17 1 0
BITMAP
08C0
1DE0
39C0
3100
0000
1F00
7F80
7FC0
F1C0
E1E0
E0E0
E0E0
E1E0
E1C0
FBC0
7F80
3F00
ENDCHAR
STARTCHAR 0152
ENCODING 338
SWIDTH 480 0
DWIDTH 12 0
BBX 12 16 0 0
BITMAP
0600
3FF0
3FF0
7380
7380
7380
E380
E3E0
E3E0
E380
6380
7380
7380
7FF0
3FF0
1FF0
ENDCHAR
STARTCHAR 0153
ENCODING 339
SWIDTH 480 0
DWIDTH 12 0
BBX 11 12 1 0
BITMAP
7BC0
FFC0
FFE0
CE60
CE60
CFE0
CFE0
CE00
CE00
EF00
FFE0
7BE0
ENDCHAR
STARTCHAR 0154
ENCODING 340
SWIDTH 480 0
DWIDTH 12 0
BBX 11 21 1 0
BITMAP
0200
0600
1F00
1C00
1000
3C00
FF80
FF80
E3C0
E1C0
E1C0
E1C0
E3C0
FF80
FF00
E700
E380
E3C0
E1C0
E1E0
E0E0
ENDCHAR
STARTCHAR 0155
ENCODING 341
SWIDTH 480 0
DWIDTH 12 0
BBX 9 17 2 0
BITMAP
0600
0F00
3E00
1800
0000
3F80
FF80
FF80
E000
E000
E000
E000
E000
E000
E000
E000
E000
ENDCHAR
STARTCHAR 0156
ENCODING 342
SWIDTH 480 0
DWIDTH 12 0
BBX 11 20 1 -4
BITMAP
3C00
FF80
FF80
E3C0
E1C0
E1C0
E1C0
E3C0
FF80
FF00
E700
E380
E3C0
E1C0
E1E0
E0E0
0000
0600
0E00
1C00
ENDCHAR
STARTCHAR 0157
ENCODING 343
SWIDTH 480 0
DWIDTH 12 0
BBX 10 16 1 -4
BITMAP
1FC0
7FC0
7FC0
7000
7000
7000
7000
7000
7000
7000
7000
7000
0000
3000
7000
F000
ENDCHAR
STARTCHAR 0158
ENCODING 344
SWIDTH 480 0
DWIDTH 12 0
BBX 11 21 1 0
BITMAP
2000
3700
3E00
1C00
0000
3C00
FF80
FF80
E3C0
E1C0
E1C0
E1C0
E3C0
FF80
FF00
E700
E380
E3C0
E1C0
E1E0
E0E0
ENDCHAR
STARTCHAR 0159
ENCODING 345
SWIDTH 480 0
DWIDTH 12 0
BBX 9 17 2 0
BITMAP
3300
3F00
1E00
0C00
0000
3F80
FF80
FF80
E000
E000
E000
E000
E000
E000
E000
E000
E000
ENDCHAR
STARTCHAR 015A
ENCODING 346
SWIDTH 480 0
DWIDTH 12 0
BBX 10 21 1 0
BITMAP
0200
0600
1F00
1C00
0000
1F00
3FC0
7F80
F000
E000
F000
7800
7F00
1F80
07C0
01C0
01C0
01C0
63C0
FFC0
7F80
ENDCHAR
STARTCHAR 015B
ENCODING 347
SWIDTH 480 0
DWIDTH 12 0
BBX 10 17 1 0
BITMAP
0200
0F00
1E00
1800
0000
1F80
7F80
7F80
7000
7800
7F00
3F80
07C0
01C0
73C0
FFC0
7F00
ENDCHAR
STARTCHAR 015C
ENCODING 348
SWIDTH 480 0
DWIDTH 12 0
BBX 10 21 1 0
BITMAP
0400
0E00
1F00
3B80
0100
1F00
3FC0
7F80
F000
E000
F000
7800
7F00
1F80
07C0
01C0
01C0
01C0
63C0
FFC0
7F80
ENDCHAR
STARTCHAR 015D
ENCODING 349
SWIDTH 480 0
DWIDTH 12 0
BBX 10 17 1 0
BITMAP
0C00
1E00
3F00
3100
0000
1F80
7F80
7F80
7000
7800
7F00
3F80
07C0
01C0
73C0
FFC0
7F00
ENDCHAR
STARTCHAR 015E
ENCODING 350
SWIDTH 480 0
DWIDTH 12 0
BBX 10 20 1 -4
BITMAP
1F00
3FC0
7F80
F000
E000
F000
7800
7F00
1F80
07C0
01C0
01C0
01C0
63C0
FFC0
7F80
0C00
0E00
2E00
3C00
ENDCHAR
STARTCHAR 015F
ENCODING 351
SWIDTH 480 0
DWIDTH 12 0
BBX 10 16 1 -4
BITMAP
1F80
7F80
7F80
7000
7800
7F00
3F80
07C0
01C0
73C0
FFC0
7F00
0C00
0600
0600
3E00
ENDCHAR
STARTCHAR 0160
ENCODING 352
SWIDTH 480 0
DWIDTH 12 0
BBX 10 21 1 0
BITMAP
0100
3B80
1F00
0E00
0400
1F00
3FC0
7F80
F000
E000
F000
7800
7F00
1F80
07C0
01C0
01C0
01C0
63C0
FFC0
7F80
ENDCHAR
STARTCHAR 0161
ENCODING 353
SWIDTH 480 0
DWIDTH 12 0
BBX 10 17 1 0
BITMAP
3300
3F00
1E00
0C00
0000
1F80
7F80
7F80
7000
7800
7F00
3F80
07C0
01C0
73C0
FFC0
7F00
ENDCHAR
STARTCHAR 0162
ENCODING 354
SWIDTH 480 0
DWIDTH 12 0
BBX 11 19 1 -4
BITMAP
FFE0
FFE0
0E00
0E00
0E00
0E00
0E00
0E00
0E00
0E00
0E00
0E00
0E00
0E00
0E00
0C00
0600
0600
3E00
ENDCHAR
STARTCHAR 0163
ENCODING 355
SWIDTH 480 0
DWIDTH 12 0
BBX 11 19 1 -4
BITMAP
1C00
1C00
1C00
FFE0
FFE0
FFE0
1C00
1C00
1C00
1C00
1C00
1C00
1E40
1FE0
0FE0
0300
0380
0B80
0F80
ENDCHAR
STARTCHAR 0164
ENCODING 356
SWIDTH 480 0
DWIDTH 12 0
BBX 11 21 1 0
BITMAP
0100
3B80
1F00
0E00
0400
0000
FFE0
FFE0
0E00
0E00
0E00
0E00
0E00
0E00
0E00
0E00
0E00
0E00
0E00
0E00
0E00
ENDCHAR
STARTCHAR 0165
ENCODING 357
SWIDTH 480 0
DWIDTH 12 0
BBX 11 17 1 0
BITMAP
01C0
01C0
1D80
1D80
1C00
FFE0
FFE0
FFE0
1C00
1C00
1C00
1C00
1C00
1C00
1E40
1FE0
0FE0
ENDCHAR
STARTCHAR 0166
ENCODING 358
SWIDTH 480 0
DWIDTH 12 0
BBX 11 15 1 0
BITMAP
FFE0
FFE0
0E00
0E00
0E00
0E00
0E00
7FC0
7FC0
0E00
0E00
0E00
0E00
0E00
0E00
ENDCHAR
STARTCHAR 0167
ENCODING 359
SWIDTH 480 0
DWIDTH 12 0
BBX 11 15 1 0
BITMAP
1C00
1C00
1C00
FFE0
FFE0
FFE0
1C00
1C00
FFE0
FFE0
1C00
1C00
1E40
1FE0
0FE0
ENDCHAR
STARTCHAR 0168
ENCODING 360
SWIDTH 480 0
DWIDTH 12 0
BBX 11 20 1 0
BITMAP
3D80
3F80
2700
0000
0000
E1E0
E1E0
E1E0
E1E0
E1E0
E1E0
E1E0
E1E0
E1E0
E1E0
E1C0
E1C0
F3C0
7FC0
3F80
ENDCHAR
STARTCHAR 0169
ENCODING 361
SWIDTH 480 0
DWIDTH 12 0
BBX 10 17 1 0
BITMAP
1800
3F80
7F80
0000
0000
F1C0
F1C0
F1C0
F1C0
F1C0
F1C0
F1C0
F1C0
71C0
7BC0
7FC0
3FC0
ENDCHAR
STARTCHAR 016A
ENCODING 362
SWIDTH 480 0
DWIDTH 12 0
BBX 11 20 1 0
BITMAP
3F80
3F80
3F80
0000
0000
E1E0
E1E0
E1E0
E1E0
E1E0
E1E0
E1E0
E1E0
E1E0
E1E0
E1C0
E1C0
F3C0
7FC0
3F80
ENDCHAR
STARTCHAR 016B
ENCODING 363
SWIDTH 480 0
DWIDTH 12 0
BBX 10 16 1 0
BITMAP
3F80
3F80
0000
0000
F1C0
F1C0
F1C0
F1C0
F1C0
F1C0
F1C0
F1C0
71C0
7BC0
7FC0
3FC0
ENDCHAR
STARTCHAR 016C
ENCODING 364
SWIDTH 480 0
DWIDTH 12 0
BBX 11 21 1 0
BITMAP
3180
3380
3F00
1F00
0000
0000
E1E0
E1E0
E1E0
E1E0
E1E0
E1E0
E1E0
E1E0
E1E0
E1E0
E1C0
E1C0
F3C0
7FC0
3F80
ENDCHAR
STARTCHAR 016D
ENCODING 365
SWIDTH 480 0
DWIDTH 12 0
BBX 10 17 1 0
BITMAP
3180
3F80
3F00
0C00
0000
F1C0
F1C0
F1C0
F1C0
F1C0
F1C0
F1C0
F1C0
71C0
7BC0
7FC0
3FC0
ENDCHAR
STARTCHAR 016E
ENCODING 366
SWIDTH 480 0
DWIDTH 12 0
BBX 11 21 1 0
BITMAP
0C00
1F00
1300
1300
1E00
0000
E1E0
E1E0
E1E0
E1E0
E1E0
E1E0
E1E0
E1E0
E1E0
E1E0
E1C0
E1C0
F3C0
7FC0
3F80
ENDCHAR
STARTCHAR 016F
ENCODING 367
SWIDTH 480 0
DWIDTH 12 0
BBX 10 18 1 0
BITMAP
0C00
1F00
1300
1300
1E00
0000
F1C0
F1C0
F1C0
F1C0
F1C0
F1C0
F1C0
F1C0
71C0
7BC0
7FC0
3FC0
ENDCHAR
STARTCHAR 0170
ENCODING 368
SWIDTH 480 0
DWIDTH 12 0
BBX 11 21 1 0
BITMAP
0800
1CC0
1DC0
3380
2100
0000
E1E0
E1E0
E1E0
E1E0
E1E0
E1E0
E1E0
E1E0
E1E0
E1E0
E1C0
E1C0
F3C0
7FC0
3F80
ENDCHAR
STARTCHAR 0171
ENCODING 369
SWIDTH 480 0
DWIDTH 12 0
BBX 11 17 1 0
BITMAP
08C0
1DE0
3B80
2300
0000
F1C0
F1C0
F1C0
F1C0
F1C0
F1C0
F1C0
F1C0
71C0
7BC0
7FC0
3FC0
ENDCHAR
STARTCHAR 0172
ENCODING 370
SWIDTH 480 0
DWIDTH 12 0
BBX 11 19 1 -4
BITMAP
E1E0
E1E0
E1E0
E1E0
E1E0
E1E0
E1E0
E1E0
E1E0
E1E0
E1C0
E1C0
F3C0
7FC0
3F80
0700
0E00
0E00
0F00
ENDCHAR
STARTCHAR 0173
ENCODING 371
SWIDTH 480 0
DWIDTH 12 0
BBX 10 16 1 -4
BITMAP
F1C0
F1C0
F1C0
F1C0
F1C0
F1C0
F1C0
F1C0
71C0
7BC0
7FC0
3FC0
0380
0300
0740
03C0
ENDCHAR
STARTCHAR 0174
ENCODING 372
SWIDTH 480 0
DWIDTH 12 0
BBX 11 21 1 0
BITMAP
0400
0E00
1F00
3B80
0100
0000
C0E0
C0E0
C0E0
C0E0
C0E0
CEE0
CEE0
DEE0
DEE0
DBC0
DBC0
F3C0
F1C0
F1C0
E1C0
ENDCHAR
STARTCHAR 0175
ENCODING 373
SWIDTH 480 0
DWIDTH 12 0
BBX 12 17 0 0
BITMAP
0600
0F00
1F80
1880
0000
E030
E030
E070
6770
6770
6F70
6F60
6FE0
6DE0
79E0
39E0
38E0
ENDCHAR
STARTCHAR 0176
ENCODING 374
SWIDTH 480 0
DWIDTH 12 0
BBX 11 21 1 0
BITMAP
0400
0E00
1F00
3B80
0100
0000
E0E0
E1C0
F1C0
71C0
7380
3B80
3F00
1F00
1E00
0E00
0E00
0E00
0E00
0E00
0E00
ENDCHAR
STARTCHAR 0177
ENCODING 375
SWIDTH 480 0
DWIDTH 12 0
BBX 11 21 1 -4
BITMAP
0C00
1E00
3F00
3100
0000
E0E0
E1C0
71C0
71C0
71C0
3B80
3B80
3B80
1F00
1F00
0F00
0E00
0E00
BC00
FC00
F800
ENDCHAR
STARTCHAR 0178
ENCODING 376
SWIDTH 480 0
DWIDTH 12 0
BBX 11 20 1 0
BITMAP
7380
7BC0
7380
0000
0000
E0E0
E1C0
F1C0
71C0
7380
3B80
3F00
1F00
1E00
0E00
0E00
0E00
0E00
0E00
0E00
ENDCHAR
STARTCHAR 0179
ENCODING 377
SWIDTH 480 0
DWIDTH 12 0
BBX 10 21 1 0
BITMAP
0200
0700
0F00
1C00
0000
0000
FFC0
FFC0
03C0
0380
0700
0F00
0E00
1E00
1C00
3800
3800
7000
7FC0
FFC0
FFC0
ENDCHAR
STARTCHAR 017A
ENCODING 378
SWIDTH 480 0
DWIDTH 12 0
BBX 9 17 2 0
BITMAP
0400
1E00
3C00
3000
0000
FF80
FF80
FF80
0F00
1E00
1C00
3800
7800
7000
FF80
FF80
FF80
ENDCHAR
STARTCHAR 017B
ENCODING 379
SWIDTH 480 0
DWIDTH 12 0
BBX 10 20 1 0
BITMAP
0E00
1E00
0E00
0000
0000
FFC0
FFC0
03C0
0380
0700
0F00
0E00
1E00
1C00
3800
3800
7000
7FC0
FFC0
FFC0
ENDCHAR
STARTCHAR 017C
ENCODING 380
SWIDTH 480 0
DWIDTH 12 0
BBX 9 17 2 0
BITMAP
1800
3C00
1C00
0800
0000
FF80
FF80
FF80
0F00
1E00
1C00
3800
7800
7000
FF80
FF80
FF80
ENDCHAR
STARTCHAR 017D
ENCODING 381
SWIDTH 480 0
DWIDTH 12 0
BBX 10 21 1 0
BITMAP
0100
3B80
1F00
0E00
0400
0000
FFC0
FFC0
03C0
0380
0700
0F00
0E00
1E00
1C00
3800
3800
7000
7FC0
FFC0
FFC0
ENDCHAR
STARTCHAR 017E
ENCODING 382
SWIDTH 480 0
DWIDTH 12 0
BBX 9 17 2 0
BITMAP
6600
7E00
3C00
1800
0000
FF80
FF80
FF80
0F00
1E00
1C00
3800
7800
7000
FF80
FF80
FF80
ENDCHAR
STARTCHAR 017F
ENCODING 383
SWIDTH 480 0
DWIDTH 12 0
BBX 9 17 3 0
BITMAP
3F80
7F80
7980
7000
F000
F000
F000
F000
F000
F000
F000
F000
F000
F000
F000
F000
F000
ENDCHAR
STARTCHAR 0180
ENCODING 384
SWIDTH 480 0
DWIDTH 12 0
BBX 12 17 0 0
BITMAP
3800
3800
FF00
FF00
3800
3F80
3FC0
3FE0
38E0
38F0
3870
3870
38F0
38E0
39E0
3FC0
3F80
ENDCHAR
STARTCHAR 0181
ENCODING 385
SWIDTH 480 0
DWIDTH 12 0
BBX 12 16 0 0
BITMAP
0F00
7FC0
FFE0
CC60
CC60
CC60
0CE0
0FC0
0FE0
0C70
0C70
0C30
0C70
0EF0
0FE0
0FC0
ENDCHAR
STARTCHAR 0182
ENCODING 386
SWIDTH 480 0
DWIDTH 12 0
BBX 11 15 1 0
BITMAP
FF80
FF80
E000
E000
E000
FF00
FF80
FFC0
E1E0
E0E0
E0E0
E1E0
F7C0
FFC0
FF00
ENDCHAR
STARTCHAR 0183
ENCODING 387
SWIDTH 480 0
DWIDTH 12 0
BBX 10 17 2 0
BITMAP
FF00
FF00
E000
E000
E000
FE00
FF00
FF80
E380
E3C0
E1C0
E1C0
E1C0
E380
E780
FF00
FE00
ENDCHAR
STARTCHAR 0184
ENCODING 388
SWIDTH 480 0
DWIDTH 12 0
BBX 12 17 0 0
BITMAP
3800
F800
F800
7800
3800
3F80
3FC0
3FE0
38E0
38F0
3870
3870
38F0
38E0
39E0
3FC0
3F80
ENDCHAR
STARTCHAR 0185
ENCODING 389
SWIDTH 480 0
DWIDTH 12 0
BBX 12 16 0 0
BITMAP
0800
3800
F800
7800
3800
3800
3F00
3FC0
3FE0
38F0
3870
3870
38F0
3FE0
3FE0
3F80
ENDCHAR
STARTCHAR 0186
ENCODING 390
SWIDTH 480 0
DWIDTH 12 0
BBX 11 16 1 0
BITMAP
3C00
FF00
FF80
83C0
01C0
01C0
01E0
00E0
00E0
00E0
01E0
01C0
03C0
EF80
FF80
FF00
ENDCHAR
STARTCHAR 0187
ENCODING 391
SWIDTH 480 0
DWIDTH 12 0
BBX 12 18 1 0
BITMAP
0020
00F0
0FF0
3FC0
7F80
7000
F000
E000
E000
E000
E000
E000
E000
E000
F000
7980
3FC0
1F80
ENDCHAR
STARTCHAR 0188
ENCODING 392
SWIDTH 480 0
DWIDTH 12 0
BBX 12 14 1 0
BITMAP
0070
00F0
1FE0
3F80
7F80
F000
E000
E000
E000
E000
F000
7C80
7F80
1F80
ENDCHAR
STARTCHAR 0189
ENCODING 393
SWIDTH 480 0
DWIDTH 12 0
BBX 12 16 0 0
BITMAP
1C00
3F80
3FC0
39E0
38E0
38F0
3870
FE70
FE70
3870
38F0
38E0
38E0
3FE0
3FC0
3F00
ENDCHAR
STARTCHAR 018A
ENCODING 394
SWIDTH 480 0
DWIDTH 12 0
BBX 12 16 0 0
BITMAP
0E00
7FC0
FFE0
CC60
CC70
CC70
0C70
0C70
0C70
0C70
0C70
0C70
0C60
0FE0
0FC0
0F80
ENDCHAR
STARTCHAR 018B
ENCODING 395
SWIDTH 480 0
DWIDTH 12 0
BBX 10 15 1 0
BITMAP
7FC0
7FC0
01C0
01C0
01C0
1FC0
7FC0
FFC0
E1C0
E1C0
E1C0
E1C0
FBC0
7FC0
3FC0
ENDCHAR
STARTCHAR 018C
ENCODING 396
SWIDTH 480 0
DWIDTH 12 0
BBX 10 17 1 0
BITMAP
7FC0
7FC0
01C0
01C0
01C0
3FC0
7FC0
FFC0
E1C0
E1C0
E1C0
E1C0
E1C0
E1C0
F9C0
7FC0
3FC0
ENDCHAR
STARTCHAR 018D
ENCODING 397
SWIDTH 480 0
DWIDTH 12 0
BBX 11 16 1 -4
BITMAP
1F00
7F80
FFC0
E1E0
E0E0
E0E0
E1E0
F1C0
7BC0
3F80
1F00
0780
0380
6380
7F80
7F00
ENDCHAR
STARTCHAR 018E
ENCODING 398
SWIDTH 480 0
DWIDTH 12 0
BBX 10 15 2 0
BITMAP
FFC0
FFC0
03C0
03C0
03C0
03C0
7FC0
7FC0
03C0
03C0
03C0
03C0
FFC0
FFC0
FFC0
ENDCHAR
STARTCHAR 018F
ENCODING 399
SWIDTH 480 0
DWIDTH 12 0
BBX 11 16 1 0
BITMAP
3C00
FF00
7F80
03C0
01C0
00C0
00E0
FFE0
FFE0
FFE0
C0E0
E0C0
E1C0
73C0
7F80
3F00
ENDCHAR
STARTCHAR 0190
ENCODING 400
SWIDTH 480 0
DWIDTH 12 0
BBX 11 16 1 0
BITMAP
1F00
3FE0
7FC0
7040
F000
7000
7C00
3F80
7F80
F000
E000
E000
E000
F9E0
7FE0
3FC0
ENDCHAR
STARTCHAR 0191
ENCODING 401
SWIDTH 480 0
DWIDTH 12 0
BBX 12 19 -1 -4
BITMAP
1FF0
1FF0
1C00
1C00
1C00
1C00
1FE0
1FE0
1C00
1C00
1C00
1C00
1C00
1C00
1C00
1C00
3800
F800
F000
ENDCHAR
STARTCHAR 0192
ENCODING 402
SWIDTH 480 0
DWIDTH 12 0
BBX 12 21 0 -4
BITMAP
07F0
0FF0
0F30
0E00
1E00
7FE0
7FE0
7FE0
1E00
1E00
1E00
1E00
1E00
1E00
1E00
1E00
1E00
1E00
3C00
FC00
F800
ENDCHAR
STARTCHAR 0193
ENCODING 403
SWIDTH 480 0
DWIDTH 12 0
BBX 12 18 1 0
BITMAP
0020
00F0
0FF0
3FC0
7F80
7000
F000
E000
E000
E000
E1E0
E1E0
E1E0
E1E0
F1E0
7DE0
3FE0
1FE0
ENDCHAR
STARTCHAR 0194
ENCODING 404
SWIDTH 480 0
DWIDTH 12 0
BBX 11 19 1 -4
BITMAP
E0E0
E0C0
E1C0
71C0
7380
3380
3B00
1F00
1E00
0E00
1E00
1F00
3F00
3B80
7380
7380
7B80
3F80
1F00
ENDCHAR
STARTCHAR 0195
ENCODING 405
SWIDTH 480 0
DWIDTH 12 0
BBX 11 17 1 0
BITMAP
C000
C000
C000
C000
C000
F860
FC60
CC60
CC60
CC60
CE60
CE60
CE60
CE60
CEE0
C7E0
C7C0
ENDCHAR
STARTCHAR 0196
ENCODING 406
SWIDTH 480 0
DWIDTH 12 0
BBX 11 15 1 0
BITMAP
FF80
FF80
1C00
1C00
1C00
1C00
1C00
1C00
1C00
1C00
1C00
1C00
1E40
1FC0
0FE0
ENDCHAR
STARTCHAR 0197
ENCODING 407
SWIDTH 480 0
DWIDTH 12 0
BBX 10 15 1 0
BITMAP
FFC0
FFC0
0E00
0E00
0E00
0E00
7F80
7F80
0E00
0E00
0E00
0E00
FFC0
FFC0
FFC0
ENDCHAR
STARTCHAR 0198
ENCODING 408
SWIDTH 480 0
DWIDTH 12 0
BBX 12 16 1 0
BITMAP
00E0
E1F0
E3E0
E3A0
E700
EE00
EE00
FC00
FE00
EF00
E700
E780
E3C0
E1C0
E1E0
E0E0
ENDCHAR
STARTCHAR 0199
ENCODING 409
SWIDTH 480 0
DWIDTH 12 0
BBX 10 17 2 0
BITMAP
7800
F800
E000
E000
E000
E3C0
E780
E700
EE00
FC00
F800
FC00
EE00
EF00
E780
E380
E3C0
ENDCHAR
STARTCHAR 019A
ENCODING 410
SWIDTH 480 0
DWIDTH 12 0
BBX 11 17 1 0
BITMAP
FE00
FE00
0E00
0E00
0E00
0E00
0E00
FFC0
FFC0
0E00
0E00
0E00
0E00
0E00
0F60
0FE0
07E0
ENDCHAR
STARTCHAR 019B
ENCODING 411
SWIDTH 480 0
DWIDTH 12 0
BBX 11 17 1 0
BITMAP
F800
F980
3F80
7E00
7E00
4E00
0F00
1F00
1F00
3F80
3B80
7B80
73C0
71C0
F1C0
E1E0
E1E0
ENDCHAR
STARTCHAR 019C
ENCODING 412
SWIDTH 480 0
DWIDTH 12 0
BBX 12 15 0 0
BITMAP
E030
E030
E030
E030
E030
E730
E730
E730
E730
E730
E730
6730
7730
7FF0
3FF0
ENDCHAR
STARTCHAR 019D
ENCODING 413
SWIDTH 480 0
DWIDTH 12 0
BBX 13 19 -2 -4
BITMAP
1C18
1E18
1E18
1F18
1F18
1F98
1D98
1DD8
1CD8
1CF8
1C78
1C78
1C38
1C38
1C18
1C00
3C00
7800
F800
ENDCHAR
STARTCHAR 019E
ENCODING 414
SWIDTH 480 0
DWIDTH 12 0
BBX 9 16 2 -4
BITMAP
FE00
FF00
FF80
E380
E380
E380
E380
E380
E380
E380
E380
E380
0380
0380
0380
0380
ENDCHAR
STARTCHAR 019F
ENCODING 415
SWIDTH 480 0
DWIDTH 12 0
BBX 11 16 1 0
BITMAP
1E00
3F80
7FC0
F1C0
E1C0
E0E0
E0E0
FFE0
FFE0
E0E0
E0E0
E1E0
E1C0
7BC0
7F80
3F00
ENDCHAR
STARTCHAR 01A0
ENCODING 416
SWIDTH 480 0
DWIDTH 12 0
BBX 11 18 1 0
BITMAP
0060
0060
1E60
3FE0
7FC0
F1C0
E1C0
E0E0
E0E0
E0E0
E0E0
E0E0
E0E0
E1E0
E1C0
7BC0
7F80
3F00
ENDCHAR
STARTCHAR 01A1
ENCODING 417
SWIDTH 480 0
DWIDTH 12 0
BBX 11 14 1 0
BITMAP
0060
0060
1FE0
7FE0
7FC0
F1C0
E1E0
E0E0
E0E0
E1E0
E1C0
FBC0
7F80
3F00
ENDCHAR
STARTCHAR 01A2
ENCODING 418
SWIDTH 480 0
DWIDTH 12 0
BBX 11 16 1 0
BITMAP
3B80
7FC0
FFE0
CEE0
CEE0
CEE0
CEE0
CEE0
CEE0
CEE0
CEE0
CEE0
CEE0
ECE0
7CE0
78E0
ENDCHAR
STARTCHAR 01A3
ENCODING 419
SWIDTH 480 0
DWIDTH 12 0
BBX 11 16 1 -4
BITMAP
7B80
7FC0
FFE0
CE60
C660
C660
C660
C660
C660
EE60
FC60
7C60
0060
0060
0060
0060
ENDCHAR
STARTCHAR 01A4
ENCODING 420
SWIDTH 480 0
DWIDTH 12 0
BBX 12 16 0 0
BITMAP
0F00
7FC0
FFE0
CC70
CC70
CC70
0C70
0C70
0FE0
0FE0
0F80
0C00
0C00
0C00
0C00
0C00
ENDCHAR
STARTCHAR 01A5
ENCODING 421
SWIDTH 480 0
DWIDTH 12 0
BBX 10 21 2 -4
BITMAP
7800
F800
E000
E000
E000
FE00
FF00
FF80
E380
E3C0
E1C0
E1C0
E3C0
E380
F780
FF80
FF00
E000
E000
E000
E000
ENDCHAR
STARTCHAR 01A6
ENCODING 422
SWIDTH 480 0
DWIDTH 12 0
BBX 12 19 1 -2
BITMAP
E000
FC00
FF80
FF80
E3C0
E1C0
E1C0
E1C0
E3C0
FF80
FF00
E700
E380
E380
E1C0
E1C0
E0E0
00E0
00F0
ENDCHAR
STARTCHAR 01A7
ENCODING 423
SWIDTH 480 0
DWIDTH 12 0
BBX 10 16 1 0
BITMAP
3E00
7F80
7FC0
01C0
01C0
01C0
07C0
1F80
7F00
7C00
F000
E000
E000
F1C0
7FC0
3FC0
ENDCHAR
STARTCHAR 01A8
ENCODING 424
SWIDTH 480 0
DWIDTH 12 0
BBX 10 12 1 0
BITMAP
7F00
7F80
7FC0
01C0
03C0
1F80
7F00
7800
E000
F1C0
7FC0
3FC0
ENDCHAR
STARTCHAR 01A9
ENCODING 425
SWIDTH 480 0
DWIDTH 12 0
BBX 11 15 1 0
BITMAP
FFE0
FFE0
7000
3800
1C00
1E00
0F00
0F00
0E00
1C00
3800
7000
FFE0
FFE0
FFE0
ENDCHAR
STARTCHAR 01AA
ENCODING 426
SWIDTH 480 0
DWIDTH 12 0
BBX 11 21 0 -4
BITMAP
7E00
7F00
E700
E700
F700
7F00
3F00
0700
0700
0700
0700
0700
0700
0700
0700
0700
0700
0780
03C0
03E0
01E0
ENDCHAR
STARTCHAR 01AB
ENCODING 427
SWIDTH 480 0
DWIDTH 12 0
BBX 11 19 1 -4
BITMAP
3C00
3C00
3C00
FFC0
FFC0
FFC0
3C00
3C00
3C00
3C00
3C00
1C00
1E60
1FE0
0FE0
00E0
00E0
07E0
07C0
ENDCHAR
STARTCHAR 01AC
ENCODING 428
SWIDTH 480 0
DWIDTH 12 0
BBX 12 15 0 0
BITMAP
7FF0
FFF0
E700
E700
E700
0700
0700
0700
0700
0700
0700
0700
0700
0700
0700
ENDCHAR
STARTCHAR 01AD
ENCODING 429
SWIDTH 480 0
DWIDTH 12 0
BBX 11 17 1 0
BITMAP
0FE0
1FE0
1FC0
1C00
3C00
FFC0
FFC0
FFC0
3C00
3C00
3C00
3C00
3C00
1C00
1E60
1FE0
0FE0
ENDCHAR
STARTCHAR 01AE
ENCODING 430
SWIDTH 480 0
DWIDTH 12 0
BBX 11 19 1 -4
BITMAP
FFE0
FFE0
0E00
0E00
0E00
0E00
0E00
0E00
0E00
0E00
0E00
0E00
0E00
0E00
0E00
0E00
0F80
0F80
07C0
ENDCHAR
STARTCHAR 01AF
ENCODING 431
SWIDTH 480 0
DWIDTH 12 0
BBX 12 18 1 0
BITMAP
0070
0070
00F0
E3E0
E380
E380
E380
E380
E380
E380
E380
E380
E380
E380
E380
F380
7F00
3E00
ENDCHAR
STARTCHAR 01B0
ENCODING 432
SWIDTH 480 0
DWIDTH 12 0
BBX 11 14 1 0
BITMAP
0060
00E0
E3E0
E3C0
E380
E380
E380
E380
E380
E380
E380
F380
7F80
3F80
ENDCHAR
STARTCHAR 01B1
ENCODING 433
SWIDTH 480 0
DWIDTH 12 0
BBX 12 16 0 0
BITMAP
FDF0
FDF0
FDF0
39C0
70E0
7060
7070
F070
E070
E070
F070
7070
70F0
7DE0
3FE0
1F80
ENDCHAR
STARTCHAR 01B2
ENCODING 434
SWIDTH 480 0
DWIDTH 12 0
BBX 11 16 1 0
BITMAP
0E00
E780
E7C0
E1C0
E1E0
E0E0
E0E0
E0E0
E0E0
E0E0
E0E0
E1E0
E1C0
F3C0
7F80
3F00
ENDCHAR
STARTCHAR 01B3
ENCODING 435
SWIDTH 480 0
DWIDTH 12 0
BBX 12 16 1 0
BITMAP
00E0
E1F0
E1E0
E380
7380
7300
3700
3E00
3E00
1E00
1C00
1C00
1C00
1C00
1C00
1C00
ENDCHAR
STARTCHAR 01B4
ENCODING 436
SWIDTH 480 0
DWIDTH 12 0
BBX 12 16 1 -4
BITMAP
E0F0
E1E0
E3E0
7380
7380
7380
3B00
3F00
3F00
1F00
1E00
0E00
1C00
BC00
F800
F000
ENDCHAR
STARTCHAR 01B5
ENCODING 437
SWIDTH 480 0
DWIDTH 12 0
BBX 10 15 1 0
BITMAP
FFC0
FFC0
03C0
0380
0700
0F00
FFC0
FFC0
1C00
3800
3800
7000
FFC0
FFC0
FFC0
ENDCHAR
STARTCHAR 01B6
ENCODING 438
SWIDTH 480 0
DWIDTH 12 0
BBX 9 12 2 0
BITMAP
FF80
FF80
FF80
0F00
1E00
FF80
FF80
7800
7000
FF80
FF80
FF80
ENDCHAR
STARTCHAR 01B7
ENCODING 439
SWIDTH 480 0
DWIDTH 12 0
BBX 11 15 1 0
BITMAP
FFE0
FFE0
01C0
0380
0700
0E00
1F00
1FC0
03E0
00E0
00E0
00E0
E3E0
FFC0
FF80
ENDCHAR
STARTCHAR 01B8
ENCODING 440
SWIDTH 480 0
DWIDTH 12 0
BBX 11 15 1 0
BITMAP
FFE0
FFE0
7000
3800
1C00
0E00
1F00
7F00
F000
E000
E000
E000
F9E0
7FE0
3FE0
ENDCHAR
STARTCHAR 01B9
ENCODING 441
SWIDTH 480 0
DWIDTH 12 0
BBX 11 16 1 -4
BITMAP
7FC0
7FC0
7FC0
3800
3C00
1E00
0F00
3F00
7F00
7000
F000
E000
F000
7FC0
7FE0
1FC0
ENDCHAR
STARTCHAR 01BA
ENCODING 442
SWIDTH 480 0
DWIDTH 12 0
BBX 10 16 1 -4
BITMAP
FFC0
FFC0
FFC0
0780
0F00
1E00
1F80
07C0
01C0
01C0
03C0
3F80
7E00
F000
E000
E000
ENDCHAR
STARTCHAR 01BB
ENCODING 443
SWIDTH 480 0
DWIDTH 12 0
BBX 10 16 1 0
BITMAP
3E00
FF80
FFC0
43C0
01C0
01C0
0380
0780
7FC0
7FC0
3C00
7800
7000
FFC0
FFC0
FFC0
ENDCHAR
STARTCHAR 01BC
ENCODING 444
SWIDTH 480 0
DWIDTH 12 0
BBX 11 15 1 0
BITMAP
FFC0
FFC0
3000
3000
3000
7C00
7F80
7FC0
01C0
01C0
00E0
01C0
63C0
7FC0
FF00
ENDCHAR
STARTCHAR 01BD
ENCODING 445
SWIDTH 480 0
DWIDTH 12 0
BBX 10 12 1 0
BITMAP
FFC0
FFC0
FFC0
7000
7000
7F80
7FC0
01C0
01C0
63C0
7FC0
FF80
ENDCHAR
STARTCHAR 01BE
ENCODING 446
SWIDTH 480 0
DWIDTH 12 0
BBX 11 15 1 0
BITMAP
3800
3800
3800
FFC0
FFC0
FFC0
3800
3C00
1F00
0FC0
03E0
00E0
71E0
7FC0
7F80
ENDCHAR
STARTCHAR 01BF
ENCODING 447
SWIDTH 480 0
DWIDTH 12 0
BBX 10 16 2 -4
BITMAP
7E00
FF00
FF80
E380
E3C0
E3C0
E3C0
E380
E780
EF00
FE00
FC00
F000
E000
E000
E000
ENDCHAR
STARTCHAR 01C0
ENCODING 448
SWIDTH 480 0
DWIDTH 12 0
BBX 3 21 5 -4
BITMAP
E0
E0
E0
E0
E0
E0
E0
E0
E0
E0
E0
E0
E0
E0
E0
E0
E0
E0
E0
E0
E0
ENDCHAR
STARTCHAR 01C1
ENCODING 449
SWIDTH 480 0
DWIDTH 12 0
BBX 8 21 2 -4
BITMAP
E7
E7
E7
E7
E7
E7
E7
E7
E7
E7
E7
E7
E7
E7
E7
E7
E7
E7
E7
E7
E7
ENDCHAR
STARTCHAR 01C2
ENCODING 450
SWIDTH 480 0
DWIDTH 12 0
BBX 11 21 1 -4
BITMAP
0E00
0E00
0E00
0E00
0E00
0E00
0E00
FFE0
FFE0
0E00
0E00
FFE0
FFE0
FFE0
0E00
0E00
0E00
0E00
0E00
0E00
0E00
ENDCHAR
STARTCHAR 01C3
ENCODING 451
SWIDTH 480 0
DWIDTH 12 0
BBX 4 15 4 0
BITMAP
F0
F0
F0
F0
F0
70
70
70
70
00
00
60
F0
F0
70
ENDCHAR
STARTCHAR 01C4
ENCODING 452
SWIDTH 480 0
DWIDTH 12 0
BBX 13 20 0 0
BITMAP
0198
00F0
0060
0000
6000
FCF0
FCF0
EE30
E630
E660
E660
E660
E660
E6C0
E6C0
E6C0
EEC0
ED80
FDF0
F9F0
ENDCHAR
STARTCHAR 01C5
ENCODING 453
SWIDTH 480 0
DWIDTH 12 0
BBX 13 16 0 1
BITMAP
61F8
FCF0
FC40
EE00
E6F0
E6F0
E6F0
E630
E660
E660
E660
E6C0
EEC0
ECC0
FDF0
F9F0
ENDCHAR
STARTCHAR 01C6
ENCODING 454
SWIDTH 480 0
DWIDTH 12 0
BBX 13 17 0 0
BITMAP
0E00
0FF8
0EF0
0E40
0E00
3EF0
7EF0
6EF0
EE30
EE60
CE60
CE60
CEC0
EEC0
6EC0
7FF0
3FF0
ENDCHAR
STARTCHAR 01C7
ENCODING 455
SWIDTH 480 0
DWIDTH 12 0
BBX 12 15 0 0
BITMAP
E030
E030
E030
E030
E030
E030
E030
E030
E030
E030
E030
E030
E070
FDF0
FDE0
ENDCHAR
STARTCHAR 01C8
ENCODING 456
SWIDTH 480 0
DWIDTH 12 0
BBX 11 21 1 -4
BITMAP
0040
00E0
C0E0
C0C0
C000
C0E0
C0E0
C0E0
C0E0
C0E0
C0E0
C0E0
C0E0
C0E0
C0E0
FEE0
FEE0
00E0
00C0
07C0
0780
ENDCHAR
STARTCHAR 01C9
ENCODING 457
SWIDTH 480 0
DWIDTH 12 0
BBX 11 21 1 -4
BITMAP
E000
E1E0
E1E0
E0C0
E000
E0C0
E0C0
E0C0
E0C0
E0C0
E0C0
E0C0
E0C0
E0C0
60C0
78C0
38C0
00C0
01C0
07C0
0F80
ENDCHAR
STARTCHAR 01CA
ENCODING 458
SWIDTH 480 0
DWIDTH 12 0
BBX 12 15 0 0
BITMAP
E630
E630
E630
E630
F630
F630
F630
F630
FE30
EE30
EE30
EE30
EE70
E6F0
E6E0
ENDCHAR
STARTCHAR 01CB
ENCODING 459
SWIDTH 480 0
DWIDTH 12 0
BBX 12 20 0 -3
BITMAP
00F0
E6F0
E660
E600
E660
F660
F660
F660
F660
FE60
EE60
EE60
EE60
EE60
E660
E660
0060
00E0
03E0
07C0
ENDCHAR
STARTCHAR 01CC
ENCODING 460
SWIDTH 480 0
DWIDTH 12 0
BBX 12 21 0 -4
BITMAP
0020
0070
0070
0060
0000
7C70
FE70
E770
E770
E770
E770
E770
E770
E770
E770
E770
E770
0070
0060
03E0
03C0
ENDCHAR
STARTCHAR 01CD
ENCODING 461
SWIDTH 480 0
DWIDTH 12 0
BBX 12 21 0 0
BITMAP
0080
1DC0
0F80
0700
0200
0000
0F00
0F80
0F80
1F80
1DC0
19C0
39C0
39C0
38E0
3FE0
7FE0
70E0
70F0
7070
F070
ENDCHAR
STARTCHAR 01CE
ENCODING 462
SWIDTH 480 0
DWIDTH 12 0
BBX 10 17 1 0
BITMAP
3300
3F00
1E00
0C00
0000
7F00
7F80
3FC0
01C0
01C0
3FC0
7FC0
E1C0
E1C0
F1C0
7FC0
3FC0
ENDCHAR
STARTCHAR 01CF
ENCODING 463
SWIDTH 480 0
DWIDTH 12 0
BBX 10 21 1 0
BITMAP
0100
3B80
1F00
0E00
0400
0000
FFC0
FFC0
0E00
0E00
0E00
0E00
0E00
0E00
0E00
0E00
0E00
0E00
FFC0
FFC0
FFC0
ENDCHAR
STARTCHAR 01D0
ENCODING 464
SWIDTH 480 0
DWIDTH 12 0
BBX 11 17 1 0
BITMAP
3300
3F00
1E00
0C00
0000
FC00
FC00
FC00
1C00
1C00
1C00
1C00
1C00
1C00
1E40
0FE0
07E0
ENDCHAR
STARTCHAR 01D1
ENCODING 465
SWIDTH 480 0
DWIDTH 12 0
BBX 11 21 1 0
BITMAP
0100
3B80
1F00
0E00
0400
1E00
3F80
7FC0
F1C0
E1C0
E0E0
E0E0
E0E0
E0E0
E0E0
E0E0
E1E0
E1C0
7BC0
7F80
3F00
ENDCHAR
STARTCHAR 01D2
ENCODING 466
SWIDTH 480 0
DWIDTH 12 0
BBX 11 17 1 0
BITMAP
3300
3F00
1E00
0C00
0000
1F00
7F80
7FC0
F1C0
E1E0
E0E0
E0E0
E1E0
E1C0
FBC0
7F80
3F00
ENDCHAR
STARTCHAR 01D3
ENCODING 467
SWIDTH 480 0
DWIDTH 12 0
BBX 11 21 1 0
BITMAP
0100
3B80
1F00
0E00
0400
0000
E1E0
E1E0
E1E0
E1E0
E1E0
E1E0
E1E0
E1E0
E1E0
E1E0
E1C0
E1C0
F3C0
7FC0
3F80
ENDCHAR
STARTCHAR 01D4
ENCODING 468
SWIDTH 480 0
DWIDTH 12 0
BBX 10 17 1 0
BITMAP
3300
3F00
1E00
0C00
0000
F1C0
F1C0
F1C0
F1C0
F1C0
F1C0
F1C0
F1C0
71C0
7BC0
7FC0
3FC0
ENDCHAR
STARTCHAR 01D5
ENCODING 469
SWIDTH 480 0
DWIDTH 12 0
BBX 11 21 1 0
BITMAP
3F00
3F00
0000
3380
3B80
0000
0000
E1E0
E1E0
E1E0
E1E0
E1E0
E1E0
E1E0
E1E0
E1E0
E1C0
E1C0
F3C0
7FC0
3F80
ENDCHAR
STARTCHAR 01D6
ENCODING 470
SWIDTH 480 0
DWIDTH 12 0
BBX 10 18 1 0
BITMAP
3F00
0000
3300
3B80
3300
0000
F1C0
F1C0
F1C0
F1C0
F1C0
F1C0
F1C0
F1C0
71C0
7BC0
7FC0
3FC0
ENDCHAR
STARTCHAR 01D7
ENCODING 471
SWIDTH 480 0
DWIDTH 12 0
BBX 11 20 1 1
BITMAP
0600
6D80
71C0
6180
0000
E1E0
E1E0
E1E0
E1E0
E1E0
E1E0
E1E0
E1E0
E1E0
E1E0
E1C0
E1C0
F3C0
7FC0
3F80
ENDCHAR
STARTCHAR 01D8
ENCODING 472
SWIDTH 480 0
DWIDTH 12 0
BBX 10 20 1 0
BITMAP
0200
0300
0700
0E00
6D80
71C0
6180
0000
F1C0
F1C0
F1C0
F1C0
F1C0
F1C0
F1C0
F1C0
71C0
7BC0
7FC0
3FC0
ENDCHAR
STARTCHAR 01D9
ENCODING 473
SWIDTH 480 0
DWIDTH 12 0
BBX 11 21 1 0
BITMAP
0200
1E00
6D80
71C0
6180
0000
E1E0
E1E0
E1E0
E1E0
E1E0
E1E0
E1E0
E1E0
E1E0
E1E0
E1C0
E1C0
F3C0
7FC0
3F80
ENDCHAR
STARTCHAR 01DA
ENCODING 474
SWIDTH 480 0
DWIDTH 12 0
BBX 10 19 1 0
BITMAP
3300
3F00
0E00
6580
71C0
6180
0000
F1C0
F1C0
F1C0
F1C0
F1C0
F1C0
F1C0
F1C0
71C0
7BC0
7FC0
3FC0
ENDCHAR
STARTCHAR 01DB
ENCODING 475
SWIDTH 480 0
DWIDTH 12 0
BBX 11 21 1 0
BITMAP
0800
0C00
6F80
71C0
6180
0000
E1E0
E1E0
E1E0
E1E0
E1E0
E1E0
E1E0
E1E0
E1E0
E1E0
E1C0
E1C0
F3C0
7FC0
3F80
ENDCHAR
STARTCHAR 01DC
ENCODING 476
SWIDTH 480 0
DWIDTH 12 0
BBX 10 19 1 1
BITMAP
1800
1800
0C00
6580
71C0
6180
0000
F1C0
F1C0
F1C0
F1C0
F1C0
F1C0
F1C0
F1C0
71C0
7BC0
7FC0
3FC0
ENDCHAR
STARTCHAR 01DD
ENCODING 477
SWIDTH 480 0
DWIDTH 12 0
BBX 11 12 1 0
BITMAP
7E00
7F80
7FC0
01C0
01C0
FFE0
FFE0
E1E0
E1C0
F3C0
7F80
3F00
ENDCHAR
STARTCHAR 01DE
ENCODING 478
SWIDTH 480 0
DWIDTH 12 0
BBX 12 21 0 0
BITMAP
1F80
1F80
0000
19C0
1DC0
0000
0000
0F00
0F80
0F80
1F80
1DC0
19C0
39C0
38E0
3FE0
7FE0
7FE0
70F0
7070
F070
ENDCHAR
STARTCHAR 01DF
ENCODING 479
SWIDTH 480 0
DWIDTH 12 0
BBX 10 18 1 0
BITMAP
3F00
0000
3300
3B80
3300
0000
7F00
7F80
3FC0
01C0
01C0
3FC0
7FC0
E1C0
E1C0
F1C0
7FC0
3FC0
ENDCHAR
STARTCHAR 01E0
ENCODING 480
SWIDTH 480 0
DWIDTH 12 0
BBX 12 21 0 0
BITMAP
1F80
1F80
0000
0700
0700
0000
0000
0F00
0F80
0F80
1F80
1DC0
19C0
39C0
38E0
3FE0
7FE0
7FE0
70F0
7070
F070
ENDCHAR
STARTCHAR 01E1
ENCODING 481
SWIDTH 480 0
DWIDTH 12 0
BBX 10 18 1 0
BITMAP
3F00
0000
0C00
0E00
0C00
0000
7F00
7F80
3FC0
01C0
01C0
3FC0
7FC0
E1C0
E1C0
F1C0
7FC0
3FC0
ENDCHAR
STARTCHAR 01E2
ENCODING 482
SWIDTH 480 0
DWIDTH 12 0
BBX 12 20 0 0
BITMAP
0FF0
0FF0
0FF0
0000
0000
07F0
0FF0
0F80
0F80
1F80
1B80
1BE0
3BE0
3B80
3F80
7F80
7380
73F0
73F0
F3F0
ENDCHAR
STARTCHAR 01E3
ENCODING 483
SWIDTH 480 0
DWIDTH 12 0
BBX 11 16 1 0
BITMAP
3F80
3F80
0000
0000
7BC0
7FC0
5FE0
0E60
0E60
7FE0
FFE0
CE00
CE00
C700
FFE0
7BE0
ENDCHAR
STARTCHAR 01E4
ENCODING 484
SWIDTH 480 0
DWIDTH 12 0
BBX 11 16 1 0
BITMAP
0F00
3FC0
7FC0
7000
F000
E000
E000
E1C0
E1C0
E7E0
E7E0
E1C0
F1C0
79C0
7FC0
1FC0
ENDCHAR
STARTCHAR 01E5
ENCODING 485
SWIDTH 480 0
DWIDTH 12 0
BBX 11 16 1 -4
BITMAP
1F80
7FC0
7FC0
E3C0
E7E0
E7E0
E7E0
E3C0
F3C0
7FC0
3FC0
0380
0380
E780
FF00
FE00
ENDCHAR
STARTCHAR 01E6
ENCODING 486
SWIDTH 480 0
DWIDTH 12 0
BBX 11 21 1 0
BITMAP
0080
1D80
0F80
0700
0000
0F80
3FE0
7FC0
7840
F000
E000
E000
E000
E1E0
E1E0
E1E0
E1E0
F1E0
7DE0
3FE0
1FE0
ENDCHAR
STARTCHAR 01E7
ENCODING 487
SWIDTH 480 0
DWIDTH 12 0
BBX 10 21 1 -4
BITMAP
1100
3F80
1E00
0400
0000
1FC0
7FC0
7FC0
F1C0
E1C0
E1C0
E1C0
E1C0
F3C0
7FC0
3FC0
01C0
01C0
E780
FF80
FF00
ENDCHAR
STARTCHAR 01E8
ENCODING 488
SWIDTH 480 0
DWIDTH 12 0
BBX 11 21 1 0
BITMAP
0100
3B80
1F00
0E00
0400
0000
E1C0
E3C0
E380
E700
EF00
EE00
FC00
FE00
EF00
E700
E780
E3C0
E1C0
E1E0
E0E0
ENDCHAR
STARTCHAR 01E9
ENCODING 489
SWIDTH 480 0
DWIDTH 12 0
BBX 11 21 1 0
BITMAP
4000
EE00
7C00
1000
0000
3000
7000
7000
7000
71E0
73C0
7380
7700
7E00
7C00
7E00
7700
7780
73C0
71C0
71E0
ENDCHAR
STARTCHAR 01EA
ENCODING 490
SWIDTH 480 0
DWIDTH 12 0
BBX 11 20 1 -4
BITMAP
1E00
3F80
7FC0
F1C0
E1C0
E0E0
E0E0
E0E0
E0E0
E0E0
E0E0
E1E0
E1C0
7BC0
7F80
3F00
0E00
1C00
1C00
1F00
ENDCHAR
STARTCHAR 01EB
ENCODING 491
SWIDTH 480 0
DWIDTH 12 0
BBX 11 16 1 -4
BITMAP
1F00
7F80
7FC0
F1C0
E1E0
E0E0
E0E0
E1E0
E1C0
FBC0
7F80
3F00
0E00
0C00
1C00
0F00
ENDCHAR
STARTCHAR 01EC
ENCODING 492
SWIDTH 480 0
DWIDTH 12 0
BBX 11 24 1 -4
BITMAP
3F80
3F80
3F80
0000
1E00
3F80
7FC0
F1C0
E1C0
E0E0
E0E0
E0E0
E0E0
E0E0
E0E0
E1E0
E1C0
7BC0
7F80
3F00
0E00
1C00
1C00
1F00
ENDCHAR
STARTCHAR 01ED
ENCODING 493
SWIDTH 480 0
DWIDTH 12 0
BBX 11 20 1 -4
BITMAP
3F80
3F80
0000
0000
1F00
7F80
7FC0
F1C0
E1E0
E0E0
E0E0
E1E0
E1C0
FBC0
7F80
3F00
0E00
0C00
1C00
0F00
ENDCHAR
STARTCHAR 01EE
ENCODING 494
SWIDTH 480 0
DWIDTH 12 0
BBX 11 21 1 0
BITMAP
0100
3B80
1F00
0E00
0400
0000
FFE0
FFE0
01C0
0380
0700
0E00
1F00
1FC0
03E0
00E0
00E0
00E0
E3E0
FFC0
FF80
ENDCHAR
STARTCHAR 01EF
ENCODING 495
SWIDTH 480 0
DWIDTH 12 0
BBX 10 21 1 -4
BITMAP
3300
3F00
1E00
0C00
0000
FFC0
FFC0
FFC0
0380
0700
0E00
1C00
1F00
1F80
03C0
01C0
01C0
01C0
FFC0
FF80
FF00
ENDCHAR
STARTCHAR 01F0
ENCODING 496
SWIDTH 480 0
DWIDTH 12 0
BBX 9 21 1 -4
BITMAP
3300
3F00
1E00
0C00
0000
7F80
7F80
7F80
0380
0380
0380
0380
0380
0380
0380
0380
0380
0380
7F80
FF00
7E00
ENDCHAR
STARTCHAR 01F1
ENCODING 497
SWIDTH 480 0
DWIDTH 12 0
BBX 12 16 0 0
BITMAP
6000
FCF0
FCF0
EE30
E630
E660
E660
E660
E660
E6C0
E6C0
E6C0
EEC0
ED80
FDF0
F9F0
ENDCHAR
STARTCHAR 01F2
ENCODING 498
SWIDTH 480 0
DWIDTH 12 0
BBX 12 16 0 0
BITMAP
6000
FC00
FC00
EE00
E6F0
E6F0
E6F0
E630
E660
E660
E660
E6C0
EEC0
ECC0
FDF0
F9F0
ENDCHAR
STARTCHAR 01F3
ENCODING 499
SWIDTH 480 0
DWIDTH 12 0
BBX 12 17 0 0
BITMAP
0E00
0E00
0E00
0E00
0E00
3EF0
7EF0
6EF0
EE30
EE60
CE60
CE60
CEC0
EEC0
6EC0
7FF0
3FF0
ENDCHAR
STARTCHAR 01F4
ENCODING 500
SWIDTH 480 0
DWIDTH 12 0
BBX 11 20 1 1
BITMAP
0700
0F00
1E00
0800
0F80
3FE0
7FC0
7840
F000
E000
E000
E000
E1E0
E1E0
E1E0
E1E0
F1E0
7DE0
3FE0
1FE0
ENDCHAR
STARTCHAR 01F5
ENCODING 501
SWIDTH 480 0
DWIDTH 12 0
BBX 10 21 1 -4
BITMAP
0200
0F00
1E00
1800
0000
1FC0
7FC0
7FC0
F1C0
E1C0
E1C0
E1C0
E1C0
F3C0
7FC0
3FC0
01C0
01C0
E780
FF80
FF00
ENDCHAR
STARTCHAR 01F6
ENCODING 502
SWIDTH 480 0
DWIDTH 12 0
BBX 11 15 1 0
BITMAP
CE00
CE00
CE00
CE60
CE60
CE60
FE60
FE60
CE60
CE60
CE60
CEE0
CEE0
C7C0
C7C0
ENDCHAR
STARTCHAR 01F7
ENCODING 503
SWIDTH 480 0
DWIDTH 12 0
BBX 11 20 1 -4
BITMAP
1C00
FF80
FFC0
E1C0
E1E0
E0E0
E0E0
E0E0
E1E0
E1C0
E1C0
E380
EF80
FF00
FC00
F000
E000
E000
E000
E000
ENDCHAR
STARTCHAR 01F8
ENCODING 504
SWIDTH 480 0
DWIDTH 12 0
BBX 10 20 1 1
BITMAP
1C00
3E00
0F00
0200
0000
E0C0
F0C0
F0C0
F8C0
F8C0
FCC0
ECC0
EEC0
E6C0
E7C0
E3C0
E3C0
E1C0
E1C0
E0C0
ENDCHAR
STARTCHAR 01F9
ENCODING 505
SWIDTH 480 0
DWIDTH 12 0
BBX 9 17 2 0
BITMAP
3000
7800
3C00
0C00
0000
FE00
FF00
FF80
E380
E380
E380
E380
E380
E380
E380
E380
E380
ENDCHAR
STARTCHAR 01FA
ENCODING 506
SWIDTH 480 0
DWIDTH 12 0
BBX 12 21 0 0
BITMAP
0100
0700
0E00
0000
0F00
0900
0D00
0F00
0F80
0F80
1D80
1DC0
19C0
39C0
38C0
3FE0
7FE0
7FE0
70F0
7070
F070
ENDCHAR
STARTCHAR 01FB
ENCODING 507
SWIDTH 480 0
DWIDTH 12 0
BBX 10 21 1 0
BITMAP
0200
0E00
1C00
0000
1E00
1300
1A00
0E00
0000
7F00
7F80
3FC0
01C0
01C0
3FC0
7FC0
E1C0
E1C0
F1C0
7FC0
3FC0
ENDCHAR
STARTCHAR 01FC
ENCODING 508
SWIDTH 480 0
DWIDTH 12 0
BBX 12 21 0 0
BITMAP
0040
00C0
03E0
0380
0000
0000
07F0
0FF0
0F80
0F80
1F80
1B80
1BE0
3BE0
3B80
3F80
7F80
7380
73F0
73F0
F3F0
ENDCHAR
STARTCHAR 01FD
ENCODING 509
SWIDTH 480 0
DWIDTH 12 0
BBX 11 17 1 0
BITMAP
0300
0700
1F00
0C00
0000
7BC0
7FC0
5FE0
0E60
0E60
7FE0
FFE0
CE00
CE00
C700
FFE0
7BE0
ENDCHAR
STARTCHAR 01FE
ENCODING 510
SWIDTH 480 0
DWIDTH 12 0
BBX 11 22 1 -1
BITMAP
0200
0700
0F00
1C00
0000
1EC0
3FC0
7FC0
F3C0
E3C0
E7E0
E6E0
EEE0
ECE0
FCE0
F8E0
F9E0
F1C0
7BC0
7F80
FF00
4000
ENDCHAR
STARTCHAR 01FF
ENCODING 511
SWIDTH 480 0
DWIDTH 12 0
BBX 11 18 1 -1
BITMAP
0200
0F00
1E00
1800
0000
1FC0
7FC0
7FC0
F3C0
E7E0
E6E0
ECE0
FCE0
F9C0
F3C0
7F80
FF00
4000
ENDCHAR
STARTCHAR 0200
ENCODING 512
SWIDTH 480 0
DWIDTH 12 0
BBX 12 21 0 0
BITMAP
0100
3300
3B80
1DC0
0800
0000
0F00
0F80
0F80
1F80
1DC0
19C0
39C0
39C0
38E0
3FE0
7FE0
70E0
70F0
7070
F070
ENDCHAR
STARTCHAR 0201
ENCODING 513
SWIDTH 480 0
DWIDTH 12 0
BBX 10 17 1 0
BITMAP
2200
7700
3B80
1980
0000
7F00
7F80
3FC0
01C0
01C0
3FC0
7FC0
E1C0
E1C0
F1C0
7FC0
3FC0
ENDCHAR
STARTCHAR 0202
ENCODING 514
SWIDTH 480 0
DWIDTH 12 0
BBX 12 20 0 0
BITMAP
0F80
1F80
19C0
0000
0000
0F00
0F80
0F80
1F80
1DC0
19C0
39C0
39C0
38E0
3FE0
7FE0
70E0
70F0
7070
F070
ENDCHAR
STARTCHAR 0203
ENCODING 515
SWIDTH 480 0
DWIDTH 12 0
BBX 10 17 1 0
BITMAP
1E00
3F00
3B80
3180
0000
7F00
7F80
3FC0
01C0
01C0
3FC0
7FC0
E1C0
E1C0
F1C0
7FC0
3FC0
ENDCHAR
STARTCHAR 0204
ENCODING 516
SWIDTH 480 0
DWIDTH 12 0
BBX 10 21 2 0
BITMAP
0400
CC00
EE00
7700
2000
0000
FF80
FF80
E000
E000
E000
E000
FF00
FF00
E000
E000
E000
E000
FFC0
FFC0
FFC0
ENDCHAR
STARTCHAR 0205
ENCODING 517
SWIDTH 480 0
DWIDTH 12 0
BBX 11 17 1 0
BITMAP
2200
7700
3B80
1980
0000
1F00
3F80
7FC0
E1C0
E0E0
FFE0
FFE0
E000
E000
7DC0
7FC0
1FC0
ENDCHAR
STARTCHAR 0206
ENCODING 518
SWIDTH 480 0
DWIDTH 12 0
BBX 10 20 2 0
BITMAP
3E00
7F00
6300
0000
0000
FF80
FF80
E000
E000
E000
E000
FF00
FF00
E000
E000
E000
E000
FFC0
FFC0
FFC0
ENDCHAR
STARTCHAR 0207
ENCODING 519
SWIDTH 480 0
DWIDTH 12 0
BBX 11 17 1 0
BITMAP
1E00
3F00
3B80
3180
0000
1F00
3F80
7FC0
E1C0
E0E0
FFE0
FFE0
E000
E000
7DC0
7FC0
1FC0
ENDCHAR
STARTCHAR 0208
ENCODING 520
SWIDTH 480 0
DWIDTH 12 0
BBX 10 21 1 0
BITMAP
0200
6600
7700
3B80
1000
0000
FFC0
FFC0
0E00
0E00
0E00
0E00
0E00
0E00
0E00
0E00
0E00
0E00
FFC0
FFC0
FFC0
ENDCHAR
STARTCHAR 0209
ENCODING 521
SWIDTH 480 0
DWIDTH 12 0
BBX 11 17 1 0
BITMAP
4600
EE00
7700
3100
0000
FC00
FC00
FC00
1C00
1C00
1C00
1C00
1C00
1C00
1E40
0FE0
07E0
ENDCHAR
STARTCHAR 020A
ENCODING 522
SWIDTH 480 0
DWIDTH 12 0
BBX 10 20 1 0
BITMAP
1F00
3F00
3380
0000
0000
FFC0
FFC0
0E00
0E00
0E00
0E00
0E00
0E00
0E00
0E00
0E00
0E00
FFC0
FFC0
FFC0
ENDCHAR
STARTCHAR 020B
ENCODING 523
SWIDTH 480 0
DWIDTH 12 0
BBX 11 17 1 0
BITMAP
1C00
7E00
7700
6300
0000
FC00
FC00
FC00
1C00
1C00
1C00
1C00
1C00
1C00
1E40
0FE0
07E0
ENDCHAR
STARTCHAR 020C
ENCODING 524
SWIDTH 480 0
DWIDTH 12 0
BBX 11 21 1 0
BITMAP
0200
6700
7700
3B80
1000
1E00
3F80
7FC0
F1C0
E1C0
E0E0
E0E0
E0E0
E0E0
E0E0
E0E0
E1E0
E1C0
7BC0
7F80
3F00
ENDCHAR
STARTCHAR 020D
ENCODING 525
SWIDTH 480 0
DWIDTH 12 0
BBX 11 17 1 0
BITMAP
6200
7700
3380
1980
0000
1F00
7F80
7FC0
F1C0
E1E0
E0E0
E0E0
E1E0
E1C0
FBC0
7F80
3F00
ENDCHAR
STARTCHAR 020E
ENCODING 526
SWIDTH 480 0
DWIDTH 12 0
BBX 11 20 1 0
BITMAP
1F00
3F00
3380
0000
1E00
3F80
7FC0
F1C0
E1C0
E0E0
E0E0
E0E0
E0E0
E0E0
E0E0
E1E0
E1C0
7BC0
7F80
3F00
ENDCHAR
STARTCHAR 020F
ENCODING 527
SWIDTH 480 0
DWIDTH 12 0
BBX 11 17 1 0
BITMAP
1E00
3F00
3B80
3180
0000
1F00
7F80
7FC0
F1C0
E1E0
E0E0
E0E0
E1E0
E1C0
FBC0
7F80
3F00
ENDCHAR
STARTCHAR 0210
ENCODING 528
SWIDTH 480 0
DWIDTH 12 0
BBX 11 20 1 1
BITMAP
6600
7700
3380
0100
3C00
FF80
FF80
E3C0
E1C0
E1C0
E1C0
E3C0
FF80
FF00
E700
E380
E3C0
E1C0
E1E0
E0E0
ENDCHAR
STARTCHAR 0211
ENCODING 529
SWIDTH 480 0
DWIDTH 12 0
BBX 9 17 2 0
BITMAP
4600
EE00
7700
3100
0000
3F80
FF80
FF80
E000
E000
E000
E000
E000
E000
E000
E000
E000
ENDCHAR
STARTCHAR 0212
ENCODING 530
SWIDTH 480 0
DWIDTH 12 0
BBX 11 20 1 0
BITMAP
3E00
3F00
7300
0000
3C00
FF80
FF80
E3C0
E1C0
E1C0
E1C0
E3C0
FF80
FF00
E700
E380
E3C0
E1C0
E1E0
E0E0
ENDCHAR
STARTCHAR 0213
ENCODING 531
SWIDTH 480 0
DWIDTH 12 0
BBX 9 17 2 0
BITMAP
1E00
3F00
7300
7380
0000
3F80
FF80
FF80
E000
E000
E000
E000
E000
E000
E000
E000
E000
ENDCHAR
STARTCHAR 0214
ENCODING 532
SWIDTH 480 0
DWIDTH 12 0
BBX 11 21 1 0
BITMAP
0200
6700
7700
3B80
1000
0000
E1E0
E1E0
E1E0
E1E0
E1E0
E1E0
E1E0
E1E0
E1E0
E1E0
E1C0
E1C0
F3C0
7FC0
3F80
ENDCHAR
STARTCHAR 0215
ENCODING 533
SWIDTH 480 0
DWIDTH 12 0
BBX 10 17 1 0
BITMAP
6200
7700
3380
1980
0000
F1C0
F1C0
F1C0
F1C0
F1C0
F1C0
F1C0
F1C0
71C0
7BC0
7FC0
3FC0
ENDCHAR
STARTCHAR 0216
ENCODING 534
SWIDTH 480 0
DWIDTH 12 0
BBX 11 20 1 0
BITMAP
1F00
3F00
3380
0000
0000
E1E0
E1E0
E1E0
E1E0
E1E0
E1E0
E1E0
E1E0
E1E0
E1E0
E1C0
E1C0
F3C0
7FC0
3F80
ENDCHAR
STARTCHAR 0217
ENCODING 535
SWIDTH 480 0
DWIDTH 12 0
BBX 10 17 1 0
BITMAP
1E00
3F00
3B80
3180
0000
F1C0
F1C0
F1C0
F1C0
F1C0
F1C0
F1C0
F1C0
71C0
7BC0
7FC0
3FC0
ENDCHAR
STARTCHAR 0218
ENCODING 536
SWIDTH 480 0
DWIDTH 12 0
BBX 10 20 1 -4
BITMAP
1F00
3FC0
7F80
F000
E000
F000
7800
7F00
1F80
07C0
01C0
01C0
01C0
63C0
FFC0
7F80
0000
0C00
1C00
3C00
ENDCHAR
STARTCHAR 0219
ENCODING 537
SWIDTH 480 0
DWIDTH 12 0
BBX 10 16 1 -4
BITMAP
1F80
7F80
7F80
7000
7800
7F00
3F80
07C0
01C0
73C0
FFC0
7F00
0000
0C00
1C00
3C00
ENDCHAR
STARTCHAR 021A
ENCODING 538
SWIDTH 480 0
DWIDTH 12 0
BBX 11 19 1 -4
BITMAP
FFE0
FFE0
0E00
0E00
0E00
0E00
0E00
0E00
0E00
0E00
0E00
0E00
0E00
0E00
0E00
0000
0E00
1E00
3C00
ENDCHAR
STARTCHAR 021B
ENCODING 539
SWIDTH 480 0
DWIDTH 12 0
BBX 11 19 1 -4
BITMAP
1C00
1C00
1C00
FFE0
FFE0
FFE0
1C00
1C00
1C00
1C00
1C00
1C00
1E40
1FE0
0FE0
0000
0300
0700
0F00
ENDCHAR
STARTCHAR 021C
ENCODING 540
SWIDTH 480 0
DWIDTH 12 0
BBX 11 20 1 -4
BITMAP
3E00
FF00
FF80
03C0
01C0
01C0
01C0
0380
3F00
3F00
3FC0
01C0
01C0
00E0
00E0
01C0
03C0
FF80
FF00
FC00
ENDCHAR
STARTCHAR 021D
ENCODING 541
SWIDTH 480 0
DWIDTH 12 0
BBX 9 16 2 -4
BITMAP
FC00
FF00
7F00
0780
0780
0700
3E00
3E00
3F00
0780
0380
0380
0780
7F00
FE00
F800
ENDCHAR
STARTCHAR 021E
ENCODING 542
SWIDTH 480 0
DWIDTH 12 0
BBX 10 21 1 0
BITMAP
0100
3B80
1F00
0E00
0400
0000
E1C0
E1C0
E1C0
E1C0
E1C0
E1C0
FFC0
FFC0
E1C0
E1C0
E1C0
E1C0
E1C0
E1C0
E1C0
ENDCHAR
STARTCHAR 021F
ENCODING 543
SWIDTH 480 0
DWIDTH 12 0
BBX 10 21 1 0
BITMAP
4000
EE00
7C00
1000
0000
3000
7000
7000
7000
7F00
7F80
7FC0
71C0
71C0
71C0
71C0
71C0
71C0
71C0
71C0
71C0
ENDCHAR
STARTCHAR 0220
ENCODING 544
SWIDTH 480 0
DWIDTH 12 0
BBX 10 20 1 -4
BITMAP
3E00
FF80
FFC0
E1C0
E1C0
E1C0
E1C0
E1C0
E1C0
E1C0
E1C0
E1C0
E1C0
E1C0
E1C0
E1C0
01C0
01C0
01C0
01C0
ENDCHAR
STARTCHAR 0221
ENCODING 545
SWIDTH 480 0
DWIDTH 12 0
BBX 13 21 0 -4
BITMAP
0180
0180
0180
0180
0180
1D80
3F80
7F80
7180
6180
E180
E180
E180
6180
71F0
3FF8
3F98
0798
0798
0DF8
04F0
ENDCHAR
STARTCHAR 0222
ENCODING 546
SWIDTH 480 0
DWIDTH 12 0
BBX 11 15 1 0
BITMAP
71C0
71C0
71C0
71C0
73C0
7F80
3F00
7FC0
F1C0
E0E0
E0E0
E1E0
F3C0
7FC0
3F80
ENDCHAR
STARTCHAR 0223
ENCODING 547
SWIDTH 480 0
DWIDTH 12 0
BBX 11 17 1 0
BITMAP
71C0
F1C0
F1C0
F1C0
F1C0
73C0
7F80
3F80
7FC0
F1C0
E1E0
E0E0
E0E0
E1E0
F3C0
7FC0
3F00
ENDCHAR
STARTCHAR 0224
ENCODING 548
SWIDTH 480 0
DWIDTH 12 0
BBX 10 19 1 -4
BITMAP
FFC0
FFC0
03C0
0380
0700
0F00
0E00
1E00
1C00
3800
3800
7000
7FC0
FFC0
FFC0
00C0
01C0
07C0
0780
ENDCHAR
STARTCHAR 0225
ENCODING 549
SWIDTH 480 0
DWIDTH 12 0
BBX 9 16 2 -4
BITMAP
FF80
FF80
FF80
0F00
1E00
1C00
3800
7800
7000
FF80
FF80
FF80
0380
0380
0F80
1F00
ENDCHAR
STARTCHAR 0226
ENCODING 550
SWIDTH 480 0
DWIDTH 12 0
BBX 12 20 0 0
BITMAP
0700
0F00
0700
0000
0000
0F00
0F80
0F80
1F80
1DC0
19C0
39C0
39C0
38E0
3FE0
7FE0
70E0
70F0
7070
F070
ENDCHAR
STARTCHAR 0227
ENCODING 551
SWIDTH 480 0
DWIDTH 12 0
BBX 10 17 1 0
BITMAP
0C00
1E00
0E00
0400
0000
7F00
7F80
3FC0
01C0
01C0
3FC0
7FC0
E1C0
E1C0
F1C0
7FC0
3FC0
ENDCHAR
STARTCHAR 0228
ENCODING 552
SWIDTH 480 0
DWIDTH 12 0
BBX 10 19 2 -4
BITMAP
FF80
FF80
E000
E000
E000
E000
FF00
FF00
E000
E000
E000
E000
FFC0
FFC0
FFC0
1C00
0E00
2E00
3C00
ENDCHAR
STARTCHAR 0229
ENCODING 553
SWIDTH 480 0
DWIDTH 12 0
BBX 11 16 1 -4
BITMAP
1F00
3F80
7FC0
E1C0
E0E0
FFE0
FFE0
E000
E000
7DC0
7FC0
1FC0
0600
0700
1700
1E00
ENDCHAR
STARTCHAR 022A
ENCODING 554
SWIDTH 480 0
DWIDTH 12 0
BBX 11 21 1 0
BITMAP
3F00
3F00
0000
3380
3B80
0000
0E00
3F80
7FC0
F1C0
E1C0
E0E0
E0E0
E0E0
E0E0
E0E0
E1E0
E1C0
7BC0
7F80
3F00
ENDCHAR
STARTCHAR 022B
ENCODING 555
SWIDTH 480 0
DWIDTH 12 0
BBX 11 18 1 0
BITMAP
3F00
0000
3300
3B80
3300
0000
1F00
7F80
7FC0
F1C0
E1E0
E0E0
E0E0
E1E0
E1C0
FBC0
7F80
3F00
ENDCHAR
STARTCHAR 022C
ENCODING 556
SWIDTH 480 0
DWIDTH 12 0
BBX 11 21 1 0
BITMAP
3F00
3F00
0000
3F80
3F00
0000
0E00
3F80
7FC0
F1C0
E1C0
E0E0
E0E0
E0E0
E0E0
E0E0
E1E0
E1C0
7BC0
7F80
3F00
ENDCHAR
STARTCHAR 022D
ENCODING 557
SWIDTH 480 0
DWIDTH 12 0
BBX 11 18 1 0
BITMAP
3F00
0000
1900
3F00
0600
0000
1F00
7F80
7FC0
F1C0
E1E0
E0E0
E0E0
E1E0
E1C0
FBC0
7F80
3F00
ENDCHAR
STARTCHAR 022E
ENCODING 558
SWIDTH 480 0
DWIDTH 12 0
BBX 11 20 1 0
BITMAP
0E00
1E00
0E00
0000
1E00
3F80
7FC0
F1C0
E1C0
E0E0
E0E0
E0E0
E0E0
E0E0
E0E0
E1E0
E1C0
7BC0
7F80
3F00
ENDCHAR
STARTCHAR 022F
ENCODING 559
SWIDTH 480 0
DWIDTH 12 0
BBX 11 17 1 0
BITMAP
0C00
1E00
0E00
0400
0000
1F00
7F80
7FC0
F1C0
E1E0
E0E0
E0E0
E1E0
E1C0
FBC0
7F80
3F00
ENDCHAR
STARTCHAR 0230
ENCODING 560
SWIDTH 480 0
DWIDTH 12 0
BBX 11 21 1 0
BITMAP
3F00
3F00
0000
0E00
0E00
0000
0E00
3F80
7FC0
F1C0
E1C0
E0E0
E0E0
E0E0
E0E0
E0E0
E1E0
E1C0
7BC0
7F80
3F00
ENDCHAR
STARTCHAR 0231
ENCODING 561
SWIDTH 480 0
DWIDTH 12 0
BBX 11 18 1 0
BITMAP
3F00
0000
0C00
0E00
0C00
0000
1F00
7F80
7FC0
F1C0
E1E0
E0E0
E0E0
E1E0
E1C0
FBC0
7F80
3F00
ENDCHAR
STARTCHAR 0232
ENCODING 562
SWIDTH 480 0
DWIDTH 12 0
BBX 11 20 1 0
BITMAP
3F80
3F80
3F80
0000
0000
E0E0
E1C0
F1C0
71C0
7380
3B80
3F00
1F00
1E00
0E00
0E00
0E00
0E00
0E00
0E00
ENDCHAR
STARTCHAR 0233
ENCODING 563
SWIDTH 480 0
DWIDTH 12 0
BBX 11 20 1 -4
BITMAP
3F80
3F80
0000
0000
E0E0
E1C0
71C0
71C0
71C0
3B80
3B80
3B80
1F00
1F00
0F00
0E00
0E00
BC00
FC00
F800
ENDCHAR
STARTCHAR 0234
ENCODING 564
SWIDTH 480 0
DWIDTH 12 0
BBX 11 21 1 -4
BITMAP
FC00
FC00
1C00
1C00
1C00
1C00
1C00
1C00
1C00
1C00
1C00
1C00
1C00
1C00
1FC0
1FE0
1C60
3C60
7EE0
6FE0
27C0
ENDCHAR
STARTCHAR 0235
ENCODING 565
SWIDTH 480 0
DWIDTH 12 0
BBX 12 16 1 -4
BITMAP
FC00
FE00
FF00
C700
C300
C300
C300
C300
C300
C3E0
C3F0
C730
0F30
0F30
1BF0
09E0
ENDCHAR
STARTCHAR 0236
ENCODING 566
SWIDTH 480 0
DWIDTH 12 0
BBX 11 19 1 -4
BITMAP
1C00
1C00
1C00
FFE0
FFE0
FFE0
1C00
1C00
1C00
1C00
1C00
1C00
1FC0
1FC0
3CE0
3CE0
7CC0
FFC0
4780
ENDCHAR
STARTCHAR 0237
ENCODING 567
SWIDTH 480 0
DWIDTH 12 0
BBX 9 16 1 -4
BITMAP
7F80
7F80
7F80
0380
0380
0380
0380
0380
0380
0380
0380
0380
0380
7F80
FF00
7E00
ENDCHAR
STARTCHAR 0238
ENCODING 568
SWIDTH 480 0
DWIDTH 12 0
BBX 11 17 1 0
BITMAP
0C00
0C00
0C00
0C00
0C00
7F80
7FC0
FEC0
CCE0
CCE0
CCE0
CCE0
CCE0
CCE0
ECC0
FFC0
7F80
ENDCHAR
STARTCHAR 0239
ENCODING 569
SWIDTH 480 0
DWIDTH 12 0
BBX 11 16 1 -4
BITMAP
3F80
7FC0
EDC0
CCE0
CCE0
CCE0
CCE0
CCE0
CCE0
EEC0
FFC0
7F80
0C00
0C00
0C00
0C00
ENDCHAR
STARTCHAR 023A
ENCODING 570
SWIDTH 480 0
DWIDTH 12 0
BBX 12 20 0 -2
BITMAP
0080
0080
0080
0F80
0F80
0F80
1D80
1D80
1BC0
3BC0
3AC0
3AE0
3FE0
7FE0
74E0
7470
7470
FC70
0C00
0800
ENDCHAR
STARTCHAR 023B
ENCODING 571
SWIDTH 480 0
DWIDTH 12 0
BBX 11 20 1 -2
BITMAP
0080
00C0
0FC0
1FE0
7FE0
79A0
F380
E300
E300
E700
E600
E600
E600
EC00
FC00
7CC0
3FC0
1FC0
1800
3000
ENDCHAR
STARTCHAR 023C
ENCODING 572
SWIDTH 480 0
DWIDTH 12 0
BBX 11 15 1 -1
BITMAP
0180
0FC0
3FC0
7FC0
F300
E300
E600
E600
E600
FC00
7C40
3FE0
1FE0
1800
1800
ENDCHAR
STARTCHAR 023D
ENCODING 573
SWIDTH 480 0
DWIDTH 12 0
BBX 12 15 0 0
BITMAP
3C00
3C00
3C00
3C00
3C00
FF80
FF80
FF80
3C00
3C00
3C00
3C00
3FF0
3FF0
3FF0
ENDCHAR
STARTCHAR 023E
ENCODING 574
SWIDTH 480 0
DWIDTH 12 0
BBX 13 19 0 -2
BITMAP
0018
0038
7FF0
7FE0
0EE0
0EC0
0F80
0F80
0F00
0E00
0E00
0E00
1E00
3E00
3E00
7E00
6E00
C000
4000
ENDCHAR
STARTCHAR 023F
ENCODING 575
SWIDTH 480 0
DWIDTH 12 0
BBX 10 16 1 -4
BITMAP
1F80
7F80
7F80
7000
7800
7F00
3F80
07C0
01C0
63C0
FFC0
FF00
7800
3C00
1F80
0780
ENDCHAR
STARTCHAR 0240
ENCODING 576
SWIDTH 480 0
DWIDTH 12 0
BBX 10 16 2 -4
BITMAP
FF80
FF80
FF80
0F00
1E00
1C00
3800
7800
7000
E000
F000
F800
3C00
1FC0
0FC0
03C0
ENDCHAR
STARTCHAR 0241
ENCODING 577
SWIDTH 480 0
DWIDTH 12 0
BBX 10 16 1 0
BITMAP
1E00
FF80
7FC0
41C0
01C0
01C0
03C0
0780
0F00
1E00
1C00
1C00
1C00
1C00
1C00
1C00
ENDCHAR
STARTCHAR 0242
ENCODING 578
SWIDTH 480 0
DWIDTH 12 0
BBX 9 12 2 0
BITMAP
7E00
FF80
FF80
8380
0380
0F80
1F00
3C00
3800
3800
3800
3800
ENDCHAR
STARTCHAR 0243
ENCODING 579
SWIDTH 480 0
DWIDTH 12 0
BBX 12 16 0 0
BITMAP
0E00
3FC0
3FE0
38E0
38E0
38E0
39C0
3F80
3FC0
38E0
FE70
FE70
38F0
3DE0
3FE0
3FC0
ENDCHAR
STARTCHAR 0244
ENCODING 580
SWIDTH 480 0
DWIDTH 12 0
BBX 12 15 0 0
BITMAP
38E0
38E0
38E0
38E0
38E0
FFF0
FFF0
FFF0
38E0
38E0
38E0
38E0
3DC0
3FC0
1F80
ENDCHAR
STARTCHAR 0245
ENCODING 581
SWIDTH 480 0
DWIDTH 12 0
BBX 12 15 0 0
BITMAP
0F00
0F80
0F80
1F80
1DC0
19C0
39C0
39C0
38E0
38E0
70E0
70E0
70F0
7070
F070
ENDCHAR
STARTCHAR 0246
ENCODING 582
SWIDTH 480 0
DWIDTH 12 0
BBX 11 19 1 -2
BITMAP
0060
0060
FFE0
FFC0
E0C0
E180
E180
E380
FFC0
FFC0
E600
E600
E600
EC00
FFE0
FFE0
FFE0
1800
3000
ENDCHAR
STARTCHAR 0247
ENCODING 583
SWIDTH 480 0
DWIDTH 12 0
BBX 11 16 1 -2
BITMAP
0100
0300
1F00
7FC0
7FC0
E7E0
E6E0
FFE0
FFE0
EC00
EC00
FFC0
7FC0
3FC0
3000
3000
ENDCHAR
STARTCHAR 0248
ENCODING 584
SWIDTH 480 0
DWIDTH 12 0
BBX 11 15 1 0
BITMAP
7F80
7F80
0380
0380
0380
0380
1FE0
1FE0
0380
0380
0380
0380
6780
FF00
7E00
ENDCHAR
STARTCHAR 0249
ENCODING 585
SWIDTH 480 0
DWIDTH 12 0
BBX 11 21 1 -4
BITMAP
0700
0780
0780
0300
0000
7F80
7F80
7F80
0380
0380
7FE0
7FE0
0380
0380
0380
0380
0380
0380
7F80
FF00
7E00
ENDCHAR
STARTCHAR 024A
ENCODING 586
SWIDTH 480 0
DWIDTH 12 0
BBX 12 20 1 -4
BITMAP
1E00
3F00
7F80
F380
E3C0
E1C0
E1C0
E1C0
E1C0
E1C0
E1C0
E1C0
E3C0
77C0
7FC0
3FC0
01C0
01F0
01F0
00F0
ENDCHAR
STARTCHAR 024B
ENCODING 587
SWIDTH 480 0
DWIDTH 12 0
BBX 12 16 1 -4
BITMAP
1F80
7FC0
7FC0
F3C0
E3C0
E3C0
E3C0
E3C0
E3C0
F3C0
7FC0
3FC0
03C0
03E0
01F0
00F0
ENDCHAR
STARTCHAR 024C
ENCODING 588
SWIDTH 480 0
DWIDTH 12 0
BBX 12 16 0 0
BITMAP
0F00
3FC0
3FE0
39E0
38E0
38E0
38E0
39E0
FFC0
FF80
3B80
39C0
39C0
38E0
38E0
3870
ENDCHAR
STARTCHAR 024D
ENCODING 589
SWIDTH 480 0
DWIDTH 12 0
BBX 11 12 0 0
BITMAP
0FE0
3FE0
3FE0
3800
3800
3800
FF80
FF80
3800
3800
3800
3800
ENDCHAR
STARTCHAR 024E
ENCODING 590
SWIDTH 480 0
DWIDTH 12 0
BBX 12 15 0 0
BITMAP
70F0
70E0
FFF0
FFF0
19C0
1DC0
1F80
0F80
0F00
0700
0700
0700
0700
0700
0700
ENDCHAR
STARTCHAR 024F
ENCODING 591
SWIDTH 480 0
DWIDTH 12 0
BBX 12 16 0 -4
BITMAP
70F0
70E0
38E0
38E0
FFF0
FFF0
1DC0
1DC0
0F80
0F80
0780
0700
0700
5E00
7E00
7C00
ENDCHAR
STARTCHAR 0292
ENCODING 658
SWIDTH 480 0
DWIDTH 12 0
BBX 10 16 1 -4
BITMAP
FFC0
FFC0
FFC0
0380
0700
0E00
1C00
1F00
1F80
03C0
01C0
01C0
01C0
FFC0
FF80
FF00
ENDCHAR
STARTCHAR 02BC
ENCODING 700
SWIDTH 480 0
DWIDTH 12 0
BBX 3 5 5 12
BITMAP
E0
E0
E0
C0
C0
ENDCHAR
STARTCHAR 02C6
ENCODING 710
SWIDTH 480 0
DWIDTH 12 0
BBX 6 4 3 13
BITMAP
30
78
FC
C4
ENDCHAR
STARTCHAR 02C7
ENCODING 711
SWIDTH 480 0
DWIDTH 12 0
BBX 6 4 3 13
BITMAP
CC
FC
78
30
ENDCHAR
STARTCHAR 02C9
ENCODING 713
SWIDTH 480 0
DWIDTH 12 0
BBX 7 2 3 14
BITMAP
FE
FE
ENDCHAR
STARTCHAR 02D8
ENCODING 728
SWIDTH 480 0
DWIDTH 12 0
BBX 7 4 3 13
BITMAP
C6
FE
FC
30
ENDCHAR
STARTCHAR 02D9
ENCODING 729
SWIDTH 480 0
DWIDTH 12 0
BBX 4 4 4 13
BITMAP
60
F0
70
20
ENDCHAR
STARTCHAR 02DA
ENCODING 730
SWIDTH 480 0
DWIDTH 12 0
BBX 5 5 4 13
BITMAP
60
F8
98
98
F0
ENDCHAR
STARTCHAR 02DB
ENCODING 731
SWIDTH 480 0
DWIDTH 12 0
BBX 5 4 4 -4
BITMAP
70
E0
E0
F8
ENDCHAR
STARTCHAR 02DC
ENCODING 732
SWIDTH 480 0
DWIDTH 12 0
BBX 8 3 2 13
BITMAP
30
7F
FF
ENDCHAR
STARTCHAR 02DD
ENCODING 733
SWIDTH 480 0
DWIDTH 12 0
BBX 9 4 2 13
BITMAP
3300
7380
E700
C400
ENDCHAR
STARTCHAR 0311
ENCODING 785
SWIDTH 480 0
DWIDTH 12 0
BBX 7 4 3 13
BITMAP
78
FC
EE
C6
ENDCHAR
STARTCHAR 0384
ENCODING 900
SWIDTH 480 0
DWIDTH 12 0
BBX 5 5 4 13
BITMAP
30
78
70
E0
40
ENDCHAR
STARTCHAR 0385
ENCODING 901
SWIDTH 480 0
DWIDTH 12 0
BBX 11 5 1 13
BITMAP
0600
46C0
EFE0
EDC0
0880
ENDCHAR
STARTCHAR 0386
ENCODING 902
SWIDTH 480 0
DWIDTH 12 0
BBX 12 16 0 0
BITMAP
E000
EF00
EF80
CF80
DF80
5DC0
19C0
39C0
39C0
38E0
3FE0
7FE0
70E0
70F0
7070
F070
ENDCHAR
STARTCHAR 0388
ENCODING 904
SWIDTH 480 0
DWIDTH 12 0
BBX 15 16 -3 0
BITMAP
6000
67FC
E7FC
E700
C700
0700
0700
07F8
07F8
0700
0700
0700
0700
07FE
07FE
07FE
ENDCHAR
STARTCHAR 0389
ENCODING 905
SWIDTH 480 0
DWIDTH 12 0
BBX 15 16 -4 0
BITMAP
6000
770E
770E
670E
E70E
070E
070E
07FE
07FE
070E
070E
070E
070E
070E
070E
070E
ENDCHAR
STARTCHAR 038A
ENCODING 906
SWIDTH 480 0
DWIDTH 12 0
BBX 15 16 -4 0
BITMAP
6000
77FE
77FE
6070
E070
2070
0070
0070
0070
0070
0070
0070
0070
07FE
07FE
07FE
ENDCHAR
STARTCHAR 038C
ENCODING 908
SWIDTH 480 0
DWIDTH 12 0
BBX 15 16 -3 0
BITMAP
61E0
63F8
E7FC
EF1C
CE1C
0E0E
0E0E
0E0E
0E0E
0E0E
0E0E
0E1E
0E1C
07BC
07F8
03F0
ENDCHAR
STARTCHAR 038E
ENCODING 910
SWIDTH 480 0
DWIDTH 12 0
BBX 16 16 -4 0
BITMAP
6000
7707
E70E
E78E
C38E
039C
01DC
01F8
00F8
00F0
0070
0070
0070
0070
0070
0070
ENDCHAR
STARTCHAR 038F
ENCODING 911
SWIDTH 480 0
DWIDTH 12 0
BBX 15 16 -3 0
BITMAP
61E0
63F8
E7FC
EF1C
CE0E
1E0E
1E0E
1C0E
1C0E
0E0E
0E0E
0E1C
071C
1F3E
1FBE
1FBE
ENDCHAR
STARTCHAR 0390
ENCODING 912
SWIDTH 480 0
DWIDTH 12 0
BBX 11 18 1 0
BITMAP
0600
46C0
EFE0
EDC0
0880
0000
FC00
FC00
FC00
1C00
1C00
1C00
1C00
1C00
1C00
1FC0
0FE0
07E0
ENDCHAR
STARTCHAR 0391
ENCODING 913
SWIDTH 480 0
DWIDTH 12 0
BBX 12 15 0 0
BITMAP
0F00
0F80
0F80
1F80
1DC0
19C0
39C0
39C0
38E0
3FE0
7FE0
70E0
70F0
7070
F070
ENDCHAR
STARTCHAR 0392
ENCODING 914
SWIDTH 480 0
DWIDTH 12 0
BBX 11 16 1 0
BITMAP
3C00
FF80
FFC0
E1C0
E1C0
E1C0
E380
FF00
FF80
E1C0
E0E0
E0E0
E1E0
F7C0
FFC0
FF00
ENDCHAR
STARTCHAR 0393
ENCODING 915
SWIDTH 480 0
DWIDTH 12 0
BBX 11 15 1 0
BITMAP
3FE0
3FE0
3800
3800
3800
3800
3800
3800
3800
3800
3800
3800
FF80
FF80
FF80
ENDCHAR
STARTCHAR 0394
ENCODING 916
SWIDTH 480 0
DWIDTH 12 0
BBX 12 15 0 0
BITMAP
0F00
0F80
0F80
1F80
1DC0
19C0
39C0
39C0
38E0
38E0
70E0
70E0
7FF0
7FF0
FFF0
ENDCHAR
STARTCHAR 0395
ENCODING 917
SWIDTH 480 0
DWIDTH 12 0
BBX 10 15 2 0
BITMAP
FF80
FF80
E000
E000
E000
E000
FF00
FF00
E000
E000
E000
E000
FFC0
FFC0
FFC0
ENDCHAR
STARTCHAR 0396
ENCODING 918
SWIDTH 480 0
DWIDTH 12 0
BBX 10 15 1 0
BITMAP
FFC0
FFC0
03C0
0380
0700
0F00
0E00
1E00
1C00
3800
3800
7000
7FC0
FFC0
FFC0
ENDCHAR
STARTCHAR 0397
ENCODING 919
SWIDTH 480 0
DWIDTH 12 0
BBX 10 15 1 0
BITMAP
E1C0
E1C0
E1C0
E1C0
E1C0
E1C0
FFC0
FFC0
E1C0
E1C0
E1C0
E1C0
E1C0
E1C0
E1C0
ENDCHAR
STARTCHAR 0398
ENCODING 920
SWIDTH 480 0
DWIDTH 12 0
BBX 11 16 1 0
BITMAP
0E00
3F80
7FC0
F1C0
E1E0
E0E0
E0E0
DEE0
DEE0
C0E0
E0E0
E0E0
E1C0
FBC0
7F80
3F00
ENDCHAR
STARTCHAR 0399
ENCODING 921
SWIDTH 480 0
DWIDTH 12 0
BBX 10 15 1 0
BITMAP
FFC0
FFC0
0E00
0E00
0E00
0E00
0E00
0E00
0E00
0E00
0E00
0E00
FFC0
FFC0
FFC0
ENDCHAR
STARTCHAR 039A
ENCODING 922
SWIDTH 480 0
DWIDTH 12 0
BBX 11 15 1 0
BITMAP
E1C0
E3C0
E380
E700
EF00
EE00
FC00
FE00
EF00
E700
E780
E3C0
E1C0
E1E0
E0E0
ENDCHAR
STARTCHAR 039B
ENCODING 923
SWIDTH 480 0
DWIDTH 12 0
BBX 12 15 0 0
BITMAP
0F00
0F80
0F80
1F80
1DC0
19C0
39C0
39C0
38E0
38E0
70E0
70E0
70F0
7070
F070
ENDCHAR
STARTCHAR 039C
ENCODING 924
SWIDTH 480 0
DWIDTH 12 0
BBX 11 15 1 0
BITMAP
E1C0
F1C0
F3C0
F3C0
DBC0
DFC0
DEE0
CEE0
CEE0
CCE0
C0E0
C0E0
C0E0
C0E0
C0E0
ENDCHAR
STARTCHAR 039D
ENCODING 925
SWIDTH 480 0
DWIDTH 12 0
BBX 10 15 1 0
BITMAP
E0C0
F0C0
F0C0
F8C0
F8C0
FCC0
ECC0
EEC0
E6C0
E7C0
E3C0
E3C0
E1C0
E1C0
E0C0
ENDCHAR
STARTCHAR 039E
ENCODING 926
SWIDTH 480 0
DWIDTH 12 0
BBX 11 15 1 0
BITMAP
FFE0
FFE0
0000
0000
0000
0000
7FC0
7FC0
0000
0000
0000
0000
FFE0
FFE0
FFE0
ENDCHAR
STARTCHAR 039F
ENCODING 927
SWIDTH 480 0
DWIDTH 12 0
BBX 11 16 1 0
BITMAP
1E00
3F80
7FC0
F1C0
E1C0
E0E0
E0E0
E0E0
E0E0
E0E0
E0E0
E1E0
E1C0
7BC0
7F80
3F00
ENDCHAR
STARTCHAR 03A0
ENCODING 928
SWIDTH 480 0
DWIDTH 12 0
BBX 10 15 1 0
BITMAP
FFC0
FFC0
E1C0
E1C0
E1C0
E1C0
E1C0
E1C0
E1C0
E1C0
E1C0
E1C0
E1C0
E1C0
E1C0
ENDCHAR
STARTCHAR 03A1
ENCODING 929
SWIDTH 480 0
DWIDTH 12 0
BBX 11 16 1 0
BITMAP
3C00
FF80
FFC0
E1E0
E0E0
E0E0
E0E0
E1E0
FFC0
FF80
FE00
E000
E000
E000
E000
E000
ENDCHAR
STARTCHAR 03A3
ENCODING 931
SWIDTH 480 0
DWIDTH 12 0
BBX 11 15 1 0
BITMAP
FFE0
FFE0
7000
3800
1C00
1E00
0F00
0F00
0E00
1C00
3800
7000
FFE0
FFE0
FFE0
ENDCHAR
STARTCHAR 03A4
ENCODING 932
SWIDTH 480 0
DWIDTH 12 0
BBX 11 15 1 0
BITMAP
FFE0
FFE0
0E00
0E00
0E00
0E00
0E00
0E00
0E00
0E00
0E00
0E00
0E00
0E00
0E00
ENDCHAR
STARTCHAR 03A5
ENCODING 933
SWIDTH 480 0
DWIDTH 12 0
BBX 11 15 1 0
BITMAP
E0E0
E1C0
F1C0
71C0
7380
3B80
3F00
1F00
1E00
0E00
0E00
0E00
0E00
0E00
0E00
ENDCHAR
STARTCHAR 03A6
ENCODING 934
SWIDTH 480 0
DWIDTH 12 0
BBX 11 16 1 0
BITMAP
0C00
1F00
7F80
FDC0
ECC0
CCE0
CCE0
CCE0
CCE0
CCE0
CCE0
EDC0
7FC0
3F80
0C00
0C00
ENDCHAR
STARTCHAR 03A7
ENCODING 935
SWIDTH 480 0
DWIDTH 12 0
BBX 12 15 0 0
BITMAP
70E0
38E0
39C0
1DC0
1F80
0F80
0F00
0F00
0F80
1FC0
1DC0
39E0
78E0
70F0
F070
ENDCHAR
STARTCHAR 03A8
ENCODING 936
SWIDTH 480 0
DWIDTH 12 0
BBX 11 15 1 0
BITMAP
C0E0
C0E0
C0E0
CCE0
CCE0
CCE0
CCE0
CCE0
ECC0
7FC0
3F80
0C00
0C00
0C00
0C00
ENDCHAR
STARTCHAR 03A9
ENCODING 937
SWIDTH 480 0
DWIDTH 12 0
BBX 12 16 0 0
BITMAP
0F00
1FC0
3FE0
78E0
7070
F070
F070
E070
E070
7070
7070
70E0
38E0
F9F0
FDF0
FDF0
ENDCHAR
STARTCHAR 03AA
ENCODING 938
SWIDTH 480 0
DWIDTH 12 0
BBX 10 20 1 0
BITMAP
7380
7BC0
7380
0000
0000
FFC0
FFC0
0E00
0E00
0E00
0E00
0E00
0E00
0E00
0E00
0E00
0E00
FFC0
FFC0
FFC0
ENDCHAR
STARTCHAR 03AB
ENCODING 939
SWIDTH 480 0
DWIDTH 12 0
BBX 11 20 1 0
BITMAP
7380
7BC0
7380
0000
0000
E0E0
E1C0
F1C0
71C0
7380
3B80
3F00
1F00
1E00
0E00
0E00
0E00
0E00
0E00
0E00
ENDCHAR
STARTCHAR 03AC
ENCODING 940
SWIDTH 480 0
DWIDTH 12 0
BBX 11 18 1 0
BITMAP
0200
0700
0E00
1C00
0800
0000
1F80
3FC0
7FC0
F1C0
E1C0
E1C0
E1C0
E1C0
F1C0
73E0
7FE0
3EE0
ENDCHAR
STARTCHAR 03AD
ENCODING 941
SWIDTH 480 0
DWIDTH 12 0
BBX 9 18 2 0
BITMAP
0400
0E00
1C00
1C00
0800
0000
3F80
7F80
FF00
E000
E000
7E00
FE00
E000
E000
F380
FF80
7F80
ENDCHAR
STARTCHAR 03AE
ENCODING 942
SWIDTH 480 0
DWIDTH 12 0
BBX 9 22 2 -4
BITMAP
0400
0E00
1C00
3800
1000
0000
FE00
FF00
FF80
E380
E380
E380
E380
E380
E380
E380
E380
E380
0380
0380
0380
0380
ENDCHAR
STARTCHAR 03AF
ENCODING 943
SWIDTH 480 0
DWIDTH 12 0
BBX 11 18 1 0
BITMAP
0600
0E00
0E00
1C00
0800
0000
FC00
FC00
FC00
1C00
1C00
1C00
1C00
1C00
1C00
1FC0
0FE0
07E0
ENDCHAR
STARTCHAR 03B0
ENCODING 944
SWIDTH 480 0
DWIDTH 12 0
BBX 11 18 1 0
BITMAP
0600
46C0
EFE0
EDC0
0880
0000
E1C0
E1C0
E1C0
E1C0
E1C0
E1C0
E1C0
E1C0
F1C0
7FC0
7F80
3F00
ENDCHAR
STARTCHAR 03B1
ENCODING 945
SWIDTH 480 0
DWIDTH 12 0
BBX 11 12 1 0
BITMAP
1F80
3FC0
7FC0
F1C0
E1C0
E1C0
E1C0
E1C0
F1C0
73E0
7FE0
3EE0
ENDCHAR
STARTCHAR 03B2
ENCODING 946
SWIDTH 480 0
DWIDTH 12 0
BBX 11 21 1 -4
BITMAP
3F00
7F80
73C0
F1C0
E1C0
E380
E380
E700
E7C0
E3C0
E1E0
E0E0
E0E0
E1E0
FBC0
FFC0
FF80
E000
E000
E000
E000
ENDCHAR
STARTCHAR 03B3
ENCODING 947
SWIDTH 480 0
DWIDTH 12 0
BBX 12 16 0 -4
BITMAP
F070
7070
70F0
38E0
38E0
39C0
1DC0
1DC0
1F80
1F80
0F00
0F00
0E00
0E00
0700
0700
ENDCHAR
STARTCHAR 03B4
ENCODING 948
SWIDTH 480 0
DWIDTH 12 0
BBX 11 17 1 0
BITMAP
1FC0
3FC0
3880
3800
3C00
3E00
1F00
7F80
73C0
E1E0
E0E0
E0E0
E1E0
E1C0
FBC0
7F80
3F00
ENDCHAR
STARTCHAR 03B5
ENCODING 949
SWIDTH 480 0
DWIDTH 12 0
BBX 9 12 2 0
BITMAP
3F80
7F80
FF00
E000
E000
7E00
FE00
E000
E000
F380
FF80
7F80
ENDCHAR
STARTCHAR 03B6
ENCODING 950
SWIDTH 480 0
DWIDTH 12 0
BBX 11 21 1 -4
BITMAP
7FC0
7FC0
0380
0700
0E00
1C00
3800
3800
7000
7000
F000
F000
F000
7800
7E00
3F80
0FC0
01E0
00E0
01C0
01C0
ENDCHAR
STARTCHAR 03B7
ENCODING 951
SWIDTH 480 0
DWIDTH 12 0
BBX 9 16 2 -4
BITMAP
FE00
FF00
FF80
E380
E380
E380
E380
E380
E380
E380
E380
E380
0380
0380
0380
0380
ENDCHAR
STARTCHAR 03B8
ENCODING 952
SWIDTH 480 0
DWIDTH 12 0
BBX 11 17 1 0
BITMAP
1F00
7F80
7BC0
F1C0
E1C0
E1C0
E0E0
FFE0
FFE0
FFE0
E0E0
E1C0
E1C0
F1C0
7BC0
7F80
1F00
ENDCHAR
STARTCHAR 03B9
ENCODING 953
SWIDTH 480 0
DWIDTH 12 0
BBX 11 12 1 0
BITMAP
FC00
FC00
FC00
1C00
1C00
1C00
1C00
1C00
1C00
1FC0
0FE0
07E0
ENDCHAR
STARTCHAR 03BA
ENCODING 954
SWIDTH 480 0
DWIDTH 12 0
BBX 10 12 2 0
BITMAP
E3C0
E780
E700
EE00
FC00
F800
FC00
EE00
EF00
E780
E380
E3C0
ENDCHAR
STARTCHAR 03BB
ENCODING 955
SWIDTH 480 0
DWIDTH 12 0
BBX 11 17 1 0
BITMAP
F800
F800
3C00
1E00
0E00
0E00
0F00
1F00
1F00
3F80
3B80
7B80
73C0
71C0
F1C0
E1E0
E1E0
ENDCHAR
STARTCHAR 03BC
ENCODING 956
SWIDTH 480 0
DWIDTH 12 0
BBX 10 16 1 -4
BITMAP
F1C0
F1C0
F1C0
F1C0
F1C0
F1C0
F1C0
F1C0
F1C0
F9C0
FFC0
FFC0
E000
F000
F000
F000
ENDCHAR
STARTCHAR 03BD
ENCODING 957
SWIDTH 480 0
DWIDTH 12 0
BBX 12 12 0 0
BITMAP
F070
7070
70E0
70E0
38E0
39C0
39C0
1DC0
1F80
0F80
0F00
0700
ENDCHAR
STARTCHAR 03BE
ENCODING 958
SWIDTH 480 0
DWIDTH 12 0
BBX 11 21 1 -4
BITMAP
1FC0
3FC0
7840
7000
7000
7800
3C00
1FC0
3FC0
7800
F000
E000
F000
7000
7E00
3F80
0FC0
01E0
00E0
01C0
01C0
ENDCHAR
STARTCHAR 03BF
ENCODING 959
SWIDTH 480 0
DWIDTH 12 0
BBX 11 12 1 0
BITMAP
1F00
7F80
7FC0
F1C0
E1E0
E0E0
E0E0
E1E0
E1C0
FBC0
7F80
3F00
ENDCHAR
STARTCHAR 03C0
ENCODING 960
SWIDTH 480 0
DWIDTH 12 0
BBX 9 12 2 0
BITMAP
FF80
FF80
FF80
E380
E380
E380
E380
E380
E380
E380
E380
E380
ENDCHAR
STARTCHAR 03C1
ENCODING 961
SWIDTH 480 0
DWIDTH 12 0
BBX 10 16 2 -4
BITMAP
3E00
7F00
FF80
E380
E3C0
E1C0
E1C0
E3C0
E380
E780
FF80
FE00
E000
E000
E000
E000
ENDCHAR
STARTCHAR 03C2
ENCODING 962
SWIDTH 480 0
DWIDTH 12 0
BBX 11 16 1 -4
BITMAP
0FC0
3FC0
7FC0
7000
F000
E000
E000
F000
7000
7E00
3F80
0FC0
01E0
00E0
01C0
01C0
ENDCHAR
STARTCHAR 03C3
ENCODING 963
SWIDTH 480 0
DWIDTH 12 0
BBX 11 12 1 0
BITMAP
0FE0
3FE0
7FE0
F380
E1C0
E1C0
E1C0
E1C0
E1C0
F3C0
7F80
3F00
ENDCHAR
STARTCHAR 03C4
ENCODING 964
SWIDTH 480 0
DWIDTH 12 0
BBX 11 12 1 0
BITMAP
FFC0
FFC0
FFC0
3C00
3C00
3C00
3C00
3C00
1C00
1E60
1FE0
0FE0
ENDCHAR
STARTCHAR 03C5
ENCODING 965
SWIDTH 480 0
DWIDTH 12 0
BBX 10 12 1 0
BITMAP
E1C0
E1C0
E1C0
E1C0
E1C0
E1C0
E1C0
E1C0
F1C0
7FC0
7F80
3F00
ENDCHAR
STARTCHAR 03C6
ENCODING 966
SWIDTH 480 0
DWIDTH 12 0
BBX 11 16 1 -4
BITMAP
0E00
7F80
FFC0
ECC0
CCE0
CCE0
CCE0
CCE0
CCE0
EDC0
7FC0
3F00
0C00
0C00
0C00
0C00
ENDCHAR
STARTCHAR 03C7
ENCODING 967
SWIDTH 480 0
DWIDTH 12 0
BBX 11 12 1 0
BITMAP
E0E0
F1C0
7380
3B80
1F00
1E00
1F00
3F00
3B80
73C0
E1C0
E0E0
ENDCHAR
STARTCHAR 03C8
ENCODING 968
SWIDTH 480 0
DWIDTH 12 0
BBX 11 16 1 -4
BITMAP
C0E0
C0E0
C0E0
CCE0
CCE0
CCE0
CCE0
CCE0
CCE0
ECC0
7FC0
3F80
0C00
0C00
0C00
0C00
ENDCHAR
STARTCHAR 03C9
ENCODING 969
SWIDTH 480 0
DWIDTH 12 0
BBX 11 12 1 0
BITMAP
6180
71C0
E1C0
E0C0
E0E0
CCE0
CCE0
CCE0
CEE0
EEE0
FFC0
7BC0
ENDCHAR
STARTCHAR 03CA
ENCODING 970
SWIDTH 480 0
DWIDTH 12 0
BBX 11 17 1 0
BITMAP
3180
7380
7380
0000
0000
FC00
FC00
FC00
1C00
1C00
1C00
1C00
1C00
1C00
1FC0
0FE0
07E0
ENDCHAR
STARTCHAR 03CB
ENCODING 971
SWIDTH 480 0
DWIDTH 12 0
BBX 10 17 1 0
BITMAP
3180
7380
7380
0000
0000
E1C0
E1C0
E1C0
E1C0
E1C0
E1C0
E1C0
E1C0
F1C0
7FC0
7F80
3F00
ENDCHAR
STARTCHAR 03CC
ENCODING 972
SWIDTH 480 0
DWIDTH 12 0
BBX 11 18 1 0
BITMAP
0200
0700
0E00
1C00
0800
0000
1F00
7F80
7FC0
F1C0
E1E0
E0E0
E0E0
E1E0
E1C0
FBC0
7F80
3F00
ENDCHAR
STARTCHAR 03CD
ENCODING 973
SWIDTH 480 0
DWIDTH 12 0
BBX 10 18 1 0
BITMAP
0600
0700
0E00
1C00
0800
0000
E1C0
E1C0
E1C0
E1C0
E1C0
E1C0
E1C0
E1C0
F1C0
7FC0
7F80
3F00
ENDCHAR
STARTCHAR 03CE
ENCODING 974
SWIDTH 480 0
DWIDTH 12 0
BBX 11 18 1 0
BITMAP
0600
0700
0E00
1C00
0800
0000
6180
71C0
E1C0
E0C0
E0E0
CCE0
CCE0
CCE0
CEE0
EEE0
FFC0
7BC0
ENDCHAR
STARTCHAR 0400
ENCODING 1024
SWIDTH 480 0
DWIDTH 12 0
BBX 10 21 2 0
BITMAP
1000
1800
3E00
0E00
0000
0000
FF80
FF80
E000
E000
E000
E000
FF00
FF00
E000
E000
E000
E000
FFC0
FFC0
FFC0
ENDCHAR
STARTCHAR 0401
ENCODING 1025
SWIDTH 480 0
DWIDTH 12 0
BBX 10 20 2 0
BITMAP
E700
F780
E700
0000
0000
FF80
FF80
E000
E000
E000
E000
FF00
FF00
E000
E000
E000
E000
FFC0
FFC0
FFC0
ENDCHAR
STARTCHAR 0402
ENCODING 1026
SWIDTH 480 0
DWIDTH 12 0
BBX 12 15 0 0
BITMAP
FFC0
FFC0
3C00
3C00
3C00
3F80
3FE0
3FF0
3CF0
3C70
3C70
3C70
3CF0
3DE0
3DE0
ENDCHAR
STARTCHAR 0403
ENCODING 1027
SWIDTH 480 0
DWIDTH 12 0
BBX 11 20 1 1
BITMAP
0380
07C0
0700
0400
0000
3FE0
3FE0
3800
3800
3800
3800
3800
3800
3800
3800
3800
3800
FF80
FF80
FF80
ENDCHAR
STARTCHAR 0404
ENCODING 1028
SWIDTH 480 0
DWIDTH 12 0
BBX 11 16 1 0
BITMAP
0F80
1FE0
7FC0
7840
F000
E000
E000
FF00
FF00
FF00
E000
E000
F000
7CC0
3FC0
1FC0
ENDCHAR
STARTCHAR 0405
ENCODING 1029
SWIDTH 480 0
DWIDTH 12 0
BBX 10 16 1 0
BITMAP
1F00
3FC0
7F80
F000
E000
F000
7800
7F00
1F80
07C0
01C0
01C0
01C0
63C0
FFC0
7F80
ENDCHAR
STARTCHAR 0406
ENCODING 1030
SWIDTH 480 0
DWIDTH 12 0
BBX 10 15 1 0
BITMAP
FFC0
FFC0
0E00
0E00
0E00
0E00
0E00
0E00
0E00
0E00
0E00
0E00
FFC0
FFC0
FFC0
ENDCHAR
STARTCHAR 0407
ENCODING 1031
SWIDTH 480 0
DWIDTH 12 0
BBX 10 20 1 0
BITMAP
7380
7BC0
7380
0000
0000
FFC0
FFC0
0E00
0E00
0E00
0E00
0E00
0E00
0E00
0E00
0E00
0E00
FFC0
FFC0
FFC0
ENDCHAR
STARTCHAR 0408
ENCODING 1032
SWIDTH 480 0
DWIDTH 12 0
BBX 10 15 1 0
BITMAP
3FC0
3FC0
01C0
01C0
01C0
01C0
01C0
01C0
01C0
01C0
01C0
03C0
7780
FF80
7F00
ENDCHAR
STARTCHAR 0409
ENCODING 1033
SWIDTH 480 0
DWIDTH 12 0
BBX 12 15 0 0
BITMAP
3F00
3F00
3700
3700
3700
37C0
37E0
3770
3770
3730
3730
7770
7770
E7E0
C7C0
ENDCHAR
STARTCHAR 040A
ENCODING 1034
SWIDTH 480 0
DWIDTH 12 0
BBX 11 15 1 0
BITMAP
CE00
CE00
CE00
CE00
CE00
FF80
FFC0
CEE0
CEE0
CE60
CE60
CEE0
CEE0
CFC0
CF80
ENDCHAR
STARTCHAR 040B
ENCODING 1035
SWIDTH 480 0
DWIDTH 12 0
BBX 11 15 0 0
BITMAP
FFC0
FFC0
3C00
3C00
3C00
3F80
3FC0
3FE0
3CE0
3CE0
3CE0
3CE0
3CE0
3CE0
3CE0
ENDCHAR
STARTCHAR 040C
ENCODING 1036
SWIDTH 480 0
DWIDTH 12 0
BBX 11 21 1 0
BITMAP
0200
0700
0F00
1C00
0000
0000
E1C0
E3C0
E380
E700
EF00
EE00
FC00
FE00
EF00
E700
E780
E3C0
E1C0
E1E0
E0E0
ENDCHAR
STARTCHAR 040D
ENCODING 1037
SWIDTH 480 0
DWIDTH 12 0
BBX 10 21 1 0
BITMAP
0800
0C00
1F00
0700
0000
0000
E1C0
E1C0
E3C0
E3C0
E7C0
E6C0
EEC0
ECC0
FCC0
F8C0
F8C0
F0C0
F0C0
E0C0
E0C0
ENDCHAR
STARTCHAR 040E
ENCODING 1038
SWIDTH 480 0
DWIDTH 12 0
BBX 11 21 1 0
BITMAP
1000
7380
3F80
1F00
0000
0000
E0E0
E1E0
F1C0
71C0
7BC0
3B80
3F80
1F80
0F00
0F00
0F00
0E00
FE00
FC00
F800
ENDCHAR
STARTCHAR 040F
ENCODING 1039
SWIDTH 480 0
DWIDTH 12 0
BBX 10 19 1 -4
BITMAP
E1C0
E1C0
E1C0
E1C0
E1C0
E1C0
E1C0
E1C0
E1C0
E1C0
E1C0
E1C0
FFC0
FFC0
FFC0
0E00
0E00
0E00
0E00
ENDCHAR
STARTCHAR 0410
ENCODING 1040
SWIDTH 480 0
DWIDTH 12 0
BBX 12 15 0 0
BITMAP
0F00
0F80
0F80
1F80
1DC0
19C0
39C0
39C0
38E0
3FE0
7FE0
70E0
70F0
7070
F070
ENDCHAR
STARTCHAR 0411
ENCODING 1041
SWIDTH 480 0
DWIDTH 12 0
BBX 11 15 1 0
BITMAP
FF80
FF80
E000
E000
E000
FF00
FF80
FFC0
E1E0
E0E0
E0E0
E1E0
F7C0
FFC0
FF00
ENDCHAR
STARTCHAR 0412
ENCODING 1042
SWIDTH 480 0
DWIDTH 12 0
BBX 11 16 1 0
BITMAP
3C00
FF80
FFC0
E1C0
E1C0
E1C0
E380
FF00
FF80
E1C0
E0E0
E0E0
E1E0
F7C0
FFC0
FF00
ENDCHAR
STARTCHAR 0413
ENCODING 1043
SWIDTH 480 0
DWIDTH 12 0
BBX 11 15 1 0
BITMAP
3FE0
3FE0
3800
3800
3800
3800
3800
3800
3800
3800
3800
3800
FF80
FF80
FF80
ENDCHAR
STARTCHAR 0414
ENCODING 1044
SWIDTH 480 0
DWIDTH 12 0
BBX 12 19 0 -4
BITMAP
1FE0
1FE0
1CE0
1CE0
1CE0
1CE0
1CE0
18E0
18E0
38E0
38E0
38E0
FFF0
FFF0
FFF0
E070
E070
E070
E070
ENDCHAR
STARTCHAR 0415
ENCODING 1045
SWIDTH 480 0
DWIDTH 12 0
BBX 10 15 2 0
BITMAP
FF80
FF80
E000
E000
E000
E000
FF00
FF00
E000
E000
E000
E000
FFC0
FFC0
FFC0
ENDCHAR
STARTCHAR 0416
ENCODING 1046
SWIDTH 480 0
DWIDTH 12 0
BBX 12 15 0 0
BITMAP
6670
6670
7660
36E0
3EC0
1EC0
1F80
1F80
3EC0
36E0
3660
7660
6670
6670
E630
ENDCHAR
STARTCHAR 0417
ENCODING 1047
SWIDTH 480 0
DWIDTH 12 0
BBX 11 16 1 0
BITMAP
3E00
FF80
7FC0
41C0
01C0
01C0
03C0
3F80
3FC0
03C0
00E0
00E0
00E0
E3E0
FFC0
FF80
ENDCHAR
STARTCHAR 0418
ENCODING 1048
SWIDTH 480 0
DWIDTH 12 0
BBX 10 15 1 0
BITMAP
E1C0
E1C0
E3C0
E3C0
E7C0
E6C0
EEC0
ECC0
FCC0
F8C0
F8C0
F0C0
F0C0
E0C0
E0C0
ENDCHAR
STARTCHAR 0419
ENCODING 1049
SWIDTH 480 0
DWIDTH 12 0
BBX 10 21 1 0
BITMAP
1000
7380
3F80
1F00
0000
0000
E1C0
E1C0
E3C0
E3C0
E7C0
E6C0
EEC0
ECC0
FCC0
F8C0
F8C0
F0C0
F0C0
E0C0
E0C0
ENDCHAR
STARTCHAR 041A
ENCODING 1050
SWIDTH 480 0
DWIDTH 12 0
BBX 11 15 1 0
BITMAP
E1C0
E3C0
E380
E700
EF00
EE00
FC00
FE00
EF00
E700
E780
E3C0
E1C0
E1E0
E0E0
ENDCHAR
STARTCHAR 041B
ENCODING 1051
SWIDTH 480 0
DWIDTH 12 0
BBX 12 15 0 0
BITMAP
1FF0
1FF0
1C70
1C70
1C70
1C70
1C70
1C70
1C70
1C70
3870
3870
7870
F070
E070
ENDCHAR
STARTCHAR 041C
ENCODING 1052
SWIDTH 480 0
DWIDTH 12 0
BBX 11 15 1 0
BITMAP
E1C0
F1C0
F3C0
F3C0
DBC0
DFC0
DEE0
CEE0
CEE0
CCE0
C0E0
C0E0
C0E0
C0E0
C0E0
ENDCHAR
STARTCHAR 041D
ENCODING 1053
SWIDTH 480 0
DWIDTH 12 0
BBX 10 15 1 0
BITMAP
E1C0
E1C0
E1C0
E1C0
E1C0
E1C0
FFC0
FFC0
E1C0
E1C0
E1C0
E1C0
E1C0
E1C0
E1C0
ENDCHAR
STARTCHAR 041E
ENCODING 1054
SWIDTH 480 0
DWIDTH 12 0
BBX 11 16 1 0
BITMAP
1E00
3F80
7FC0
F1C0
E1C0
E0E0
E0E0
E0E0
E0E0
E0E0
E0E0
E1E0
E1C0
7BC0
7F80
3F00
ENDCHAR
STARTCHAR 041F
ENCODING 1055
SWIDTH 480 0
DWIDTH 12 0
BBX 10 15 1 0
BITMAP
FFC0
FFC0
E1C0
E1C0
E1C0
E1C0
E1C0
E1C0
E1C0
E1C0
E1C0
E1C0
E1C0
E1C0
E1C0
ENDCHAR
STARTCHAR 0420
ENCODING 1056
SWIDTH 480 0
DWIDTH 12 0
BBX 11 16 1 0
BITMAP
3C00
FF80
FFC0
E1E0
E0E0
E0E0
E0E0
E1E0
FFC0
FF80
FE00
E000
E000
E000
E000
E000
ENDCHAR
STARTCHAR 0421
ENCODING 1057
SWIDTH 480 0
DWIDTH 12 0
BBX 11 16 1 0
BITMAP
0F80
1FE0
7FC0
7840
F000
E000
E000
E000
E000
E000
E000
E000
F000
7CC0
3FC0
1FC0
ENDCHAR
STARTCHAR 0422
ENCODING 1058
SWIDTH 480 0
DWIDTH 12 0
BBX 11 15 1 0
BITMAP
FFE0
FFE0
0E00
0E00
0E00
0E00
0E00
0E00
0E00
0E00
0E00
0E00
0E00
0E00
0E00
ENDCHAR
STARTCHAR 0423
ENCODING 1059
SWIDTH 480 0
DWIDTH 12 0
BBX 11 15 1 0
BITMAP
E0E0
E1E0
F1C0
71C0
7BC0
3B80
3F80
1F80
0F00
0F00
0F00
0E00
FE00
FC00
F800
ENDCHAR
STARTCHAR 0424
ENCODING 1060
SWIDTH 480 0
DWIDTH 12 0
BBX 11 16 1 0
BITMAP
0C00
1F00
7F80
FDC0
ECC0
CCE0
CCE0
CCE0
CCE0
CCE0
CCE0
EDC0
7FC0
3F80
0C00
0C00
ENDCHAR
STARTCHAR 0425
ENCODING 1061
SWIDTH 480 0
DWIDTH 12 0
BBX 12 15 0 0
BITMAP
70E0
38E0
39C0
1DC0
1F80
0F80
0F00
0F00
0F80
1FC0
1DC0
39E0
78E0
70F0
F070
ENDCHAR
STARTCHAR 0426
ENCODING 1062
SWIDTH 480 0
DWIDTH 12 0
BBX 11 19 1 -4
BITMAP
E1C0
E1C0
E1C0
E1C0
E1C0
E1C0
E1C0
E1C0
E1C0
E1C0
E1C0
E1C0
FFE0
FFE0
FFE0
00E0
00E0
00E0
00E0
ENDCHAR
STARTCHAR 0427
ENCODING 1063
SWIDTH 480 0
DWIDTH 12 0
BBX 10 15 1 0
BITMAP
E1C0
E1C0
E1C0
E1C0
E1C0
E1C0
F1C0
7FC0
7FC0
3FC0
01C0
01C0
01C0
01C0
01C0
ENDCHAR
STARTCHAR 0428
ENCODING 1064
SWIDTH 480 0
DWIDTH 12 0
BBX 11 15 1 0
BITMAP
C0E0
C0E0
C0E0
C0E0
C0E0
CCE0
CCE0
CCE0
CCE0
CCE0
CCE0
CCE0
FFE0
FFE0
FFE0
ENDCHAR
STARTCHAR 0429
ENCODING 1065
SWIDTH 480 0
DWIDTH 12 0
BBX 11 19 1 -4
BITMAP
C0C0
C0C0
C0C0
C0C0
C0C0
CCC0
CCC0
CCC0
CCC0
CCC0
CCC0
CCC0
FFE0
FFE0
FFE0
0060
0060
0060
0060
ENDCHAR
STARTCHAR 042A
ENCODING 1066
SWIDTH 480 0
DWIDTH 12 0
BBX 12 15 0 0
BITMAP
FC00
FC00
3C00
3C00
3C00
3F80
3FE0
3DE0
3CF0
3C70
3CF0
3CF0
3FE0
3FE0
3F80
ENDCHAR
STARTCHAR 042B
ENCODING 1067
SWIDTH 480 0
DWIDTH 12 0
BBX 11 15 1 0
BITMAP
C0E0
C0E0
C0E0
C0E0
C0E0
FCE0
FEE0
CEE0
C6E0
C6E0
C6E0
C6E0
CEE0
FCE0
FCE0
ENDCHAR
STARTCHAR 042C
ENCODING 1068
SWIDTH 480 0
DWIDTH 12 0
BBX 11 15 1 0
BITMAP
E000
E000
E000
E000
E000
FF00
FFC0
E7C0
E1E0
E0E0
E1E0
E1E0
FFC0
FF80
FF00
ENDCHAR
STARTCHAR 042D
ENCODING 1069
SWIDTH 480 0
DWIDTH 12 0
BBX 11 16 1 0
BITMAP
3C00
FF00
7F80
43C0
01E0
00E0
00E0
1FE0
1FE0
1FE0
00E0
01E0
01C0
67C0
FF80
FF00
ENDCHAR
STARTCHAR 042E
ENCODING 1070
SWIDTH 480 0
DWIDTH 12 0
BBX 11 16 1 0
BITMAP
0380
C7C0
CFC0
CCE0
CCE0
CCE0
CCE0
FCE0
FCE0
CCE0
CCE0
CCE0
CCE0
CEC0
CFC0
C7C0
ENDCHAR
STARTCHAR 042F
ENCODING 1071
SWIDTH 480 0
DWIDTH 12 0
BBX 10 16 1 0
BITMAP
0780
3FC0
7FC0
79C0
71C0
71C0
71C0
79C0
7FC0
1FC0
3DC0
39C0
71C0
71C0
E1C0
E1C0
ENDCHAR
STARTCHAR 0430
ENCODING 1072
SWIDTH 480 0
DWIDTH 12 0
BBX 10 12 1 0
BITMAP
7F00
7F80
3FC0
01C0
01C0
3FC0
7FC0
E1C0
E1C0
F1C0
7FC0
3FC0
ENDCHAR
STARTCHAR 0431
ENCODING 1073
SWIDTH 480 0
DWIDTH 12 0
BBX 11 17 1 0
BITMAP
03C0
1FC0
3FC0
7800
7000
7000
FF80
FFC0
FBC0
E1C0
E1C0
E1E0
F1C0
F1C0
7BC0
7F80
3F00
ENDCHAR
STARTCHAR 0432
ENCODING 1074
SWIDTH 480 0
DWIDTH 12 0
BBX 10 12 2 0
BITMAP
FE00
FF00
FF80
E380
E380
FF00
FF80
E380
E3C0
E780
FF80
FF00
ENDCHAR
STARTCHAR 0433
ENCODING 1075
SWIDTH 480 0
DWIDTH 12 0
BBX 9 12 2 0
BITMAP
FF80
FF80
FF80
E000
E000
E000
E000
E000
E000
E000
E000
E000
ENDCHAR
STARTCHAR 0434
ENCODING 1076
SWIDTH 480 0
DWIDTH 12 0
BBX 11 15 1 -3
BITMAP
3FC0
3FC0
3FC0
39C0
39C0
39C0
31C0
71C0
71C0
FFE0
FFE0
FFE0
C0E0
C0E0
C0E0
ENDCHAR
STARTCHAR 0435
ENCODING 1077
SWIDTH 480 0
DWIDTH 12 0
BBX 11 12 1 0
BITMAP
1F00
3F80
7FC0
E1C0
E0E0
FFE0
FFE0
E000
E000
7DC0
7FC0
1FC0
ENDCHAR
STARTCHAR 0436
ENCODING 1078
SWIDTH 480 0
DWIDTH 12 0
BBX 12 12 0 0
BITMAP
E670
6670
7660
36E0
1EC0
1F80
1FC0
3EC0
36E0
7660
6670
6670
ENDCHAR
STARTCHAR 0437
ENCODING 1079
SWIDTH 480 0
DWIDTH 12 0
BBX 10 12 1 0
BITMAP
7F00
7F80
7F80
01C0
0380
3F00
3F80
03C0
01C0
67C0
FF80
FF00
ENDCHAR
STARTCHAR 0438
ENCODING 1080
SWIDTH 480 0
DWIDTH 12 0
BBX 9 12 2 0
BITMAP
C380
C380
C780
CF80
CF80
DF80
DB80
F380
F380
E380
E380
C380
ENDCHAR
STARTCHAR 0439
ENCODING 1081
SWIDTH 480 0
DWIDTH 12 0
BBX 9 17 2 0
BITMAP
E300
7F00
7E00
1800
0000
C380
C380
C780
CF80
CF80
DF80
DB80
F380
F380
E380
E380
C380
ENDCHAR
STARTCHAR 043A
ENCODING 1082
SWIDTH 480 0
DWIDTH 12 0
BBX 10 12 2 0
BITMAP
E3C0
E780
EF00
EE00
FC00
F800
FC00
EE00
EF00
E780
E380
E3C0
ENDCHAR
STARTCHAR 043B
ENCODING 1083
SWIDTH 480 0
DWIDTH 12 0
BBX 10 12 1 0
BITMAP
3FC0
3FC0
3FC0
39C0
39C0
39C0
39C0
39C0
71C0
F1C0
E1C0
C1C0
ENDCHAR
STARTCHAR 043C
ENCODING 1084
SWIDTH 480 0
DWIDTH 12 0
BBX 11 12 1 0
BITMAP
E1C0
E1C0
F1C0
F3C0
DBC0
DBE0
DEE0
DEE0
CEE0
CCE0
C0E0
C0E0
ENDCHAR
STARTCHAR 043D
ENCODING 1085
SWIDTH 480 0
DWIDTH 12 0
BBX 10 12 1 0
BITMAP
F1C0
F1C0
F1C0
F1C0
F1C0
FFC0
FFC0
F1C0
F1C0
F1C0
F1C0
F1C0
ENDCHAR
STARTCHAR 043E
ENCODING 1086
SWIDTH 480 0
DWIDTH 12 0
BBX 11 12 1 0
BITMAP
1F00
7F80
7FC0
F1C0
E1E0
E0E0
E0E0
E1E0
E1C0
FBC0
7F80
3F00
ENDCHAR
STARTCHAR 043F
ENCODING 1087
SWIDTH 480 0
DWIDTH 12 0
BBX 9 12 2 0
BITMAP
FF80
FF80
FF80
E380
E380
E380
E380
E380
E380
E380
E380
E380
ENDCHAR
STARTCHAR 0440
ENCODING 1088
SWIDTH 480 0
DWIDTH 12 0
BBX 10 16 2 -4
BITMAP
FE00
FF00
FF80
E380
E3C0
E1C0
E1C0
E3C0
E380
F780
FF80
FF00
E000
E000
E000
E000
ENDCHAR
STARTCHAR 0441
ENCODING 1089
SWIDTH 480 0
DWIDTH 12 0
BBX 11 12 1 0
BITMAP
0FC0
3FC0
7FC0
7000
F000
E000
E000
E000
F000
7C40
3FC0
1FE0
ENDCHAR
STARTCHAR 0442
ENCODING 1090
SWIDTH 480 0
DWIDTH 12 0
BBX 11 12 1 0
BITMAP
FFE0
FFE0
FFE0
0E00
0E00
0E00
0E00
0E00
0E00
0E00
0E00
0E00
ENDCHAR
STARTCHAR 0443
ENCODING 1091
SWIDTH 480 0
DWIDTH 12 0
BBX 11 16 1 -4
BITMAP
E0E0
E1C0
71C0
71C0
71C0
3B80
3B80
3B80
1F00
1F00
0F00
0E00
0E00
BC00
FC00
F800
ENDCHAR
STARTCHAR 0444
ENCODING 1092
SWIDTH 480 0
DWIDTH 12 0
BBX 11 21 1 -4
BITMAP
0C00
0C00
0C00
0C00
0C00
1E00
7F80
FFC0
ECC0
CCE0
CCE0
CCE0
CCE0
CCE0
EDC0
7FC0
3F00
0C00
0C00
0C00
0C00
ENDCHAR
STARTCHAR 0445
ENCODING 1093
SWIDTH 480 0
DWIDTH 12 0
BBX 11 12 1 0
BITMAP
E0E0
F1C0
7380
3B80
1F00
1E00
1F00
3F00
3B80
73C0
E1C0
E0E0
ENDCHAR
STARTCHAR 0446
ENCODING 1094
SWIDTH 480 0
DWIDTH 12 0
BBX 9 15 2 -3
BITMAP
E780
E780
E780
E780
E780
E780
E780
E780
E780
FF80
FF80
FF80
0180
0180
0180
ENDCHAR
STARTCHAR 0447
ENCODING 1095
SWIDTH 480 0
DWIDTH 12 0
BBX 10 12 1 0
BITMAP
E1C0
E1C0
E1C0
E1C0
E1C0
FBC0
7FC0
3FC0
01C0
01C0
01C0
01C0
ENDCHAR
STARTCHAR 0448
ENCODING 1096
SWIDTH 480 0
DWIDTH 12 0
BBX 11 12 1 0
BITMAP
C0E0
C0E0
C0E0
CCE0
CCE0
CCE0
CCE0
CCE0
CCE0
FFE0
FFE0
FFE0
ENDCHAR
STARTCHAR 0449
ENCODING 1097
SWIDTH 480 0
DWIDTH 12 0
BBX 11 15 1 -3
BITMAP
C0C0
C0C0
C0C0
CCC0
CCC0
CCC0
CCC0
CCC0
CCC0
FFE0
FFE0
FFE0
0060
0060
0060
ENDCHAR
STARTCHAR 044A
ENCODING 1098
SWIDTH 480 0
DWIDTH 12 0
BBX 12 12 0 0
BITMAP
FC00
FC00
FC00
3C00
3F80
3FE0
3FE0
3CF0
3C70
3CF0
3FE0
3FC0
ENDCHAR
STARTCHAR 044B
ENCODING 1099
SWIDTH 480 0
DWIDTH 12 0
BBX 11 12 1 0
BITMAP
C0E0
C0E0
C0E0
C0E0
F8E0
FCE0
FEE0
C6E0
C6E0
CEE0
FEE0
FCE0
ENDCHAR
STARTCHAR 044C
ENCODING 1100
SWIDTH 480 0
DWIDTH 12 0
BBX 11 12 1 0
BITMAP
E000
E000
E000
E000
FF00
FFC0
FFC0
E1E0
E0E0
E3E0
FFC0
FF80
ENDCHAR
STARTCHAR 044D
ENCODING 1101
SWIDTH 480 0
DWIDTH 12 0
BBX 10 12 1 0
BITMAP
FE00
FF80
FF80
03C0
01C0
3FC0
3FC0
01C0
01C0
EFC0
FF80
FE00
ENDCHAR
STARTCHAR 044E
ENCODING 1102
SWIDTH 480 0
DWIDTH 12 0
BBX 11 12 1 0
BITMAP
C780
CFC0
CFE0
CCE0
DC60
FC60
FC60
DC60
CCE0
CEE0
CFC0
C780
ENDCHAR
STARTCHAR 044F
ENCODING 1103
SWIDTH 480 0
DWIDTH 12 0
BBX 10 12 1 0
BITMAP
1FC0
7FC0
7FC0
E1C0
E1C0
7FC0
7FC0
3FC0
79C0
71C0
E1C0
E1C0
ENDCHAR
STARTCHAR 0450
ENCODING 1104
SWIDTH 480 0
DWIDTH 12 0
BBX 11 17 1 0
BITMAP
1800
1C00
1F00
0600
0000
1F00
3F80
7FC0
E1C0
E0E0
FFE0
FFE0
E000
E000
7DC0
7FC0
1FC0
ENDCHAR
STARTCHAR 0451
ENCODING 1105
SWIDTH 480 0
DWIDTH 12 0
BBX 11 17 1 0
BITMAP
3180
7380
7380
0000
0000
1F00
3F80
7FC0
E1C0
E0E0
FFE0
FFE0
E000
E000
7DC0
7FC0
1FC0
ENDCHAR
STARTCHAR 0452
ENCODING 1106
SWIDTH 480 0
DWIDTH 12 0
BBX 10 21 1 -4
BITMAP
7000
7000
FE00
FE00
7000
7F00
7F80
7FC0
71C0
71C0
71C0
71C0
71C0
71C0
71C0
71C0
71C0
01C0
0FC0
0F80
0F00
ENDCHAR
STARTCHAR 0453
ENCODING 1107
SWIDTH 480 0
DWIDTH 12 0
BBX 9 17 2 0
BITMAP
0600
0F00
1E00
1800
0000
FF80
FF80
FF80
E000
E000
E000
E000
E000
E000
E000
E000
E000
ENDCHAR
STARTCHAR 0454
ENCODING 1108
SWIDTH 480 0
DWIDTH 12 0
BBX 11 12 1 0
BITMAP
0FC0
3FC0
7FC0
F000
E000
FF00
FF00
E000
F000
7C40
3FE0
1FE0
ENDCHAR
STARTCHAR 0455
ENCODING 1109
SWIDTH 480 0
DWIDTH 12 0
BBX 10 12 1 0
BITMAP
1F80
7F80
7F80
7000
7800
7F00
3F80
07C0
01C0
73C0
FFC0
7F00
ENDCHAR
STARTCHAR 0456
ENCODING 1110
SWIDTH 480 0
DWIDTH 12 0
BBX 11 17 1 0
BITMAP
1C00
3C00
3C00
1800
0000
FC00
FC00
FC00
1C00
1C00
1C00
1C00
1C00
1C00
1E40
0FE0
07E0
ENDCHAR
STARTCHAR 0457
ENCODING 1111
SWIDTH 480 0
DWIDTH 12 0
BBX 11 17 1 0
BITMAP
6300
7380
7380
2100
0000
FC00
FC00
FC00
1C00
1C00
1C00
1C00
1C00
1C00
1E40
0FE0
07E0
ENDCHAR
STARTCHAR 0458
ENCODING 1112
SWIDTH 480 0
DWIDTH 12 0
BBX 9 21 1 -4
BITMAP
0700
0780
0780
0300
0000
7F80
7F80
7F80
0380
0380
0380
0380
0380
0380
0380
0380
0380
0380
7F80
FF00
7E00
ENDCHAR
STARTCHAR 0459
ENCODING 1113
SWIDTH 480 0
DWIDTH 12 0
BBX 12 12 0 0
BITMAP
3F00
3F00
3700
3700
3780
37E0
37F0
3770
3730
7770
E7F0
E7E0
ENDCHAR
STARTCHAR 045A
ENCODING 1114
SWIDTH 480 0
DWIDTH 12 0
BBX 11 12 1 0
BITMAP
CE00
CE00
CE00
CE00
CF00
FFC0
FFE0
CEE0
CE60
CEE0
CFE0
CFC0
ENDCHAR
STARTCHAR 045B
ENCODING 1115
SWIDTH 480 0
DWIDTH 12 0
BBX 10 17 1 0
BITMAP
7000
7000
FE00
FE00
7000
7F00
7F80
7FC0
71C0
71C0
71C0
71C0
71C0
71C0
71C0
71C0
71C0
ENDCHAR
STARTCHAR 045C
ENCODING 1116
SWIDTH 480 0
DWIDTH 12 0
BBX 10 17 2 0
BITMAP
0600
1E00
3E00
1800
0000
E3C0
E780
EF00
EE00
FC00
F800
FC00
EE00
EF00
E780
E380
E3C0
ENDCHAR
STARTCHAR 045D
ENCODING 1117
SWIDTH 480 0
DWIDTH 12 0
BBX 9 17 2 0
BITMAP
3000
3800
3E00
0C00
0000
C380
C380
C780
CF80
CF80
DF80
DB80
F380
F380
E380
E380
C380
ENDCHAR
STARTCHAR 045E
ENCODING 1118
SWIDTH 480 0
DWIDTH 12 0
BBX 11 21 1 -4
BITMAP
7180
3F80
3F00
0C00
0000
E0E0
E1C0
71C0
71C0
71C0
3B80
3B80
3B80
1F00
1F00
0F00
0E00
0E00
BC00
FC00
F800
ENDCHAR
STARTCHAR 045F
ENCODING 1119
SWIDTH 480 0
DWIDTH 12 0
BBX 9 15 2 -3
BITMAP
E380
E380
E380
E380
E380
E380
E380
E380
E380
FF80
FF80
FF80
1C00
1C00
1C00
ENDCHAR
STARTCHAR 0462
ENCODING 1122
SWIDTH 480 0
DWIDTH 12 0
BBX 12 16 0 0
BITMAP
3800
FF80
FF80
FF80
3800
3800
3F80
3FE0
3BE0
38F0
3870
3870
38F0
3FE0
3FE0
3F80
ENDCHAR
STARTCHAR 0463
ENCODING 1123
SWIDTH 480 0
DWIDTH 12 0
BBX 12 17 0 0
BITMAP
3800
3800
3800
3800
3800
FF80
FF80
FF80
3800
3F80
3FE0
3FE0
38F0
3870
38F0
3FE0
3FC0
ENDCHAR
STARTCHAR 0472
ENCODING 1138
SWIDTH 480 0
DWIDTH 12 0
BBX 11 16 1 0
BITMAP
1E00
3F80
7FC0
F1C0
E1C0
E0E0
E0E0
FFE0
FFE0
E7E0
E0E0
E1E0
E1C0
7BC0
7F80
3F00
ENDCHAR
STARTCHAR 0473
ENCODING 1139
SWIDTH 480 0
DWIDTH 12 0
BBX 11 12 1 0
BITMAP
1F00
7F80
7FC0
F1C0
E1E0
FDE0
EFE0
E1E0
E1C0
F3C0
7F80
3F00
ENDCHAR
STARTCHAR 0474
ENCODING 1140
SWIDTH 480 0
DWIDTH 12 0
BBX 13 16 0 0
BITMAP
0070
E0F8
F0F0
71C0
71C0
71C0
71C0
3180
3B80
3B80
3B80
1B00
1B00
1F00
1F00
0E00
ENDCHAR
STARTCHAR 0475
ENCODING 1141
SWIDTH 480 0
DWIDTH 12 0
BBX 13 12 0 0
BITMAP
F078
70F8
71F0
71C0
39C0
3B80
3B80
1B80
1F00
1F00
0F00
0E00
ENDCHAR
STARTCHAR 048A
ENCODING 1162
SWIDTH 480 0
DWIDTH 12 0
BBX 11 25 1 -4
BITMAP
1000
7380
3F80
1F00
0000
0000
E1C0
E1C0
E3C0
E3C0
E7C0
E6C0
EEC0
ECC0
FCC0
F8C0
F8C0
F0C0
F0E0
E0E0
E0E0
00E0
00C0
01C0
0180
ENDCHAR
STARTCHAR 048B
ENCODING 1163
SWIDTH 480 0
DWIDTH 12 0
BBX 10 20 2 -4
BITMAP
E300
7F00
7E00
1800
0000
C380
C380
C780
CF80
CF80
DF80
DB80
F380
F380
E3C0
E3C0
C3C0
0180
0380
0700
ENDCHAR
STARTCHAR 048C
ENCODING 1164
SWIDTH 480 0
DWIDTH 12 0
BBX 12 15 0 0
BITMAP
3800
FE00
FE00
3800
3800
3F80
3FC0
3FE0
38F0
38F0
3870
38F0
3FE0
3FE0
3F80
ENDCHAR
STARTCHAR 048D
ENCODING 1165
SWIDTH 480 0
DWIDTH 12 0
BBX 12 12 0 0
BITMAP
3800
FF00
FF00
3800
3F80
3FE0
3FE0
38F0
3870
38F0
3FE0
3FC0
ENDCHAR
STARTCHAR 048E
ENCODING 1166
SWIDTH 480 0
DWIDTH 12 0
BBX 11 16 1 0
BITMAP
3C00
FF80
FFC0
E1E0
E0E0
E2E0
E6E0
E7E0
FFC0
FF80
FFC0
E0C0
E0C0
E000
E000
E000
ENDCHAR
STARTCHAR 048F
ENCODING 1167
SWIDTH 480 0
DWIDTH 12 0
BBX 10 16 2 -4
BITMAP
FE00
FF00
FF80
E380
E3C0
E1C0
E1C0
EDC0
EF80
EF80
FF80
FF00
E380
E180
E000
E000
ENDCHAR
STARTCHAR 0490
ENCODING 1168
SWIDTH 480 0
DWIDTH 12 0
BBX 11 18 1 0
BITMAP
00E0
00E0
00E0
3FE0
3FE0
3800
3800
3800
3800
3800
3800
3800
3800
3800
3800
FF80
FF80
FF80
ENDCHAR
STARTCHAR 0491
ENCODING 1169
SWIDTH 480 0
DWIDTH 12 0
BBX 9 15 2 0
BITMAP
0380
0380
0380
FF80
FF80
FF80
E000
E000
E000
E000
E000
E000
E000
E000
E000
ENDCHAR
STARTCHAR 0492
ENCODING 1170
SWIDTH 480 0
DWIDTH 12 0
BBX 11 15 1 0
BITMAP
3FE0
3FE0
3800
3800
3800
3800
FF80
FF80
3800
3800
3800
3800
FF80
FF80
FF80
ENDCHAR
STARTCHAR 0493
ENCODING 1171
SWIDTH 480 0
DWIDTH 12 0
BBX 11 12 0 0
BITMAP
3FE0
3FE0
3FE0
3800
3800
3800
FF00
FF00
3800
3800
3800
3800
ENDCHAR
STARTCHAR 0494
ENCODING 1172
SWIDTH 480 0
DWIDTH 12 0
BBX 11 19 1 -4
BITMAP
FFC0
FFC0
E000
E000
E000
FE00
FF80
FFC0
E1C0
E0E0
E0E0
E0E0
E0E0
E0E0
E0E0
01C0
07C0
1F80
1F00
ENDCHAR
STARTCHAR 0495
ENCODING 1173
SWIDTH 480 0
DWIDTH 12 0
BBX 10 16 2 -4
BITMAP
FF00
FF00
FF00
E000
E000
FE00
FF00
E780
E380
E1C0
E1C0
E1C0
0380
0780
1F80
1E00
ENDCHAR
STARTCHAR 0496
ENCODING 1174
SWIDTH 480 0
DWIDTH 12 0
BBX 12 19 0 -4
BITMAP
6670
6670
7660
36E0
3EC0
1EC0
1F80
1F80
3EC0
36E0
3660
7660
6670
6670
E630
0030
0030
0030
0030
ENDCHAR
STARTCHAR 0497
ENCODING 1175
SWIDTH 480 0
DWIDTH 12 0
BBX 12 15 0 -3
BITMAP
E670
6670
7660
36E0
1EC0
1F80
1FC0
3EC0
36E0
7670
6670
6670
0030
0030
0030
ENDCHAR
STARTCHAR 0498
ENCODING 1176
SWIDTH 480 0
DWIDTH 12 0
BBX 11 20 1 -4
BITMAP
3E00
FF80
7FC0
41C0
01C0
01C0
03C0
3F80
3FC0
03C0
00E0
00E0
00E0
E3E0
FFC0
FF80
0C00
0600
0700
1E00
ENDCHAR
STARTCHAR 0499
ENCODING 1177
SWIDTH 480 0
DWIDTH 12 0
BBX 10 16 1 -4
BITMAP
7F00
7F80
7F80
01C0
0380
3F00
3F80
03C0
01C0
67C0
FF80
FF00
0C00
0600
0600
3E00
ENDCHAR
STARTCHAR 049A
ENCODING 1178
SWIDTH 480 0
DWIDTH 12 0
BBX 11 19 1 -4
BITMAP
E3C0
E380
E780
E700
EE00
EE00
FC00
FE00
EE00
EF00
E780
E380
E3E0
E1E0
E1E0
00E0
00E0
00E0
00E0
ENDCHAR
STARTCHAR 049B
ENCODING 1179
SWIDTH 480 0
DWIDTH 12 0
BBX 9 15 2 -3
BITMAP
E780
E700
EE00
EE00
FC00
F800
FC00
FE00
EE00
E780
E780
E380
0180
0180
0180
ENDCHAR
STARTCHAR 049C
ENCODING 1180
SWIDTH 480 0
DWIDTH 12 0
BBX 11 15 1 0
BITMAP
E0E0
E1C0
F9C0
FB80
FB80
FF00
FF00
FF00
FF00
FB80
FB80
E1C0
E1C0
E0E0
E0E0
ENDCHAR
STARTCHAR 049D
ENCODING 1181
SWIDTH 480 0
DWIDTH 12 0
BBX 11 12 1 0
BITMAP
E0E0
E1C0
E9C0
EB80
EF00
FF00
EF00
EB80
E9C0
E1C0
E0E0
E0E0
ENDCHAR
STARTCHAR 049E
ENCODING 1182
SWIDTH 480 0
DWIDTH 12 0
BBX 11 16 1 0
BITMAP
7000
F9E0
F9C0
73C0
7380
7700
7700
7E00
7E00
7700
7780
7380
71C0
71C0
71E0
70E0
ENDCHAR
STARTCHAR 049F
ENCODING 1183
SWIDTH 480 0
DWIDTH 12 0
BBX 12 13 0 0
BITMAP
3800
FCF0
FDE0
39C0
3B80
3F00
3E00
3F00
3B80
3BC0
39E0
38E0
38F0
ENDCHAR
STARTCHAR 04A0
ENCODING 1184
SWIDTH 480 0
DWIDTH 12 0
BBX 12 15 0 0
BITMAP
FCF0
FCE0
1DE0
1DC0
1FC0
1F80
1F00
1F80
1F80
1DC0
1DC0
1CE0
1CE0
1CF0
1C70
ENDCHAR
STARTCHAR 04A1
ENCODING 1185
SWIDTH 480 0
DWIDTH 12 0
BBX 12 12 0 0
BITMAP
F8F0
F9E0
F9C0
3B80
3B80
3F00
3F80
3BC0
39C0
39E0
38E0
38F0
ENDCHAR
STARTCHAR 04A2
ENCODING 1186
SWIDTH 480 0
DWIDTH 12 0
BBX 11 19 1 -4
BITMAP
E1C0
E1C0
E1C0
E1C0
E1C0
E1C0
FFC0
FFC0
E1C0
E1C0
E1C0
E1C0
E1E0
E1E0
E1E0
00E0
00E0
00E0
00E0
ENDCHAR
STARTCHAR 04A3
ENCODING 1187
SWIDTH 480 0
DWIDTH 12 0
BBX 11 15 1 -3
BITMAP
F1C0
F1C0
F1C0
F1C0
F1C0
FFC0
FFC0
F1C0
F1C0
F1E0
F1E0
F1E0
00E0
00E0
00E0
ENDCHAR
STARTCHAR 04A4
ENCODING 1188
SWIDTH 480 0
DWIDTH 12 0
BBX 11 15 1 0
BITMAP
E3E0
E3E0
E380
E380
E380
E380
FF80
FF80
E380
E380
E380
E380
E380
E380
E380
ENDCHAR
STARTCHAR 04A5
ENCODING 1189
SWIDTH 480 0
DWIDTH 12 0
BBX 11 12 1 0
BITMAP
F3E0
F3E0
F3E0
F380
F380
FF80
FF80
F380
F380
F380
F380
F380
ENDCHAR
STARTCHAR 04A6
ENCODING 1190
SWIDTH 480 0
DWIDTH 12 0
BBX 11 19 1 -4
BITMAP
FC00
FC00
CC00
CC00
CC00
CF80
CFC0
CDC0
CCE0
CCE0
CCE0
CC60
CC60
CCE0
CCE0
00E0
00C0
03C0
0380
ENDCHAR
STARTCHAR 04A7
ENCODING 1191
SWIDTH 480 0
DWIDTH 12 0
BBX 11 16 1 -4
BITMAP
FC00
FC00
FC00
CC00
CC00
CF80
CFC0
CCE0
CCE0
CCE0
CC60
CCE0
00E0
00E0
03C0
0380
ENDCHAR
STARTCHAR 04A8
ENCODING 1192
SWIDTH 480 0
DWIDTH 12 0
BBX 12 20 0 -4
BITMAP
07C0
1FE0
3FC0
7800
7000
71E0
73E0
E770
E770
E630
6630
7670
7670
3EE0
3FE0
0F80
0380
03E0
01E0
0060
ENDCHAR
STARTCHAR 04A9
ENCODING 1193
SWIDTH 480 0
DWIDTH 12 0
BBX 12 15 0 -3
BITMAP
0FC0
3F80
7F80
7000
71E0
E3F0
E770
6630
7670
7E70
3FE0
1FC0
03E0
01F0
00F0
ENDCHAR
STARTCHAR 04AA
ENCODING 1194
SWIDTH 480 0
DWIDTH 12 0
BBX 11 20 1 -4
BITMAP
0F80
1FE0
7FC0
7840
F000
E000
E000
E000
E000
E000
E000
E000
F000
7CC0
3FC0
1FC0
0E00
0700
1700
1E00
ENDCHAR
STARTCHAR 04AB
ENCODING 1195
SWIDTH 480 0
DWIDTH 12 0
BBX 11 16 1 -4
BITMAP
0FC0
3FC0
7FC0
7000
F000
E000
E000
E000
F000
7C40
3FC0
1FE0
0E00
0700
1700
1E00
ENDCHAR
STARTCHAR 04AC
ENCODING 1196
SWIDTH 480 0
DWIDTH 12 0
BBX 11 19 1 -4
BITMAP
FFE0
FFE0
0E00
0E00
0E00
0E00
0E00
0E00
0E00
0E00
0E00
0E00
0F80
0F80
0F80
0380
0380
0380
0380
ENDCHAR
STARTCHAR 04AD
ENCODING 1197
SWIDTH 480 0
DWIDTH 12 0
BBX 11 15 1 -3
BITMAP
FFE0
FFE0
FFE0
0E00
0E00
0E00
0E00
0E00
0E00
0F80
0F80
0F80
0380
0380
0380
ENDCHAR
STARTCHAR 04AE
ENCODING 1198
SWIDTH 480 0
DWIDTH 12 0
BBX 11 15 1 0
BITMAP
E0E0
E1C0
F1C0
71C0
7380
3B80
3F00
1F00
1E00
0E00
0E00
0E00
0E00
0E00
0E00
ENDCHAR
STARTCHAR 04AF
ENCODING 1199
SWIDTH 480 0
DWIDTH 12 0
BBX 12 16 0 -4
BITMAP
F070
7070
70E0
70E0
38E0
39C0
39C0
1FC0
1F80
0F80
0F00
0700
0700
0700
0700
0700
ENDCHAR
STARTCHAR 04B0
ENCODING 1200
SWIDTH 480 0
DWIDTH 12 0
BBX 11 15 1 0
BITMAP
E0E0
E1C0
F1C0
71C0
7380
3B80
3F00
1F00
1E00
7FC0
7FC0
0E00
0E00
0E00
0E00
ENDCHAR
STARTCHAR 04B1
ENCODING 1201
SWIDTH 480 0
DWIDTH 12 0
BBX 12 16 0 -4
BITMAP
F070
7070
70E0
70E0
38E0
39C0
39C0
1FC0
1F80
0F80
3FC0
3FC0
0700
0700
0700
0700
ENDCHAR
STARTCHAR 04B2
ENCODING 1202
SWIDTH 480 0
DWIDTH 12 0
BBX 12 19 0 -4
BITMAP
70E0
39E0
39C0
1F80
1F80
0F00
0F00
0F00
1F80
1F80
39C0
39C0
79F0
70F0
F0F0
0070
0070
0070
0070
ENDCHAR
STARTCHAR 04B3
ENCODING 1203
SWIDTH 480 0
DWIDTH 12 0
BBX 10 15 1 -3
BITMAP
E1C0
F1C0
7380
3F00
3F00
1E00
1E00
3F00
3F80
73C0
E1C0
E1C0
00C0
00C0
00C0
ENDCHAR
STARTCHAR 04B4
ENCODING 1204
SWIDTH 480 0
DWIDTH 12 0
BBX 12 20 0 -4
BITMAP
FEE0
FEE0
FEE0
38E0
38E0
38E0
38E0
38E0
38E0
38E0
38E0
38E0
38E0
3FF0
3FF0
3FF0
0070
0070
0070
0070
ENDCHAR
STARTCHAR 04B5
ENCODING 1205
SWIDTH 480 0
DWIDTH 12 0
BBX 12 15 0 -3
BITMAP
FEE0
FEE0
FEE0
38E0
38E0
38E0
38E0
38E0
38E0
3FF0
3FF0
3FF0
0070
0070
0070
ENDCHAR
STARTCHAR 04B6
ENCODING 1206
SWIDTH 480 0
DWIDTH 12 0
BBX 11 19 1 -4
BITMAP
E1C0
E1C0
E1C0
E1C0
E1C0
E1C0
F1C0
7FC0
7FC0
3FC0
01C0
01C0
01E0
01E0
01E0
00E0
00E0
00E0
00E0
ENDCHAR
STARTCHAR 04B7
ENCODING 1207
SWIDTH 480 0
DWIDTH 12 0
BBX 10 15 1 -3
BITMAP
E3C0
E3C0
E3C0
E3C0
E3C0
FBC0
7FC0
7FC0
03C0
03C0
03C0
03C0
00C0
00C0
00C0
ENDCHAR
STARTCHAR 04B8
ENCODING 1208
SWIDTH 480 0
DWIDTH 12 0
BBX 10 15 1 0
BITMAP
E1C0
E1C0
E1C0
E1C0
EDC0
EDC0
EDC0
FFC0
7FC0
3FC0
0DC0
0DC0
0DC0
01C0
01C0
ENDCHAR
STARTCHAR 04B9
ENCODING 1209
SWIDTH 480 0
DWIDTH 12 0
BBX 10 12 1 0
BITMAP
E1C0
E1C0
E1C0
E1C0
EDC0
FDC0
7FC0
3FC0
0DC0
0DC0
01C0
01C0
ENDCHAR
STARTCHAR 04BA
ENCODING 1210
SWIDTH 480 0
DWIDTH 12 0
BBX 11 15 1 0
BITMAP
E000
E000
E000
E000
E000
FF80
FFC0
E3C0
E1C0
E1E0
E0E0
E0E0
E0E0
E0E0
E0E0
ENDCHAR
STARTCHAR 04BB
ENCODING 1211
SWIDTH 480 0
DWIDTH 12 0
BBX 9 17 2 0
BITMAP
E000
E000
E000
E000
E000
FE00
FF00
FF80
E380
E380
E380
E380
E380
E380
E380
E380
E380
ENDCHAR
STARTCHAR 04BC
ENCODING 1212
SWIDTH 480 0
DWIDTH 12 0
BBX 12 16 0 0
BITMAP
0380
07E0
07E0
0E70
CE70
CC70
EC70
7FF0
3FF0
0C00
0C00
0E00
0E00
0700
07F0
03F0
ENDCHAR
STARTCHAR 04BD
ENCODING 1213
SWIDTH 480 0
DWIDTH 12 0
BBX 12 12 0 0
BITMAP
03C0
07E0
EEE0
EC60
EC70
7FF0
3FF0
1C00
0C00
0E20
0FE0
07E0
ENDCHAR
STARTCHAR 04BE
ENCODING 1214
SWIDTH 480 0
DWIDTH 12 0
BBX 12 19 0 -3
BITMAP
0380
07E0
07E0
0E70
CE70
CC70
EC70
7FF0
3FF0
0C00
0C00
0E00
0E00
0700
07F0
03F0
01C0
01C0
01C0
ENDCHAR
STARTCHAR 04BF
ENCODING 1215
SWIDTH 480 0
DWIDTH 12 0
BBX 12 15 0 -3
BITMAP
03C0
07E0
EEE0
EC60
EC70
7FF0
3FF0
1C00
0C00
0E20
0FE0
03E0
0180
0180
0180
ENDCHAR
STARTCHAR 04C0
ENCODING 1216
SWIDTH 480 0
DWIDTH 12 0
BBX 10 15 1 0
BITMAP
FFC0
FFC0
0E00
0E00
0E00
0E00
0E00
0E00
0E00
0E00
0E00
0E00
FFC0
FFC0
FFC0
ENDCHAR
STARTCHAR 04C1
ENCODING 1217
SWIDTH 480 0
DWIDTH 12 0
BBX 12 21 0 0
BITMAP
0800
39C0
1FC0
0F80
0000
0000
6670
6670
7660
36E0
3EC0
1EC0
1F80
1F80
3EC0
36E0
3660
7660
6670
6670
E630
ENDCHAR
STARTCHAR 04C2
ENCODING 1218
SWIDTH 480 0
DWIDTH 12 0
BBX 12 17 0 0
BITMAP
38C0
1FC0
1F80
0600
0000
E670
6670
7660
36E0
1EC0
1F80
1FC0
3EC0
36E0
7660
6670
6670
ENDCHAR
STARTCHAR 04C3
ENCODING 1219
SWIDTH 480 0
DWIDTH 12 0
BBX 11 19 1 -4
BITMAP
E1E0
E3C0
E380
E700
EE00
FE00
FF00
FF80
FFC0
E1C0
E0E0
E0E0
E0E0
E0E0
E0E0
01E0
07C0
0F80
0F00
ENDCHAR
STARTCHAR 04C4
ENCODING 1220
SWIDTH 480 0
DWIDTH 12 0
BBX 10 16 2 -4
BITMAP
E3C0
E780
EF00
EE00
FC00
FE00
FF80
E780
E3C0
E1C0
E1C0
E1C0
0380
0F80
1F80
1E00
ENDCHAR
STARTCHAR 04C5
ENCODING 1221
SWIDTH 480 0
DWIDTH 12 0
BBX 12 19 0 -4
BITMAP
0FE0
0FE0
0CE0
0CE0
0CE0
1CE0
1CE0
1CE0
1CE0
1CE0
1CE0
38E0
78F0
F0F0
E0F0
0060
00E0
01C0
00C0
ENDCHAR
STARTCHAR 04C6
ENCODING 1222
SWIDTH 480 0
DWIDTH 12 0
BBX 11 15 1 -4
BITMAP
3FC0
3FC0
3FC0
39C0
39C0
39C0
39C0
39C0
71C0
F1E0
E1E0
C1E0
00C0
01C0
0380
ENDCHAR
STARTCHAR 04C7
ENCODING 1223
SWIDTH 480 0
DWIDTH 12 0
BBX 10 19 1 -4
BITMAP
E1C0
E1C0
E1C0
E1C0
E1C0
E1C0
FFC0
FFC0
E1C0
E1C0
E1C0
E1C0
E1C0
E1C0
E1C0
01C0
0FC0
0FC0
0F80
ENDCHAR
STARTCHAR 04C8
ENCODING 1224
SWIDTH 480 0
DWIDTH 12 0
BBX 10 16 1 -4
BITMAP
F1C0
F1C0
F1C0
F1C0
F1C0
FFC0
FFC0
F1C0
F1C0
F1C0
F1C0
F1C0
01C0
0FC0
0F80
0F00
ENDCHAR
STARTCHAR 04C9
ENCODING 1225
SWIDTH 480 0
DWIDTH 12 0
BBX 11 19 1 -4
BITMAP
E1C0
E1C0
E1C0
E1C0
E1C0
E1C0
FFC0
FFC0
E1C0
E1C0
E1C0
E1C0
E1E0
E1E0
E1E0
00C0
01C0
0380
0180
ENDCHAR
STARTCHAR 04CA
ENCODING 1226
SWIDTH 480 0
DWIDTH 12 0
BBX 11 15 1 -4
BITMAP
F1C0
F1C0
F1C0
F1C0
F1C0
FFC0
FFC0
F1C0
F1C0
F1E0
F1E0
F1E0
00C0
01C0
0380
ENDCHAR
STARTCHAR 04CB
ENCODING 1227
SWIDTH 480 0
DWIDTH 12 0
BBX 10 19 1 -4
BITMAP
E1C0
E1C0
E1C0
E1C0
E1C0
E1C0
F1C0
7FC0
7FC0
3FC0
01C0
01C0
03C0
03C0
03C0
0300
0300
0300
0300
ENDCHAR
STARTCHAR 04CC
ENCODING 1228
SWIDTH 480 0
DWIDTH 12 0
BBX 10 15 1 -3
BITMAP
E1C0
E1C0
E1C0
E1C0
E1C0
FBC0
7FC0
3FC0
01C0
07C0
07C0
07C0
0700
0700
0700
ENDCHAR
STARTCHAR 04CD
ENCODING 1229
SWIDTH 480 0
DWIDTH 12 0
BBX 11 19 1 -4
BITMAP
E1C0
F3C0
F3C0
D3C0
D2C0
DEC0
DEC0
DEC0
CCC0
CCC0
C0C0
C0C0
C0E0
C0E0
C0E0
00E0
00C0
01C0
0180
ENDCHAR
STARTCHAR 04CE
ENCODING 1230
SWIDTH 480 0
DWIDTH 12 0
BBX 11 16 1 -4
BITMAP
E1C0
F3C0
F3C0
F3C0
D3C0
D2C0
DEC0
DEC0
DEC0
CCE0
C0E0
C0E0
00E0
01C0
01C0
0080
ENDCHAR
STARTCHAR 04CF
ENCODING 1231
SWIDTH 480 0
DWIDTH 12 0
BBX 10 15 1 0
BITMAP
FFC0
FFC0
0E00
0E00
0E00
0E00
0E00
0E00
0E00
0E00
0E00
0E00
FFC0
FFC0
FFC0
ENDCHAR
STARTCHAR 04D0
ENCODING 1232
SWIDTH 480 0
DWIDTH 12 0
BBX 12 21 0 0
BITMAP
0800
39C0
1FC0
0F80
0000
0000
0F00
0F80
0F80
1F80
1DC0
19C0
39C0
39C0
38E0
3FE0
7FE0
70E0
70F0
7070
F070
ENDCHAR
STARTCHAR 04D1
ENCODING 1233
SWIDTH 480 0
DWIDTH 12 0
BBX 10 17 1 0
BITMAP
7180
3F80
3F00
0C00
0000
7F00
7F80
3FC0
01C0
01C0
3FC0
7FC0
E1C0
E1C0
F1C0
7FC0
3FC0
ENDCHAR
STARTCHAR 04D2
ENCODING 1234
SWIDTH 480 0
DWIDTH 12 0
BBX 12 20 0 0
BITMAP
39C0
3DE0
39C0
0000
0000
0F00
0F80
0F80
1F80
1DC0
19C0
39C0
39C0
38E0
3FE0
7FE0
70E0
70F0
7070
F070
ENDCHAR
STARTCHAR 04D3
ENCODING 1235
SWIDTH 480 0
DWIDTH 12 0
BBX 10 17 1 0
BITMAP
3180
7380
7380
0000
0000
7F00
7F80
3FC0
01C0
01C0
3FC0
7FC0
E1C0
E1C0
F1C0
7FC0
3FC0
ENDCHAR
STARTCHAR 04D4
ENCODING 1236
SWIDTH 480 0
DWIDTH 12 0
BBX 12 15 0 0
BITMAP
07F0
0FF0
0F80
0F80
1F80
1B80
1BE0
3BE0
3B80
3F80
7F80
7380
73F0
73F0
F3F0
ENDCHAR
STARTCHAR 04D5
ENCODING 1237
SWIDTH 480 0
DWIDTH 12 0
BBX 11 12 1 0
BITMAP
7BC0
7FC0
5FE0
0E60
0E60
7FE0
FFE0
CE00
CE00
C700
FFE0
7BE0
ENDCHAR
STARTCHAR 04D6
ENCODING 1238
SWIDTH 480 0
DWIDTH 12 0
BBX 10 21 2 0
BITMAP
0200
7380
3F00
1E00
0000
0000
FF80
FF80
E000
E000
E000
E000
FF00
FF00
E000
E000
E000
E000
FFC0
FFC0
FFC0
ENDCHAR
STARTCHAR 04D7
ENCODING 1239
SWIDTH 480 0
DWIDTH 12 0
BBX 11 17 1 0
BITMAP
3180
3F80
1F00
0C00
0000
1F00
3F80
7FC0
E1C0
E0E0
FFE0
FFE0
E000
E000
7DC0
7FC0
1FC0
ENDCHAR
STARTCHAR 04D8
ENCODING 1240
SWIDTH 480 0
DWIDTH 12 0
BBX 11 16 1 0
BITMAP
3C00
FF00
7F80
03C0
01C0
00C0
00E0
FFE0
FFE0
FFE0
C0E0
E0C0
E1C0
73C0
7F80
3F00
ENDCHAR
STARTCHAR 04D9
ENCODING 1241
SWIDTH 480 0
DWIDTH 12 0
BBX 11 12 1 0
BITMAP
7E00
7F80
7FC0
01C0
01C0
FFE0
FFE0
E1E0
E1C0
F3C0
7F80
3F00
ENDCHAR
STARTCHAR 04DA
ENCODING 1242
SWIDTH 480 0
DWIDTH 12 0
BBX 11 20 1 0
BITMAP
7380
7380
7380
0000
3C00
FF00
7F80
03C0
01C0
00C0
00E0
FFE0
FFE0
FFE0
C0E0
E0C0
E1C0
73C0
7F80
3F00
ENDCHAR
STARTCHAR 04DB
ENCODING 1243
SWIDTH 480 0
DWIDTH 12 0
BBX 11 17 1 0
BITMAP
2100
7380
7380
2100
0000
7E00
7F80
7FC0
01C0
01C0
FFE0
FFE0
E1E0
E1C0
F3C0
7F80
3F00
ENDCHAR
STARTCHAR 04DC
ENCODING 1244
SWIDTH 480 0
DWIDTH 12 0
BBX 12 20 0 0
BITMAP
39C0
3DE0
39C0
0000
0000
6670
6670
7660
36E0
3EC0
1EC0
1F80
1F80
3EC0
36E0
3660
7660
6670
6670
E630
ENDCHAR
STARTCHAR 04DD
ENCODING 1245
SWIDTH 480 0
DWIDTH 12 0
BBX 12 17 0 0
BITMAP
18C0
39C0
39C0
0000
0000
E670
6670
7660
36E0
1EC0
1F80
1FC0
3EC0
36E0
7660
6670
6670
ENDCHAR
STARTCHAR 04DE
ENCODING 1246
SWIDTH 480 0
DWIDTH 12 0
BBX 11 20 1 0
BITMAP
7380
7BC0
7380
0000
3E00
FF80
7FC0
41C0
01C0
01C0
03C0
3F80
3FC0
03C0
00E0
00E0
00E0
E3E0
FFC0
FF80
ENDCHAR
STARTCHAR 04DF
ENCODING 1247
SWIDTH 480 0
DWIDTH 12 0
BBX 10 17 1 0
BITMAP
2100
7380
7380
2100
0000
7F00
7F80
7F80
01C0
0380
3F00
3F80
03C0
01C0
67C0
FF80
FF00
ENDCHAR
STARTCHAR 04E0
ENCODING 1248
SWIDTH 480 0
DWIDTH 12 0
BBX 11 15 1 0
BITMAP
FFE0
FFE0
01C0
0380
0700
0E00
1F00
1FC0
03E0
00E0
00E0
00E0
E3E0
FFC0
FF80
ENDCHAR
STARTCHAR 04E1
ENCODING 1249
SWIDTH 480 0
DWIDTH 12 0
BBX 10 16 1 -4
BITMAP
FFC0
FFC0
FFC0
0380
0700
0E00
1C00
1F00
1F80
03C0
01C0
01C0
01C0
FFC0
FF80
FF00
ENDCHAR
STARTCHAR 04E2
ENCODING 1250
SWIDTH 480 0
DWIDTH 12 0
BBX 10 20 1 0
BITMAP
3F80
3F80
3F80
0000
0000
E1C0
E1C0
E3C0
E3C0
E7C0
E6C0
EEC0
ECC0
FCC0
F8C0
F8C0
F0C0
F0C0
E0C0
E0C0
ENDCHAR
STARTCHAR 04E3
ENCODING 1251
SWIDTH 480 0
DWIDTH 12 0
BBX 9 16 2 0
BITMAP
7F00
7F00
0000
0000
C380
C380
C780
CF80
CF80
DF80
DB80
F380
F380
E380
E380
C380
ENDCHAR
STARTCHAR 04E4
ENCODING 1252
SWIDTH 480 0
DWIDTH 12 0
BBX 10 20 1 0
BITMAP
7380
7BC0
7380
0000
0000
E1C0
E1C0
E3C0
E3C0
E7C0
E6C0
EEC0
ECC0
FCC0
F8C0
F8C0
F0C0
F0C0
E0C0
E0C0
ENDCHAR
STARTCHAR 04E5
ENCODING 1253
SWIDTH 480 0
DWIDTH 12 0
BBX 9 17 2 0
BITMAP
6300
E700
E700
0000
0000
C380
C380
C780
CF80
CF80
DF80
DB80
F380
F380
E380
E380
C380
ENDCHAR
STARTCHAR 04E6
ENCODING 1254
SWIDTH 480 0
DWIDTH 12 0
BBX 11 20 1 0
BITMAP
7380
7BC0
7380
0000
1E00
3F80
7FC0
F1C0
E1C0
E0E0
E0E0
E0E0
E0E0
E0E0
E0E0
E1E0
E1C0
7BC0
7F80
3F00
ENDCHAR
STARTCHAR 04E7
ENCODING 1255
SWIDTH 480 0
DWIDTH 12 0
BBX 11 17 1 0
BITMAP
3180
7380
7380
0000
0000
1F00
7F80
7FC0
F1C0
E1E0
E0E0
E0E0
E1E0
E1C0
FBC0
7F80
3F00
ENDCHAR
STARTCHAR 04E8
ENCODING 1256
SWIDTH 480 0
DWIDTH 12 0
BBX 11 16 1 0
BITMAP
1E00
3F80
7FC0
F1C0
E1C0
E0E0
E0E0
FFE0
FFE0
FFE0
E0E0
E1E0
E1C0
7BC0
7F80
3F00
ENDCHAR
STARTCHAR 04E9
ENCODING 1257
SWIDTH 480 0
DWIDTH 12 0
BBX 11 12 1 0
BITMAP
1F00
7F80
7FC0
F1C0
E1E0
FFE0
FFE0
E1E0
E1C0
F3C0
7F80
3F00
ENDCHAR
STARTCHAR 04EA
ENCODING 1258
SWIDTH 480 0
DWIDTH 12 0
BBX 11 20 1 0
BITMAP
7380
7BC0
7380
0000
1E00
3F80
7FC0
F1C0
E1C0
E0E0
E0E0
FFE0
FFE0
FFE0
E0E0
E1E0
E1C0
7BC0
7F80
3F00
ENDCHAR
STARTCHAR 04EB
ENCODING 1259
SWIDTH 480 0
DWIDTH 12 0
BBX 11 17 1 0
BITMAP
3180
7380
7380
0000
0000
1F00
7F80
7FC0
F1C0
E1E0
FFE0
FFE0
E1E0
E1C0
F3C0
7F80
3F00
ENDCHAR
STARTCHAR 04EC
ENCODING 1260
SWIDTH 480 0
DWIDTH 12 0
BBX 11 20 1 0
BITMAP
7380
7380
7380
0000
3C00
FF00
7F80
43C0
01E0
00E0
00E0
1FE0
1FE0
1FE0
00E0
01E0
01C0
67C0
FF80
FF00
ENDCHAR
STARTCHAR 04ED
ENCODING 1261
SWIDTH 480 0
DWIDTH 12 0
BBX 10 17 1 0
BITMAP
2100
7380
7380
2100
0000
FE00
FF80
FF80
03C0
01C0
3FC0
3FC0
01C0
01C0
EFC0
FF80
FE00
ENDCHAR
STARTCHAR 04EE
ENCODING 1262
SWIDTH 480 0
DWIDTH 12 0
BBX 11 20 1 0
BITMAP
3F80
3F80
3F80
0000
0000
E0E0
E1E0
F1C0
71C0
7BC0
3B80
3F80
1F80
0F00
0F00
0F00
0E00
FE00
FC00
F800
ENDCHAR
STARTCHAR 04EF
ENCODING 1263
SWIDTH 480 0
DWIDTH 12 0
BBX 11 20 1 -4
BITMAP
3F80
3F80
0000
0000
E0E0
E1C0
71C0
71C0
71C0
3B80
3B80
3B80
1F00
1F00
0F00
0E00
0E00
BC00
FC00
F800
ENDCHAR
STARTCHAR 04F0
ENCODING 1264
SWIDTH 480 0
DWIDTH 12 0
BBX 11 20 1 0
BITMAP
7380
7BC0
7380
0000
0000
E0E0
E1E0
F1C0
71C0
7BC0
3B80
3F80
1F80
0F00
0F00
0F00
0E00
FE00
FC00
F800
ENDCHAR
STARTCHAR 04F1
ENCODING 1265
SWIDTH 480 0
DWIDTH 12 0
BBX 11 21 1 -4
BITMAP
3180
7BC0
7BC0
0000
0000
E0E0
E1C0
71C0
71C0
71C0
3B80
3B80
3B80
1F00
1F00
0F00
0E00
0E00
BC00
FC00
F800
ENDCHAR
STARTCHAR 04F2
ENCODING 1266
SWIDTH 480 0
DWIDTH 12 0
BBX 11 21 1 0
BITMAP
0800
1CC0
1DC0
3380
2100
0000
E0E0
E1E0
F1C0
71C0
7BC0
3B80
3F80
1F80
0F00
0F00
0F00
0E00
FE00
FC00
F800
ENDCHAR
STARTCHAR 04F3
ENCODING 1267
SWIDTH 480 0
DWIDTH 12 0
BBX 11 21 1 -4
BITMAP
08C0
1DE0
39C0
3100
0000
E0E0
E1C0
71C0
71C0
71C0
3B80
3B80
3B80
1F00
1F00
0F00
0E00
0E00
BC00
FC00
F800
ENDCHAR
STARTCHAR 04F4
ENCODING 1268
SWIDTH 480 0
DWIDTH 12 0
BBX 10 20 1 0
BITMAP
7380
7BC0
7380
0000
0000
E1C0
E1C0
E1C0
E1C0
E1C0
E1C0
F1C0
7FC0
7FC0
3FC0
01C0
01C0
01C0
01C0
01C0
ENDCHAR
STARTCHAR 04F5
ENCODING 1269
SWIDTH 480 0
DWIDTH 12 0
BBX 10 17 1 0
BITMAP
3180
7380
7380
0000
0000
E1C0
E1C0
E1C0
E1C0
E1C0
FBC0
7FC0
3FC0
01C0
01C0
01C0
01C0
ENDCHAR
STARTCHAR 04F6
ENCODING 1270
SWIDTH 480 0
DWIDTH 12 0
BBX 11 18 1 -3
BITMAP
3FE0
3FE0
3800
3800
3800
3800
3800
3800
3800
3800
3800
3800
FF80
FF80
FF80
0380
0380
0380
ENDCHAR
STARTCHAR 04F7
ENCODING 1271
SWIDTH 480 0
DWIDTH 12 0
BBX 9 15 2 -3
BITMAP
FF80
FF80
FF80
E000
E000
E000
E000
E000
E000
FC00
FC00
FC00
1C00
1C00
1C00
ENDCHAR
STARTCHAR 04F8
ENCODING 1272
SWIDTH 480 0
DWIDTH 12 0
BBX 11 20 1 0
BITMAP
7380
7BC0
7380
0000
0000
C0E0
C0E0
C0E0
C0E0
C0E0
FCE0
FEE0
CEE0
C6E0
C6E0
C6E0
C6E0
CEE0
FCE0
FCE0
ENDCHAR
STARTCHAR 04F9
ENCODING 1273
SWIDTH 480 0
DWIDTH 12 0
BBX 11 17 1 0
BITMAP
3180
7380
7380
0000
0000
C0E0
C0E0
C0E0
C0E0
F8E0
FCE0
FEE0
C6E0
C6E0
CEE0
FEE0
FCE0
ENDCHAR
STARTCHAR 1E80
ENCODING 7808
SWIDTH 480 0
DWIDTH 12 0
BBX 11 20 1 1
BITMAP
1800
3E00
0E00
0200
0000
C0E0
C0E0
C0E0
C0E0
C0E0
CEE0
CEE0
DEE0
DEE0
DBC0
DBC0
F3C0
F1C0
F1C0
E1C0
ENDCHAR
STARTCHAR 1E81
ENCODING 7809
SWIDTH 480 0
DWIDTH 12 0
BBX 12 17 0 0
BITMAP
0C00
0E00
0F80
0300
0000
E030
E030
E070
6770
6770
6F70
6F60
6FE0
6DE0
79E0
39E0
38E0
ENDCHAR
STARTCHAR 1E82
ENCODING 7810
SWIDTH 480 0
DWIDTH 12 0
BBX 11 21 1 0
BITMAP
0200
0700
0F00
1C00
0000
0000
C0E0
C0E0
C0E0
C0E0
C0E0
CEE0
CEE0
DEE0
DEE0
DBC0
DBC0
F3C0
F1C0
F1C0
E1C0
ENDCHAR
STARTCHAR 1E83
ENCODING 7811
SWIDTH 480 0
DWIDTH 12 0
BBX 12 17 0 0
BITMAP
0100
0780
0F00
0C00
0000
E030
E030
E070
6770
6770
6F70
6F60
6FE0
6DE0
79E0
39E0
38E0
ENDCHAR
STARTCHAR 1E84
ENCODING 7812
SWIDTH 480 0
DWIDTH 12 0
BBX 11 20 1 0
BITMAP
7380
7BC0
7380
0000
0000
C0E0
C0E0
C0E0
C0E0
C0E0
CEE0
CEE0
DEE0
DEE0
DBC0
DBC0
F3C0
F1C0
F1C0
E1C0
ENDCHAR
STARTCHAR 1E85
ENCODING 7813
SWIDTH 480 0
DWIDTH 12 0
BBX 12 17 0 0
BITMAP
18C0
39C0
39C0
0000
0000
E030
E030
E070
6770
6770
6F70
6F60
6FE0
6DE0
79E0
39E0
38E0
ENDCHAR
STARTCHAR 1EF2
ENCODING 7922
SWIDTH 480 0
DWIDTH 12 0
BBX 11 21 1 0
BITMAP
1000
1800
3E00
0E00
0000
0000
E0E0
E1C0
F1C0
71C0
7380
3B80
3F00
1F00
1E00
0E00
0E00
0E00
0E00
0E00
0E00
ENDCHAR
STARTCHAR 1EF3
ENCODING 7923
SWIDTH 480 0
DWIDTH 12 0
BBX 11 21 1 -4
BITMAP
1800
1C00
1F00
0600
0000
E0E0
E1C0
71C0
71C0
71C0
3B80
3B80
3B80
1F00
1F00
0F00
0E00
0E00
BC00
FC00
F800
ENDCHAR
STARTCHAR 1F00
ENCODING 7936
SWIDTH 480 0
DWIDTH 12 0
BBX 11 19 1 0
BITMAP
0400
0E00
0E00
0600
0C00
0800
0000
1F80
3FC0
7FC0
F1C0
E1C0
E1C0
E1C0
E1C0
F1C0
73E0
7FE0
3EE0
ENDCHAR
STARTCHAR 1F01
ENCODING 7937
SWIDTH 480 0
DWIDTH 12 0
BBX 11 18 1 1
BITMAP
1E00
1C00
0C00
0E00
0600
0000
1F80
3FC0
7FC0
F1C0
E1C0
E1C0
E1C0
E1C0
F1C0
73E0
7FE0
3EE0
ENDCHAR
STARTCHAR 1F02
ENCODING 7938
SWIDTH 480 0
DWIDTH 12 0
BBX 11 18 1 1
BITMAP
3B00
3B80
11C0
30C0
2000
0000
1F80
3FC0
7FC0
F1C0
E1C0
E1C0
E1C0
E1C0
F1C0
73E0
7FE0
3EE0
ENDCHAR
STARTCHAR 1F03
ENCODING 7939
SWIDTH 480 0
DWIDTH 12 0
BBX 11 19 1 0
BITMAP
2000
7600
7700
6380
3180
1080
0000
1F80
3FC0
7FC0
F1C0
E1C0
E1C0
E1C0
E1C0
F1C0
73E0
7FE0
3EE0
ENDCHAR
STARTCHAR 1F04
ENCODING 7940
SWIDTH 480 0
DWIDTH 12 0
BBX 11 19 1 0
BITMAP
1000
3980
3980
1B80
3300
2200
0000
1F80
3FC0
7FC0
F1C0
E1C0
E1C0
E1C0
E1C0
F1C0
73E0
7FE0
3EE0
ENDCHAR
STARTCHAR 1F05
ENCODING 7941
SWIDTH 480 0
DWIDTH 12 0
BBX 11 18 1 1
BITMAP
70C0
71C0
2380
3300
1A00
0000
1F80
3FC0
7FC0
F1C0
E1C0
E1C0
E1C0
E1C0
F1C0
73E0
7FE0
3EE0
ENDCHAR
STARTCHAR 1F06
ENCODING 7942
SWIDTH 480 0
DWIDTH 12 0
BBX 11 21 1 0
BITMAP
0C00
1F00
3300
3180
0C00
0E00
0C00
0800
0000
1F80
3FC0
7FC0
F1C0
E1C0
E1C0
E1C0
E1C0
F1C0
73E0
7FE0
3EE0
ENDCHAR
STARTCHAR 1F07
ENCODING 7943
SWIDTH 480 0
DWIDTH 12 0
BBX 11 21 1 0
BITMAP
0C00
1F00
3300
3180
0C00
0C00
0C00
0600
0000
1F80
3FC0
7FC0
F1C0
E1C0
E1C0
E1C0
E1C0
F1C0
73E0
7FE0
3EE0
ENDCHAR
STARTCHAR 1F08
ENCODING 7944
SWIDTH 480 0
DWIDTH 12 0
BBX 13 16 -1 0
BITMAP
7000
7780
77C0
77C0
EFC0
0EE0
0CE0
1CE0
1CE0
1C70
1FF0
3FF0
3870
3878
3838
7838
ENDCHAR
STARTCHAR 1F09
ENCODING 7945
SWIDTH 480 0
DWIDTH 12 0
BBX 13 16 -1 0
BITMAP
E000
E780
E7C0
C7C0
6FC0
2EE0
0CE0
1CE0
1CE0
1C70
1FF0
3FF0
3870
3878
3838
7838
ENDCHAR
STARTCHAR 1F0A
ENCODING 7946
SWIDTH 480 0
DWIDTH 12 0
BBX 18 16 -6 0
BITMAP
640000
EE3C00
673E00
633E00
C1FE00
807700
006700
00E700
00E700
00E380
00FF80
01FF80
01C380
01C3C0
01C1C0
03C1C0
ENDCHAR
STARTCHAR 1F0B
ENCODING 7947
SWIDTH 480 0
DWIDTH 12 0
BBX 18 16 -6 0
BITMAP
640000
EE3C00
E73E00
633E00
31FE00
007700
006700
00E700
00E700
00E380
00FF80
01FF80
01C380
01C3C0
01C1C0
03C1C0
ENDCHAR
STARTCHAR 1F0C
ENCODING 7948
SWIDTH 480 0
DWIDTH 12 0
BBX 17 16 -5 0
BITMAP
620000
73F800
777C00
6E7C00
CCFC00
00EE00
00CE00
01CE00
01CE00
01C700
01FF00
03FF00
038700
038780
038380
078380
ENDCHAR
STARTCHAR 1F0D
ENCODING 7949
SWIDTH 480 0
DWIDTH 12 0
BBX 17 16 -5 0
BITMAP
C20000
E3F800
C77C00
CE7C00
6CFC00
00EE00
00CE00
01CE00
01CE00
01C700
01FF00
03FF00
038700
038780
038380
078380
ENDCHAR
STARTCHAR 1F0E
ENCODING 7950
SWIDTH 480 0
DWIDTH 12 0
BBX 15 18 -3 0
BITMAP
7800
FC00
CC00
A7E0
31F0
31F0
33F0
03B8
0338
0738
0738
071C
07FC
0FFC
0E1C
0E1E
0E0E
1E0E
ENDCHAR
STARTCHAR 1F0F
ENCODING 7951
SWIDTH 480 0
DWIDTH 12 0
BBX 15 18 -3 0
BITMAP
7800
FC00
CC00
87E0
31F0
31F0
1BF0
03B8
0338
0738
0738
071C
07FC
0FFC
0E1C
0E1E
0E0E
1E0E
ENDCHAR
STARTCHAR 1F10
ENCODING 7952
SWIDTH 480 0
DWIDTH 12 0
BBX 9 18 2 1
BITMAP
1E00
0E00
0C00
1C00
1000
0000
3F80
7F80
FF00
E000
E000
7E00
FE00
E000
E000
F380
FF80
7F80
ENDCHAR
STARTCHAR 1F11
ENCODING 7953
SWIDTH 480 0
DWIDTH 12 0
BBX 9 18 2 1
BITMAP
3C00
3800
1800
1C00
0C00
0000
3F80
7F80
FF00
E000
E000
7E00
FE00
E000
E000
F380
FF80
7F80
ENDCHAR
STARTCHAR 1F12
ENCODING 7954
SWIDTH 480 0
DWIDTH 12 0
BBX 9 18 2 1
BITMAP
7600
7700
2380
6180
4000
0000
3F80
7F80
FF00
E000
E000
7E00
FE00
E000
E000
F380
FF80
7F80
ENDCHAR
STARTCHAR 1F13
ENCODING 7955
SWIDTH 480 0
DWIDTH 12 0
BBX 9 19 2 0
BITMAP
4000
EC00
EE00
C700
6300
2100
0000
3F80
7F80
FF00
E000
E000
7E00
FE00
E000
E000
F380
FF80
7F80
ENDCHAR
STARTCHAR 1F14
ENCODING 7956
SWIDTH 480 0
DWIDTH 12 0
BBX 9 19 2 0
BITMAP
2000
7300
7300
3700
6600
4400
0000
3F80
7F80
FF00
E000
E000
7E00
FE00
E000
E000
F380
FF80
7F80
ENDCHAR
STARTCHAR 1F15
ENCODING 7957
SWIDTH 480 0
DWIDTH 12 0
BBX 9 18 2 1
BITMAP
E180
E380
4700
6600
3400
0000
3F80
7F80
FF00
E000
E000
7E00
FE00
E000
E000
F380
FF80
7F80
ENDCHAR
STARTCHAR 1F18
ENCODING 7960
SWIDTH 480 0
DWIDTH 12 0
BBX 16 16 -4 0
BITMAP
7000
73FE
73FE
7380
E380
0380
0380
03FC
03FC
0380
0380
0380
0380
03FF
03FF
03FF
ENDCHAR
STARTCHAR 1F19
ENCODING 7961
SWIDTH 480 0
DWIDTH 12 0
BBX 15 16 -3 0
BITMAP
E000
E7FC
E7FC
C700
6700
2700
0700
07F8
07F8
0700
0700
0700
0700
07FE
07FE
07FE
ENDCHAR
STARTCHAR 1F1A
ENCODING 7962
SWIDTH 480 0
DWIDTH 12 0
BBX 21 16 -9 0
BITMAP
720000
771FF0
731FF0
619C00
E19C00
001C00
001C00
001FE0
001FE0
001C00
001C00
001C00
001C00
001FF8
001FF8
001FF8
ENDCHAR
STARTCHAR 1F1B
ENCODING 7963
SWIDTH 480 0
DWIDTH 12 0
BBX 20 16 -8 0
BITMAP
E40000
EE3FE0
E63FE0
633800
733800
003800
003800
003FC0
003FC0
003800
003800
003800
003800
003FF0
003FF0
003FF0
ENDCHAR
STARTCHAR 1F1C
ENCODING 7964
SWIDTH 480 0
DWIDTH 12 0
BBX 20 16 -8 0
BITMAP
620000
73BFE0
773FE0
663800
CC3800
003800
003800
003FC0
003FC0
003800
003800
003800
003800
003FF0
003FF0
003FF0
ENDCHAR
STARTCHAR 1F1D
ENCODING 7965
SWIDTH 480 0
DWIDTH 12 0
BBX 20 16 -8 0
BITMAP
C20000
E3BFE0
C73FE0
CE3800
6C3800
203800
003800
003FC0
003FC0
003800
003800
003800
003800
003FF0
003FF0
003FF0
ENDCHAR
STARTCHAR 1F20
ENCODING 7968
SWIDTH 480 0
DWIDTH 12 0
BBX 9 23 2 -4
BITMAP
0800
1C00
1C00
0C00
1800
1000
0000
FE00
FF00
FF80
E380
E380
E380
E380
E380
E380
E380
E380
E380
0380
0380
0380
0380
ENDCHAR
STARTCHAR 1F21
ENCODING 7969
SWIDTH 480 0
DWIDTH 12 0
BBX 9 22 2 -3
BITMAP
3C00
3800
1800
1C00
0C00
0000
FE00
FF00
FF80
E380
E380
E380
E380
E380
E380
E380
E380
E380
0380
0380
0380
0380
ENDCHAR
STARTCHAR 1F22
ENCODING 7970
SWIDTH 480 0
DWIDTH 12 0
BBX 9 22 2 -3
BITMAP
7600
7700
2380
6180
4000
0000
FE00
FF00
FF80
E380
E380
E380
E380
E380
E380
E380
E380
E380
0380
0380
0380
0380
ENDCHAR
STARTCHAR 1F23
ENCODING 7971
SWIDTH 480 0
DWIDTH 12 0
BBX 9 23 2 -4
BITMAP
4000
EC00
EE00
C700
6300
2100
0000
FE00
FF00
FF80
E380
E380
E380
E380
E380
E380
E380
E380
E380
0380
0380
0380
0380
ENDCHAR
STARTCHAR 1F24
ENCODING 7972
SWIDTH 480 0
DWIDTH 12 0
BBX 9 23 2 -4
BITMAP
2000
7300
7300
3700
6600
4400
0000
FE00
FF00
FF80
E380
E380
E380
E380
E380
E380
E380
E380
E380
0380
0380
0380
0380
ENDCHAR
STARTCHAR 1F25
ENCODING 7973
SWIDTH 480 0
DWIDTH 12 0
BBX 9 22 2 -3
BITMAP
E180
E380
4700
6600
3400
0000
FE00
FF00
FF80
E380
E380
E380
E380
E380
E380
E380
E380
E380
0380
0380
0380
0380
ENDCHAR
STARTCHAR 1F26
ENCODING 7974
SWIDTH 480 0
DWIDTH 12 0
BBX 9 25 2 -4
BITMAP
1800
3E00
6600
6300
1800
1C00
1800
1000
0000
FE00
FF00
FF80
E380
E380
E380
E380
E380
E380
E380
E380
E380
0380
0380
0380
0380
ENDCHAR
STARTCHAR 1F27
ENCODING 7975
SWIDTH 480 0
DWIDTH 12 0
BBX 9 25 2 -4
BITMAP
1800
3E00
6600
6300
1800
1800
1800
0C00
0000
FE00
FF00
FF80
E380
E380
E380
E380
E380
E380
E380
E380
E380
0380
0380
0380
0380
ENDCHAR
STARTCHAR 1F28
ENCODING 7976
SWIDTH 480 0
DWIDTH 12 0
BBX 15 16 -4 0
BITMAP
6000
F70E
770E
670E
C70E
070E
070E
07FE
07FE
070E
070E
070E
070E
070E
070E
070E
ENDCHAR
STARTCHAR 1F29
ENCODING 7977
SWIDTH 480 0
DWIDTH 12 0
BBX 15 16 -4 0
BITMAP
6000
E70E
E70E
670E
370E
070E
070E
07FE
07FE
070E
070E
070E
070E
070E
070E
070E
ENDCHAR
STARTCHAR 1F2A
ENCODING 7978
SWIDTH 480 0
DWIDTH 12 0
BBX 20 16 -9 0
BITMAP
620000
FE3870
673870
63B870
C1B870
003870
003870
003FF0
003FF0
003870
003870
003870
003870
003870
003870
003870
ENDCHAR
STARTCHAR 1F2B
ENCODING 7979
SWIDTH 480 0
DWIDTH 12 0
BBX 19 16 -8 0
BITMAP
C40000
FC70E0
CE70E0
C770E0
6370E0
0070E0
0070E0
007FE0
007FE0
0070E0
0070E0
0070E0
0070E0
0070E0
0070E0
0070E0
ENDCHAR
STARTCHAR 1F2C
ENCODING 7980
SWIDTH 480 0
DWIDTH 12 0
BBX 19 16 -8 0
BITMAP
620000
E770E0
6670E0
6E70E0
CC70E0
0070E0
0070E0
007FE0
007FE0
0070E0
0070E0
0070E0
0070E0
0070E0
0070E0
0070E0
ENDCHAR
STARTCHAR 1F2D
ENCODING 7981
SWIDTH 480 0
DWIDTH 12 0
BBX 20 16 -9 0
BITMAP
610000
E3B870
E33870
663870
363870
003870
003870
003FF0
003FF0
003870
003870
003870
003870
003870
003870
003870
ENDCHAR
STARTCHAR 1F2E
ENCODING 7982
SWIDTH 480 0
DWIDTH 12 0
BBX 18 18 -7 0
BITMAP
3C0000
7E0000
C60000
C2E1C0
38E1C0
18E1C0
30E1C0
00E1C0
00E1C0
00FFC0
00FFC0
00E1C0
00E1C0
00E1C0
00E1C0
00E1C0
00E1C0
00E1C0
ENDCHAR
STARTCHAR 1F2F
ENCODING 7983
SWIDTH 480 0
DWIDTH 12 0
BBX 18 18 -7 0
BITMAP
3C0000
7E0000
C60000
C2E1C0
18E1C0
18E1C0
18E1C0
00E1C0
00E1C0
00FFC0
00FFC0
00E1C0
00E1C0
00E1C0
00E1C0
00E1C0
00E1C0
00E1C0
ENDCHAR
STARTCHAR 1F30
ENCODING 7984
SWIDTH 480 0
DWIDTH 12 0
BBX 11 19 1 0
BITMAP
0400
0E00
0E00
0600
0C00
0800
0000
FC00
FC00
FC00
1C00
1C00
1C00
1C00
1C00
1C00
1FC0
0FE0
07E0
ENDCHAR
STARTCHAR 1F31
ENCODING 7985
SWIDTH 480 0
DWIDTH 12 0
BBX 11 18 1 1
BITMAP
1E00
1C00
0C00
0E00
0600
0000
FC00
FC00
FC00
1C00
1C00
1C00
1C00
1C00
1C00
1FC0
0FE0
07E0
ENDCHAR
STARTCHAR 1F32
ENCODING 7986
SWIDTH 480 0
DWIDTH 12 0
BBX 11 18 1 1
BITMAP
3B00
3B80
11C0
30C0
2000
0000
FC00
FC00
FC00
1C00
1C00
1C00
1C00
1C00
1C00
1FC0
0FE0
07E0
ENDCHAR
STARTCHAR 1F33
ENCODING 7987
SWIDTH 480 0
DWIDTH 12 0
BBX 11 19 1 0
BITMAP
2000
7600
7700
6380
3180
1080
0000
FC00
FC00
FC00
1C00
1C00
1C00
1C00
1C00
1C00
1FC0
0FE0
07E0
ENDCHAR
STARTCHAR 1F34
ENCODING 7988
SWIDTH 480 0
DWIDTH 12 0
BBX 11 19 1 0
BITMAP
1000
3980
3980
1B80
3300
2200
0000
FC00
FC00
FC00
1C00
1C00
1C00
1C00
1C00
1C00
1FC0
0FE0
07E0
ENDCHAR
STARTCHAR 1F35
ENCODING 7989
SWIDTH 480 0
DWIDTH 12 0
BBX 11 18 1 1
BITMAP
70C0
71C0
2380
3300
1A00
0000
FC00
FC00
FC00
1C00
1C00
1C00
1C00
1C00
1C00
1FC0
0FE0
07E0
ENDCHAR
STARTCHAR 1F36
ENCODING 7990
SWIDTH 480 0
DWIDTH 12 0
BBX 11 21 1 0
BITMAP
0C00
1F00
3300
3180
0C00
0E00
0C00
0800
0000
FC00
FC00
FC00
1C00
1C00
1C00
1C00
1C00
1C00
1FC0
0FE0
07E0
ENDCHAR
STARTCHAR 1F37
ENCODING 7991
SWIDTH 480 0
DWIDTH 12 0
BBX 11 21 1 0
BITMAP
0C00
1F00
3300
3180
0C00
0C00
0C00
0600
0000
FC00
FC00
FC00
1C00
1C00
1C00
1C00
1C00
1C00
1FC0
0FE0
07E0
ENDCHAR
STARTCHAR 1F38
ENCODING 7992
SWIDTH 480 0
DWIDTH 12 0
BBX 15 16 -4 0
BITMAP
7000
77FE
77FE
6070
C070
0070
0070
0070
0070
0070
0070
0070
0070
07FE
07FE
07FE
ENDCHAR
STARTCHAR 1F39
ENCODING 7993
SWIDTH 480 0
DWIDTH 12 0
BBX 15 16 -4 0
BITMAP
E000
E7FE
E7FE
6070
3070
0070
0070
0070
0070
0070
0070
0070
0070
07FE
07FE
07FE
ENDCHAR
STARTCHAR 1F3A
ENCODING 7994
SWIDTH 480 0
DWIDTH 12 0
BBX 20 16 -9 0
BITMAP
620000
773FF0
733FF0
638380
C18380
000380
000380
000380
000380
000380
000380
000380
000380
003FF0
003FF0
003FF0
ENDCHAR
STARTCHAR 1F3B
ENCODING 7995
SWIDTH 480 0
DWIDTH 12 0
BBX 19 16 -8 0
BITMAP
C40000
EC7FE0
CE7FE0
C70700
630700
200700
000700
000700
000700
000700
000700
000700
000700
007FE0
007FE0
007FE0
ENDCHAR
STARTCHAR 1F3C
ENCODING 7996
SWIDTH 480 0
DWIDTH 12 0
BBX 19 16 -8 0
BITMAP
620000
F37FE0
677FE0
6E0700
CC0700
000700
000700
000700
000700
000700
000700
000700
000700
007FE0
007FE0
007FE0
ENDCHAR
STARTCHAR 1F3D
ENCODING 7997
SWIDTH 480 0
DWIDTH 12 0
BBX 20 16 -9 0
BITMAP
610000
E3BFF0
E33FF0
670380
360380
000380
000380
000380
000380
000380
000380
000380
000380
003FF0
003FF0
003FF0
ENDCHAR
STARTCHAR 1F3E
ENCODING 7998
SWIDTH 480 0
DWIDTH 12 0
BBX 17 18 -6 0
BITMAP
780000
FC0000
CC0000
97FF80
31FF80
301C00
301C00
001C00
001C00
001C00
001C00
001C00
001C00
001C00
001C00
01FF80
01FF80
01FF80
ENDCHAR
STARTCHAR 1F3F
ENCODING 7999
SWIDTH 480 0
DWIDTH 12 0
BBX 17 18 -6 0
BITMAP
780000
FC0000
CC0000
87FF80
31FF80
301C00
181C00
001C00
001C00
001C00
001C00
001C00
001C00
001C00
001C00
01FF80
01FF80
01FF80
ENDCHAR
STARTCHAR 1F40
ENCODING 8000
SWIDTH 480 0
DWIDTH 12 0
BBX 11 19 1 0
BITMAP
0400
0E00
0E00
0600
0C00
0800
0000
1F00
7F80
7FC0
F1C0
E1E0
E0E0
E0E0
E1E0
E1C0
FBC0
7F80
3F00
ENDCHAR
STARTCHAR 1F41
ENCODING 8001
SWIDTH 480 0
DWIDTH 12 0
BBX 11 18 1 1
BITMAP
1E00
1C00
0C00
0E00
0600
0000
1F00
7F80
7FC0
F1C0
E1E0
E0E0
E0E0
E1E0
E1C0
FBC0
7F80
3F00
ENDCHAR
STARTCHAR 1F42
ENCODING 8002
SWIDTH 480 0
DWIDTH 12 0
BBX 11 18 1 1
BITMAP
3B00
3B80
11C0
30C0
2000
0000
1F00
7F80
7FC0
F1C0
E1E0
E0E0
E0E0
E1E0
E1C0
FBC0
7F80
3F00
ENDCHAR
STARTCHAR 1F43
ENCODING 8003
SWIDTH 480 0
DWIDTH 12 0
BBX 11 19 1 0
BITMAP
2000
7600
7700
6380
3180
1080
0000
1F00
7F80
7FC0
F1C0
E1E0
E0E0
E0E0
E1E0
E1C0
FBC0
7F80
3F00
ENDCHAR
STARTCHAR 1F44
ENCODING 8004
SWIDTH 480 0
DWIDTH 12 0
BBX 11 19 1 0
BITMAP
1000
3980
3980
1B80
3300
2200
0000
1F00
7F80
7FC0
F1C0
E1E0
E0E0
E0E0
E1E0
E1C0
FBC0
7F80
3F00
ENDCHAR
STARTCHAR 1F45
ENCODING 8005
SWIDTH 480 0
DWIDTH 12 0
BBX 11 18 1 1
BITMAP
70C0
71C0
2380
3300
1A00
0000
1F00
7F80
7FC0
F1C0
E1E0
E0E0
E0E0
E1E0
E1C0
FBC0
7F80
3F00
ENDCHAR
STARTCHAR 1F48
ENCODING 8008
SWIDTH 480 0
DWIDTH 12 0
BBX 15 16 -3 0
BITMAP
61E0
F3F8
77FC
6F1C
CE1C
0E0E
0E0E
0E0E
0E0E
0E0E
0E0E
0E1E
0E1C
07BC
07F8
03F0
ENDCHAR
STARTCHAR 1F49
ENCODING 8009
SWIDTH 480 0
DWIDTH 12 0
BBX 16 16 -4 0
BITMAP
E0F0
E1FC
E3FE
678E
370E
0707
0707
0707
0707
0707
0707
070F
070E
03DE
03FC
01F8
ENDCHAR
STARTCHAR 1F4A
ENCODING 8010
SWIDTH 480 0
DWIDTH 12 0
BBX 21 16 -9 0
BITMAP
620780
770FE0
731FF0
63BC70
C1B870
003838
003838
003838
003838
003838
003838
003878
003870
001EF0
001FE0
000FC0
ENDCHAR
STARTCHAR 1F4B
ENCODING 8011
SWIDTH 480 0
DWIDTH 12 0
BBX 20 16 -8 0
BITMAP
C40F00
EC1FC0
CE3FE0
C778E0
6370E0
207070
007070
007070
007070
007070
007070
0070F0
0070E0
003DE0
003FC0
001F80
ENDCHAR
STARTCHAR 1F4C
ENCODING 8012
SWIDTH 480 0
DWIDTH 12 0
BBX 20 16 -8 0
BITMAP
710F00
739FC0
773FE0
3678E0
E670E0
007070
007070
007070
007070
007070
007070
0070F0
0070E0
003DE0
003FC0
001F80
ENDCHAR
STARTCHAR 1F4D
ENCODING 8013
SWIDTH 480 0
DWIDTH 12 0
BBX 20 16 -8 0
BITMAP
E00F00
E39FC0
E73FE0
C678E0
6C70E0
207070
007070
007070
007070
007070
007070
0070F0
0070E0
003DE0
003FC0
001F80
ENDCHAR
STARTCHAR 1F50
ENCODING 8016
SWIDTH 480 0
DWIDTH 12 0
BBX 10 19 1 0
BITMAP
0400
0E00
0E00
0600
0C00
0800
0000
E1C0
E1C0
E1C0
E1C0
E1C0
E1C0
E1C0
E1C0
F1C0
7FC0
7F80
3F00
ENDCHAR
STARTCHAR 1F51
ENCODING 8017
SWIDTH 480 0
DWIDTH 12 0
BBX 10 18 1 1
BITMAP
1E00
1C00
0C00
0E00
0600
0000
E1C0
E1C0
E1C0
E1C0
E1C0
E1C0
E1C0
E1C0
F1C0
7FC0
7F80
3F00
ENDCHAR
STARTCHAR 1F52
ENCODING 8018
SWIDTH 480 0
DWIDTH 12 0
BBX 10 18 1 1
BITMAP
3B00
3B80
11C0
30C0
2000
0000
E1C0
E1C0
E1C0
E1C0
E1C0
E1C0
E1C0
E1C0
F1C0
7FC0
7F80
3F00
ENDCHAR
STARTCHAR 1F53
ENCODING 8019
SWIDTH 480 0
DWIDTH 12 0
BBX 10 19 1 0
BITMAP
2000
7600
7700
6380
3180
1080
0000
E1C0
E1C0
E1C0
E1C0
E1C0
E1C0
E1C0
E1C0
F1C0
7FC0
7F80
3F00
ENDCHAR
STARTCHAR 1F54
ENCODING 8020
SWIDTH 480 0
DWIDTH 12 0
BBX 10 19 1 0
BITMAP
1000
3980
3980
1B80
3300
2200
0000
E1C0
E1C0
E1C0
E1C0
E1C0
E1C0
E1C0
E1C0
F1C0
7FC0
7F80
3F00
ENDCHAR
STARTCHAR 1F55
ENCODING 8021
SWIDTH 480 0
DWIDTH 12 0
BBX 10 18 1 1
BITMAP
70C0
71C0
2380
3300
1A00
0000
E1C0
E1C0
E1C0
E1C0
E1C0
E1C0
E1C0
E1C0
F1C0
7FC0
7F80
3F00
ENDCHAR
STARTCHAR 1F56
ENCODING 8022
SWIDTH 480 0
DWIDTH 12 0
BBX 10 21 1 0
BITMAP
0C00
1F00
3300
3180
0C00
0E00
0C00
0800
0000
E1C0
E1C0
E1C0
E1C0
E1C0
E1C0
E1C0
E1C0
F1C0
7FC0
7F80
3F00
ENDCHAR
STARTCHAR 1F57
ENCODING 8023
SWIDTH 480 0
DWIDTH 12 0
BBX 10 21 1 0
BITMAP
0C00
1F00
3300
3180
0C00
0C00
0C00
0600
0000
E1C0
E1C0
E1C0
E1C0
E1C0
E1C0
E1C0
E1C0
F1C0
7FC0
7F80
3F00
ENDCHAR
STARTCHAR 1F59
ENCODING 8025
SWIDTH 480 0
DWIDTH 12 0
BBX 16 16 -4 0
BITMAP
6000
F707
670E
678E
338E
039C
01DC
01F8
00F8
00F0
0070
0070
0070
0070
0070
0070
ENDCHAR
STARTCHAR 1F5B
ENCODING 8027
SWIDTH 480 0
DWIDTH 12 0
BBX 20 16 -8 0
BITMAP
640000
EE7070
E770E0
6378E0
31B8E0
0039C0
001DC0
001F80
000F80
000F00
000700
000700
000700
000700
000700
000700
ENDCHAR
STARTCHAR 1F5D
ENCODING 8029
SWIDTH 480 0
DWIDTH 12 0
BBX 21 16 -9 0
BITMAP
E10000
E3B838
E73870
663C70
7E1C70
001CE0
000EE0
000FC0
0007C0
000780
000380
000380
000380
000380
000380
000380
ENDCHAR
STARTCHAR 1F5F
ENCODING 8031
SWIDTH 480 0
DWIDTH 12 0
BBX 19 18 -7 0
BITMAP
780000
FC0000
C60000
86E0E0
30E1C0
30F1C0
1871C0
007380
003B80
003F00
001F00
001E00
000E00
000E00
000E00
000E00
000E00
000E00
ENDCHAR
STARTCHAR 1F60
ENCODING 8032
SWIDTH 480 0
DWIDTH 12 0
BBX 11 19 1 0
BITMAP
0400
0E00
0E00
0600
0C00
0800
0000
6180
71C0
E1C0
E0C0
E0E0
CCE0
CCE0
CCE0
CEE0
EEE0
FFC0
7BC0
ENDCHAR
STARTCHAR 1F61
ENCODING 8033
SWIDTH 480 0
DWIDTH 12 0
BBX 11 18 1 1
BITMAP
1E00
1C00
0C00
0E00
0600
0000
6180
71C0
E1C0
E0C0
E0E0
CCE0
CCE0
CCE0
CEE0
EEE0
FFC0
7BC0
ENDCHAR
STARTCHAR 1F62
ENCODING 8034
SWIDTH 480 0
DWIDTH 12 0
BBX 11 18 1 1
BITMAP
3B00
3B80
11C0
30C0
2000
0000
6180
71C0
E1C0
E0C0
E0E0
CCE0
CCE0
CCE0
CEE0
EEE0
FFC0
7BC0
ENDCHAR
STARTCHAR 1F63
ENCODING 8035
SWIDTH 480 0
DWIDTH 12 0
BBX 11 19 1 0
BITMAP
2000
7600
7700
6380
3180
1080
0000
6180
71C0
E1C0
E0C0
E0E0
CCE0
CCE0
CCE0
CEE0
EEE0
FFC0
7BC0
ENDCHAR
STARTCHAR 1F64
ENCODING 8036
SWIDTH 480 0
DWIDTH 12 0
BBX 11 19 1 0
BITMAP
1000
3980
3980
1B80
3300
2200
0000
6180
71C0
E1C0
E0C0
E0E0
CCE0
CCE0
CCE0
CEE0
EEE0
FFC0
7BC0
ENDCHAR
STARTCHAR 1F65
ENCODING 8037
SWIDTH 480 0
DWIDTH 12 0
BBX 11 18 1 1
BITMAP
70C0
71C0
2380
3300
1A00
0000
6180
71C0
E1C0
E0C0
E0E0
CCE0
CCE0
CCE0
CEE0
EEE0
FFC0
7BC0
ENDCHAR
STARTCHAR 1F66
ENCODING 8038
SWIDTH 480 0
DWIDTH 12 0
BBX 11 21 1 0
BITMAP
0C00
1F00
3300
3180
0C00
0E00
0C00
0800
0000
6180
71C0
E1C0
E0C0
E0E0
CCE0
CCE0
CCE0
CEE0
EEE0
FFC0
7BC0
ENDCHAR
STARTCHAR 1F67
ENCODING 8039
SWIDTH 480 0
DWIDTH 12 0
BBX 11 21 1 0
BITMAP
0C00
1F00
3300
3180
0C00
0C00
0C00
0600
0000
6180
71C0
E1C0
E0C0
E0E0
CCE0
CCE0
CCE0
CEE0
EEE0
FFC0
7BC0
ENDCHAR
STARTCHAR 1F68
ENCODING 8040
SWIDTH 480 0
DWIDTH 12 0
BBX 16 16 -4 0
BITMAP
70F0
71FC
73FE
778E
E707
0F07
0F07
0E07
0E07
0707
0707
070E
038E
0F9F
0FDF
0FDF
ENDCHAR
STARTCHAR 1F69
ENCODING 8041
SWIDTH 480 0
DWIDTH 12 0
BBX 17 16 -5 0
BITMAP
607800
F0FE00
E1FF00
63C700
338380
078380
078380
070380
070380
038380
038380
038700
01C700
07CF80
07EF80
07EF80
ENDCHAR
STARTCHAR 1F6A
ENCODING 8042
SWIDTH 480 0
DWIDTH 12 0
BBX 22 16 -10 0
BITMAP
7203C0
7707F0
730FF8
319E38
E19C1C
003C1C
003C1C
00381C
00381C
001C1C
001C1C
001C38
000E38
003E7C
003F7C
003F7C
ENDCHAR
STARTCHAR 1F6B
ENCODING 8043
SWIDTH 480 0
DWIDTH 12 0
BBX 21 16 -9 0
BITMAP
E40780
EE0FE0
E61FF0
633C70
333838
007838
007838
007038
007038
003838
003838
003870
001C70
007CF8
007EF8
007EF8
ENDCHAR
STARTCHAR 1F6C
ENCODING 8044
SWIDTH 480 0
DWIDTH 12 0
BBX 20 16 -8 0
BITMAP
710F00
739FC0
773FE0
6678E0
EC7070
00F070
00F070
00E070
00E070
007070
007070
0070E0
0038E0
00F9F0
00FDF0
00FDF0
ENDCHAR
STARTCHAR 1F6D
ENCODING 8045
SWIDTH 480 0
DWIDTH 12 0
BBX 20 16 -8 0
BITMAP
E00F00
E39FC0
E73FE0
6678E0
7C7070
00F070
00F070
00E070
00E070
007070
007070
0070E0
0038E0
00F9F0
00FDF0
00FDF0
ENDCHAR
STARTCHAR 1F6E
ENCODING 8046
SWIDTH 480 0
DWIDTH 12 0
BBX 18 18 -6 0
BITMAP
780000
FC0000
CC3C00
A67F00
30FF80
31E380
31C1C0
03C1C0
03C1C0
0381C0
0381C0
01C1C0
01C1C0
01C380
00E380
03E7C0
03F7C0
03F7C0
ENDCHAR
STARTCHAR 1F6F
ENCODING 8047
SWIDTH 480 0
DWIDTH 12 0
BBX 18 18 -6 0
BITMAP
780000
FC0000
CC3C00
867F00
30FF80
31E380
19C1C0
03C1C0
03C1C0
0381C0
0381C0
01C1C0
01C1C0
01C380
00E380
03E7C0
03F7C0
03F7C0
ENDCHAR
STARTCHAR 1F70
ENCODING 8048
SWIDTH 480 0
DWIDTH 12 0
BBX 11 17 1 1
BITMAP
1C00
1E00
0F80
0300
0000
1F80
3FC0
7FC0
F1C0
E1C0
E1C0
E1C0
E1C0
F1C0
73E0
7FE0
3EE0
ENDCHAR
STARTCHAR 1F71
ENCODING 8049
SWIDTH 480 0
DWIDTH 12 0
BBX 11 17 1 1
BITMAP
0700
0F80
1E00
0800
0000
1F80
3FC0
7FC0
F1C0
E1C0
E1C0
E1C0
E1C0
F1C0
73E0
7FE0
3EE0
ENDCHAR
STARTCHAR 1F72
ENCODING 8050
SWIDTH 480 0
DWIDTH 12 0
BBX 9 17 2 1
BITMAP
3800
3C00
1F00
0600
0000
3F80
7F80
FF00
E000
E000
7E00
FE00
E000
E000
F380
FF80
7F80
ENDCHAR
STARTCHAR 1F73
ENCODING 8051
SWIDTH 480 0
DWIDTH 12 0
BBX 9 17 2 1
BITMAP
0E00
1F00
3C00
1000
0000
3F80
7F80
FF00
E000
E000
7E00
FE00
E000
E000
F380
FF80
7F80
ENDCHAR
STARTCHAR 1F74
ENCODING 8052
SWIDTH 480 0
DWIDTH 12 0
BBX 9 21 2 -3
BITMAP
3800
3C00
1F00
0600
0000
FE00
FF00
FF80
E380
E380
E380
E380
E380
E380
E380
E380
E380
0380
0380
0380
0380
ENDCHAR
STARTCHAR 1F75
ENCODING 8053
SWIDTH 480 0
DWIDTH 12 0
BBX 9 21 2 -3
BITMAP
0E00
1F00
3C00
1000
0000
FE00
FF00
FF80
E380
E380
E380
E380
E380
E380
E380
E380
E380
0380
0380
0380
0380
ENDCHAR
STARTCHAR 1F76
ENCODING 8054
SWIDTH 480 0
DWIDTH 12 0
BBX 11 17 1 1
BITMAP
1C00
1E00
0F80
0300
0000
FC00
FC00
FC00
1C00
1C00
1C00
1C00
1C00
1C00
1FC0
0FE0
07E0
ENDCHAR
STARTCHAR 1F77
ENCODING 8055
SWIDTH 480 0
DWIDTH 12 0
BBX 11 17 1 1
BITMAP
0700
0F80
1E00
0800
0000
FC00
FC00
FC00
1C00
1C00
1C00
1C00
1C00
1C00
1FC0
0FE0
07E0
ENDCHAR
STARTCHAR 1F78
ENCODING 8056
SWIDTH 480 0
DWIDTH 12 0
BBX 11 17 1 1
BITMAP
1C00
1E00
0F80
0300
0000
1F00
7F80
7FC0
F1C0
E1E0
E0E0
E0E0
E1E0
E1C0
FBC0
7F80
3F00
ENDCHAR
STARTCHAR 1F79
ENCODING 8057
SWIDTH 480 0
DWIDTH 12 0
BBX 11 17 1 1
BITMAP
0700
0F80
1E00
0800
0000
1F00
7F80
7FC0
F1C0
E1E0
E0E0
E0E0
E1E0
E1C0
FBC0
7F80
3F00
ENDCHAR
STARTCHAR 1F7A
ENCODING 8058
SWIDTH 480 0
DWIDTH 12 0
BBX 10 17 1 1
BITMAP
1C00
1E00
0F80
0300
0000
E1C0
E1C0
E1C0
E1C0
E1C0
E1C0
E1C0
E1C0
F1C0
7FC0
7F80
3F00
ENDCHAR
STARTCHAR 1F7B
ENCODING 8059
SWIDTH 480 0
DWIDTH 12 0
BBX 10 17 1 1
BITMAP
0700
0F80
1E00
0800
0000
E1C0
E1C0
E1C0
E1C0
E1C0
E1C0
E1C0
E1C0
F1C0
7FC0
7F80
3F00
ENDCHAR
STARTCHAR 1F7C
ENCODING 8060
SWIDTH 480 0
DWIDTH 12 0
BBX 11 17 1 1
BITMAP
1C00
1E00
0F80
0300
0000
6180
71C0
E1C0
E0C0
E0E0
CCE0
CCE0
CCE0
CEE0
EEE0
FFC0
7BC0
ENDCHAR
STARTCHAR 1F7D
ENCODING 8061
SWIDTH 480 0
DWIDTH 12 0
BBX 11 17 1 1
BITMAP
0700
0F80
1E00
0800
0000
6180
71C0
E1C0
E0C0
E0E0
CCE0
CCE0
CCE0
CEE0
EEE0
FFC0
7BC0
ENDCHAR
STARTCHAR 1F80
ENCODING 8064
SWIDTH 480 0
DWIDTH 12 0
BBX 11 23 1 -4
BITMAP
0400
0E00
0E00
0600
0C00
0800
0000
1F80
3FC0
7FC0
F1C0
E1C0
E1C0
E1C0
E1C0
F1C0
73E0
7FE0
3EE0
0000
1C00
1C00
0E00
ENDCHAR
STARTCHAR 1F81
ENCODING 8065
SWIDTH 480 0
DWIDTH 12 0
BBX 11 22 1 -3
BITMAP
1E00
1C00
0C00
0E00
0600
0000
1F80
3FC0
7FC0
F1C0
E1C0
E1C0
E1C0
E1C0
F1C0
73E0
7FE0
3EE0
0000
1C00
1C00
0E00
ENDCHAR
STARTCHAR 1F82
ENCODING 8066
SWIDTH 480 0
DWIDTH 12 0
BBX 11 22 1 -3
BITMAP
3B00
3B80
11C0
30C0
2000
0000
1F80
3FC0
7FC0
F1C0
E1C0
E1C0
E1C0
E1C0
F1C0
73E0
7FE0
3EE0
0000
1C00
1C00
0E00
ENDCHAR
STARTCHAR 1F83
ENCODING 8067
SWIDTH 480 0
DWIDTH 12 0
BBX 11 23 1 -4
BITMAP
2000
7600
7700
6380
3180
1080
0000
1F80
3FC0
7FC0
F1C0
E1C0
E1C0
E1C0
E1C0
F1C0
73E0
7FE0
3EE0
0000
1C00
1C00
0E00
ENDCHAR
STARTCHAR 1F84
ENCODING 8068
SWIDTH 480 0
DWIDTH 12 0
BBX 11 23 1 -4
BITMAP
1000
3980
3980
1B80
3300
2200
0000
1F80
3FC0
7FC0
F1C0
E1C0
E1C0
E1C0
E1C0
F1C0
73E0
7FE0
3EE0
0000
1C00
1C00
0E00
ENDCHAR
STARTCHAR 1F85
ENCODING 8069
SWIDTH 480 0
DWIDTH 12 0
BBX 11 22 1 -3
BITMAP
70C0
71C0
2380
3300
1A00
0000
1F80
3FC0
7FC0
F1C0
E1C0
E1C0
E1C0
E1C0
F1C0
73E0
7FE0
3EE0
0000
1C00
1C00
0E00
ENDCHAR
STARTCHAR 1F86
ENCODING 8070
SWIDTH 480 0
DWIDTH 12 0
BBX 11 25 1 -4
BITMAP
0C00
1F00
3300
3180
0C00
0E00
0C00
0800
0000
1F80
3FC0
7FC0
F1C0
E1C0
E1C0
E1C0
E1C0
F1C0
73E0
7FE0
3EE0
0000
1C00
1C00
0E00
ENDCHAR
STARTCHAR 1F87
ENCODING 8071
SWIDTH 480 0
DWIDTH 12 0
BBX 11 25 1 -4
BITMAP
0C00
1F00
3300
3180
0C00
0C00
0C00
0600
0000
1F80
3FC0
7FC0
F1C0
E1C0
E1C0
E1C0
E1C0
F1C0
73E0
7FE0
3EE0
0000
1C00
1C00
0E00
ENDCHAR
STARTCHAR 1F88
ENCODING 8072
SWIDTH 480 0
DWIDTH 12 0
BBX 15 16 -2 0
BITMAP
6000
F700
7780
6D80
CD9C
0D9C
0D9C
0DDC
1DDC
1DDC
1FDC
1FDC
18DC
18FC
38EE
38EE
ENDCHAR
STARTCHAR 1F89
ENCODING 8073
SWIDTH 480 0
DWIDTH 12 0
BBX 15 16 -2 0
BITMAP
C000
E700
C780
CD80
6D9C
2D9C
0D9C
0DDC
1DDC
1DDC
1FDC
1FDC
18DC
18FC
38EE
38EE
ENDCHAR
STARTCHAR 1F8A
ENCODING 8074
SWIDTH 480 0
DWIDTH 12 0
BBX 21 16 -8 0
BITMAP
720000
771C00
731E00
63B600
C1B670
003670
003670
003770
007770
007770
007F70
007F70
006370
0063F0
00E3B8
00E3B8
ENDCHAR
STARTCHAR 1F8B
ENCODING 8075
SWIDTH 480 0
DWIDTH 12 0
BBX 20 16 -7 0
BITMAP
E40000
EE3800
E63C00
C76C00
636CE0
206CE0
006CE0
006EE0
00EEE0
00EEE0
00FEE0
00FEE0
00C6E0
00C7E0
01C770
01C770
ENDCHAR
STARTCHAR 1F8C
ENCODING 8076
SWIDTH 480 0
DWIDTH 12 0
BBX 20 16 -7 0
BITMAP
710000
73B800
773C00
366C00
E66CE0
006CE0
006CE0
006EE0
00EEE0
00EEE0
00FEE0
00FEE0
00C6E0
00C7E0
01C770
01C770
ENDCHAR
STARTCHAR 1F8D
ENCODING 8077
SWIDTH 480 0
DWIDTH 12 0
BBX 20 16 -7 0
BITMAP
E10000
E3B800
E73C00
666C00
7E6CE0
006CE0
006CE0
006EE0
00EEE0
00EEE0
00FEE0
00FEE0
00C6E0
00C7E0
01C770
01C770
ENDCHAR
STARTCHAR 1F8E
ENCODING 8078
SWIDTH 480 0
DWIDTH 12 0
BBX 18 18 -5 0
BITMAP
780000
FC0000
C60000
86E000
38F000
31B000
31B380
21B380
01B380
01BB80
03BB80
03BB80
03FB80
03FB80
031B80
031F80
071DC0
071DC0
ENDCHAR
STARTCHAR 1F8F
ENCODING 8079
SWIDTH 480 0
DWIDTH 12 0
BBX 18 18 -5 0
BITMAP
780000
FC0000
C60000
96E000
38F000
31B000
19B380
01B380
01B380
01BB80
03BB80
03BB80
03FB80
03FB80
031B80
031F80
071DC0
071DC0
ENDCHAR
STARTCHAR 1F90
ENCODING 8080
SWIDTH 480 0
DWIDTH 12 0
BBX 9 23 2 -4
BITMAP
0800
1C00
1C00
0C00
1800
1000
0000
FE00
FF00
FF80
E380
E380
E380
E380
E380
E380
E380
E380
E380
0380
C380
E380
F380
ENDCHAR
STARTCHAR 1F91
ENCODING 8081
SWIDTH 480 0
DWIDTH 12 0
BBX 9 22 2 -3
BITMAP
3C00
3800
1800
1C00
0C00
0000
FE00
FF00
FF80
E380
E380
E380
E380
E380
E380
E380
E380
E380
0380
C380
E380
F380
ENDCHAR
STARTCHAR 1F92
ENCODING 8082
SWIDTH 480 0
DWIDTH 12 0
BBX 9 22 2 -3
BITMAP
7600
7700
2380
6180
4000
0000
FE00
FF00
FF80
E380
E380
E380
E380
E380
E380
E380
E380
E380
0380
C380
E380
F380
ENDCHAR
STARTCHAR 1F93
ENCODING 8083
SWIDTH 480 0
DWIDTH 12 0
BBX 9 23 2 -4
BITMAP
4000
EC00
EE00
C700
6300
2100
0000
FE00
FF00
FF80
E380
E380
E380
E380
E380
E380
E380
E380
E380
0380
C380
E380
F380
ENDCHAR
STARTCHAR 1F94
ENCODING 8084
SWIDTH 480 0
DWIDTH 12 0
BBX 9 23 2 -4
BITMAP
2000
7300
7300
3700
6600
4400
0000
FE00
FF00
FF80
E380
E380
E380
E380
E380
E380
E380
E380
E380
0380
C380
E380
F380
ENDCHAR
STARTCHAR 1F95
ENCODING 8085
SWIDTH 480 0
DWIDTH 12 0
BBX 9 22 2 -3
BITMAP
E180
E380
4700
6600
3400
0000
FE00
FF00
FF80
E380
E380
E380
E380
E380
E380
E380
E380
E380
0380
C380
E380
F380
ENDCHAR
STARTCHAR 1F96
ENCODING 8086
SWIDTH 480 0
DWIDTH 12 0
BBX 9 25 2 -4
BITMAP
1800
3E00
6600
6300
1800
1C00
1800
1000
0000
FE00
FF00
FF80
E380
E380
E380
E380
E380
E380
E380
E380
E380
0380
C380
E380
F380
ENDCHAR
STARTCHAR 1F97
ENCODING 8087
SWIDTH 480 0
DWIDTH 12 0
BBX 9 25 2 -4
BITMAP
1800
3E00
6600
6300
1800
1800
1800
0C00
0000
FE00
FF00
FF80
E380
E380
E380
E380
E380
E380
E380
E380
E380
0380
C380
E380
F380
ENDCHAR
STARTCHAR 1F98
ENCODING 8088
SWIDTH 480 0
DWIDTH 12 0
BBX 16 16 -4 0
BITMAP
6000
FE70
6E70
6E70
CE76
0E76
0E76
0FF6
0FF6
0E76
0E76
0E76
0E76
0E77
0E77
0E73
ENDCHAR
STARTCHAR 1F99
ENCODING 8089
SWIDTH 480 0
DWIDTH 12 0
BBX 16 16 -4 0
BITMAP
E000
EE70
EE70
6E70
7E76
0E76
0E76
0FF6
0FF6
0E76
0E76
0E76
0E76
0E77
0E77
0E73
ENDCHAR
STARTCHAR 1F9A
ENCODING 8090
SWIDTH 480 0
DWIDTH 12 0
BBX 21 16 -9 0
BITMAP
600000
EE7380
677380
637380
C1F3B0
8073B0
0073B0
007FB0
007FB0
0073B0
0073B0
0073B0
0073B0
0073B8
0073B8
007398
ENDCHAR
STARTCHAR 1F9B
ENCODING 8091
SWIDTH 480 0
DWIDTH 12 0
BBX 21 16 -9 0
BITMAP
600000
EE7380
E77380
637380
31F3B0
0073B0
0073B0
007FB0
007FB0
0073B0
0073B0
0073B0
0073B0
0073B8
0073B8
007398
ENDCHAR
STARTCHAR 1F9C
ENCODING 8092
SWIDTH 480 0
DWIDTH 12 0
BBX 21 16 -9 0
BITMAP
710000
73F380
777380
367380
E673B0
0073B0
0073B0
007FB0
007FB0
0073B0
0073B0
0073B0
0073B0
0073B8
0073B8
007398
ENDCHAR
STARTCHAR 1F9D
ENCODING 8093
SWIDTH 480 0
DWIDTH 12 0
BBX 21 16 -9 0
BITMAP
E10000
E3F380
E77380
667380
3E73B0
0073B0
0073B0
007FB0
007FB0
0073B0
0073B0
0073B0
0073B0
0073B8
0073B8
007398
ENDCHAR
STARTCHAR 1F9E
ENCODING 8094
SWIDTH 480 0
DWIDTH 12 0
BBX 19 18 -7 0
BITMAP
780000
FC0000
C60000
D7CE00
39CE00
31CE00
31CEC0
21CEC0
01CEC0
01FEC0
01FEC0
01CEC0
01CEC0
01CEC0
01CEC0
01CEE0
01CEE0
01CE60
ENDCHAR
STARTCHAR 1F9F
ENCODING 8095
SWIDTH 480 0
DWIDTH 12 0
BBX 19 18 -7 0
BITMAP
780000
FC0000
C60000
D7CE00
39CE00
31CE00
19CEC0
01CEC0
01CEC0
01FEC0
01FEC0
01CEC0
01CEC0
01CEC0
01CEC0
01CEE0
01CEE0
01CE60
ENDCHAR
STARTCHAR 1FA0
ENCODING 8096
SWIDTH 480 0
DWIDTH 12 0
BBX 11 23 1 -4
BITMAP
0400
0E00
0E00
0600
0C00
0800
0000
6180
71C0
E1C0
E0C0
E0E0
CCE0
CCE0
CCE0
CEE0
EEE0
FFC0
7BC0
0000
0C00
0E00
0F00
ENDCHAR
STARTCHAR 1FA1
ENCODING 8097
SWIDTH 480 0
DWIDTH 12 0
BBX 11 22 1 -3
BITMAP
1E00
1C00
0C00
0E00
0600
0000
6180
71C0
E1C0
E0C0
E0E0
CCE0
CCE0
CCE0
CEE0
EEE0
FFC0
7BC0
0000
0C00
0E00
0F00
ENDCHAR
STARTCHAR 1FA2
ENCODING 8098
SWIDTH 480 0
DWIDTH 12 0
BBX 11 22 1 -3
BITMAP
3B00
3B80
11C0
30C0
2000
0000
6180
71C0
E1C0
E0C0
E0E0
CCE0
CCE0
CCE0
CEE0
EEE0
FFC0
7BC0
0000
0C00
0E00
0F00
ENDCHAR
STARTCHAR 1FA3
ENCODING 8099
SWIDTH 480 0
DWIDTH 12 0
BBX 11 23 1 -4
BITMAP
2000
7600
7700
6380
3180
1080
0000
6180
71C0
E1C0
E0C0
E0E0
CCE0
CCE0
CCE0
CEE0
EEE0
FFC0
7BC0
0000
0C00
0E00
0F00
ENDCHAR
STARTCHAR 1FA4
ENCODING 8100
SWIDTH 480 0
DWIDTH 12 0
BBX 11 23 1 -4
BITMAP
1000
3980
3980
1B80
3300
2200
0000
6180
71C0
E1C0
E0C0
E0E0
CCE0
CCE0
CCE0
CEE0
EEE0
FFC0
7BC0
0000
0C00
0E00
0F00
ENDCHAR
STARTCHAR 1FA5
ENCODING 8101
SWIDTH 480 0
DWIDTH 12 0
BBX 11 22 1 -3
BITMAP
70C0
71C0
2380
3300
1A00
0000
6180
71C0
E1C0
E0C0
E0E0
CCE0
CCE0
CCE0
CEE0
EEE0
FFC0
7BC0
0000
0C00
0E00
0F00
ENDCHAR
STARTCHAR 1FA6
ENCODING 8102
SWIDTH 480 0
DWIDTH 12 0
BBX 11 25 1 -4
BITMAP
0C00
1F00
3300
3180
0C00
0E00
0C00
0800
0000
6180
71C0
E1C0
E0C0
E0E0
CCE0
CCE0
CCE0
CEE0
EEE0
FFC0
7BC0
0000
0C00
0E00
0F00
ENDCHAR
STARTCHAR 1FA7
ENCODING 8103
SWIDTH 480 0
DWIDTH 12 0
BBX 11 25 1 -4
BITMAP
0C00
1F00
3300
3180
0C00
0C00
0C00
0600
0000
6180
71C0
E1C0
E0C0
E0E0
CCE0
CCE0
CCE0
CEE0
EEE0
FFC0
7BC0
0000
0C00
0E00
0F00
ENDCHAR
STARTCHAR 1FA8
ENCODING 8104
SWIDTH 480 0
DWIDTH 12 0
BBX 17 16 -4 0
BITMAP
718000
73E000
77E000
767000
E67700
0E3700
0E3700
0E3700
0E3700
063700
067700
067700
066700
036700
0F7380
0F7380
ENDCHAR
STARTCHAR 1FA9
ENCODING 8105
SWIDTH 480 0
DWIDTH 12 0
BBX 18 16 -5 0
BITMAP
60C000
F1F000
E3F000
633800
333B80
071B80
071B80
071B80
071B80
031B80
033B80
033B80
033380
01B380
07B9C0
07B9C0
ENDCHAR
STARTCHAR 1FAA
ENCODING 8106
SWIDTH 480 0
DWIDTH 12 0
BBX 23 16 -10 0
BITMAP
720600
770F80
731F80
3199C0
E199DC
0038DC
0038DC
0038DC
0038DC
0018DC
0019DC
0019DC
00199C
000D9C
003DCE
003DCE
ENDCHAR
STARTCHAR 1FAB
ENCODING 8107
SWIDTH 480 0
DWIDTH 12 0
BBX 22 16 -9 0
BITMAP
E40C00
EE1F00
E63F00
633380
3333B8
0071B8
0071B8
0071B8
0071B8
0031B8
0033B8
0033B8
003338
001B38
007B9C
007B9C
ENDCHAR
STARTCHAR 1FAC
ENCODING 8108
SWIDTH 480 0
DWIDTH 12 0
BBX 21 16 -8 0
BITMAP
711800
73BE00
777E00
666700
EC6770
00E370
00E370
00E370
00E370
006370
006770
006770
006670
003670
00F738
00F738
ENDCHAR
STARTCHAR 1FAD
ENCODING 8109
SWIDTH 480 0
DWIDTH 12 0
BBX 21 16 -8 0
BITMAP
E01800
E3BE00
E77E00
666700
7C6770
00E370
00E370
00E370
00E370
006370
006770
006770
006670
003670
00F738
00F738
ENDCHAR
STARTCHAR 1FAE
ENCODING 8110
SWIDTH 480 0
DWIDTH 12 0
BBX 19 18 -6 0
BITMAP
780000
FC0000
CC6000
A6F800
31F800
319C00
319DC0
038DC0
038DC0
038DC0
038DC0
018DC0
019DC0
019DC0
0199C0
00D9C0
03DCE0
03DCE0
ENDCHAR
STARTCHAR 1FAF
ENCODING 8111
SWIDTH 480 0
DWIDTH 12 0
BBX 19 18 -6 0
BITMAP
780000
FC0000
CC6000
86F800
31F800
319C00
199DC0
038DC0
038DC0
038DC0
038DC0
018DC0
019DC0
019DC0
0199C0
00D9C0
03DCE0
03DCE0
ENDCHAR
STARTCHAR 1FB0
ENCODING 8112
SWIDTH 480 0
DWIDTH 12 0
BBX 11 17 1 0
BITMAP
3180
3F80
3F00
0C00
0000
1F80
3FC0
7FC0
F1C0
E1C0
E1C0
E1C0
E1C0
F1C0
73E0
7FE0
3EE0
ENDCHAR
STARTCHAR 1FB1
ENCODING 8113
SWIDTH 480 0
DWIDTH 12 0
BBX 11 16 1 0
BITMAP
3F80
3F80
0000
0000
1F80
3FC0
7FC0
F1C0
E1C0
E1C0
E1C0
E1C0
F1C0
73E0
7FE0
3EE0
ENDCHAR
STARTCHAR 1FB2
ENCODING 8114
SWIDTH 480 0
DWIDTH 12 0
BBX 11 21 1 -3
BITMAP
1C00
1E00
0F80
0300
0000
1F80
3FC0
7FC0
F1C0
E1C0
E1C0
E1C0
E1C0
F1C0
73E0
7FE0
3EE0
0000
1C00
1C00
0E00
ENDCHAR
STARTCHAR 1FB3
ENCODING 8115
SWIDTH 480 0
DWIDTH 12 0
BBX 11 16 1 -4
BITMAP
1F80
3FC0
7FC0
F1C0
E1C0
E1C0
E1C0
E1C0
F1C0
73E0
7FE0
3EE0
0000
1C00
1C00
0E00
ENDCHAR
STARTCHAR 1FB4
ENCODING 8116
SWIDTH 480 0
DWIDTH 12 0
BBX 11 21 1 -3
BITMAP
0700
0F80
1E00
0800
0000
1F80
3FC0
7FC0
F1C0
E1C0
E1C0
E1C0
E1C0
F1C0
73E0
7FE0
3EE0
0000
1C00
1C00
0E00
ENDCHAR
STARTCHAR 1FB6
ENCODING 8118
SWIDTH 480 0
DWIDTH 12 0
BBX 11 17 1 0
BITMAP
0F00
1F80
3980
3180
0000
1F80
3FC0
7FC0
F1C0
E1C0
E1C0
E1C0
E1C0
F1C0
73E0
7FE0
3EE0
ENDCHAR
STARTCHAR 1FB7
ENCODING 8119
SWIDTH 480 0
DWIDTH 12 0
BBX 11 21 1 -4
BITMAP
0F00
1F80
3980
3180
0000
1F80
3FC0
7FC0
F1C0
E1C0
E1C0
E1C0
E1C0
F1C0
73E0
7FE0
3EE0
0000
1C00
1C00
0E00
ENDCHAR
STARTCHAR 1FB8
ENCODING 8120
SWIDTH 480 0
DWIDTH 12 0
BBX 12 21 0 0
BITMAP
18C0
19C0
1F80
0F80
0000
0000
0F00
0F80
0F80
1F80
1DC0
19C0
39C0
39C0
38E0
3FE0
7FE0
70E0
70F0
7070
F070
ENDCHAR
STARTCHAR 1FB9
ENCODING 8121
SWIDTH 480 0
DWIDTH 12 0
BBX 12 20 0 0
BITMAP
1FC0
1FC0
1FC0
0000
0000
0F00
0F80
0F80
1F80
1DC0
19C0
39C0
39C0
38E0
3FE0
7FE0
70E0
70F0
7070
F070
ENDCHAR
STARTCHAR 1FBA
ENCODING 8122
SWIDTH 480 0
DWIDTH 12 0
BBX 16 15 -4 0
BITMAP
60F0
F0F8
7CF8
19F8
01DC
019C
039C
039C
038E
03FE
07FE
070E
070F
0707
0F07
ENDCHAR
STARTCHAR 1FBB
ENCODING 8123
SWIDTH 480 0
DWIDTH 12 0
BBX 15 15 -3 0
BITMAP
19E0
79F0
F1F0
43F0
03B8
0338
0738
0738
071C
07FC
0FFC
0E1C
0E1E
0E0E
1E0E
ENDCHAR
STARTCHAR 1FBC
ENCODING 8124
SWIDTH 480 0
DWIDTH 12 0
BBX 13 15 0 0
BITMAP
1C00
1E00
3600
3670
3670
3670
3770
7770
7770
7F70
7F70
6370
63F0
E3B8
E3B8
ENDCHAR
STARTCHAR 1FBD
ENCODING 8125
SWIDTH 480 0
DWIDTH 12 0
BBX 3 6 5 13
BITMAP
40
E0
E0
60
C0
80
ENDCHAR
STARTCHAR 1FBE
ENCODING 8126
SWIDTH 480 0
DWIDTH 12 0
BBX 4 3 4 -4
BITMAP
E0
E0
70
ENDCHAR
STARTCHAR 1FBF
ENCODING 8127
SWIDTH 480 0
DWIDTH 12 0
BBX 3 6 5 13
BITMAP
40
E0
E0
60
C0
80
ENDCHAR
STARTCHAR 1FC0
ENCODING 8128
SWIDTH 480 0
DWIDTH 12 0
BBX 7 4 3 13
BITMAP
78
FC
CE
C6
ENDCHAR
STARTCHAR 1FC1
ENCODING 8129
SWIDTH 480 0
DWIDTH 12 0
BBX 8 8 2 13
BITMAP
18
3E
66
63
00
67
E7
42
ENDCHAR
STARTCHAR 1FC2
ENCODING 8130
SWIDTH 480 0
DWIDTH 12 0
BBX 9 21 2 -3
BITMAP
1800
3E00
1F00
0600
0000
FE00
FF00
FF80
E380
E380
E380
E380
E380
E380
E380
E380
E380
0380
C380
E380
F380
ENDCHAR
STARTCHAR 1FC3
ENCODING 8131
SWIDTH 480 0
DWIDTH 12 0
BBX 9 16 2 -4
BITMAP
FE00
FF00
FF80
E380
E380
E380
E380
E380
E380
E380
E380
E380
0380
C380
E380
F380
ENDCHAR
STARTCHAR 1FC4
ENCODING 8132
SWIDTH 480 0
DWIDTH 12 0
BBX 9 21 2 -3
BITMAP
0600
1F00
3C00
1000
0000
FE00
FF00
FF80
E380
E380
E380
E380
E380
E380
E380
E380
E380
0380
C380
E380
F380
ENDCHAR
STARTCHAR 1FC6
ENCODING 8134
SWIDTH 480 0
DWIDTH 12 0
BBX 9 21 2 -4
BITMAP
3C00
7E00
6700
6300
0000
FE00
FF00
FF80
E380
E380
E380
E380
E380
E380
E380
E380
E380
0380
0380
0380
0380
ENDCHAR
STARTCHAR 1FC7
ENCODING 8135
SWIDTH 480 0
DWIDTH 12 0
BBX 9 21 2 -4
BITMAP
3C00
7E00
6700
6300
0000
FE00
FF00
FF80
E380
E380
E380
E380
E380
E380
E380
E380
E380
0380
C380
E380
F380
ENDCHAR
STARTCHAR 1FC8
ENCODING 8136
SWIDTH 480 0
DWIDTH 12 0
BBX 17 15 -5 0
BITMAP
61FF00
F1FF00
79C000
19C000
01C000
01C000
01FE00
01FE00
01C000
01C000
01C000
01C000
01FF80
01FF80
01FF80
ENDCHAR
STARTCHAR 1FC9
ENCODING 8137
SWIDTH 480 0
DWIDTH 12 0
BBX 17 15 -5 0
BITMAP
19FF00
39FF00
F9C000
61C000
01C000
01C000
01FE00
01FE00
01C000
01C000
01C000
01C000
01FF80
01FF80
01FF80
ENDCHAR
STARTCHAR 1FCA
ENCODING 8138
SWIDTH 480 0
DWIDTH 12 0
BBX 16 15 -5 0
BITMAP
4387
F387
7B87
1387
0387
0387
03FF
03FF
0387
0387
0387
0387
0387
0387
0387
ENDCHAR
STARTCHAR 1FCB
ENCODING 8139
SWIDTH 480 0
DWIDTH 12 0
BBX 16 15 -5 0
BITMAP
1387
7B87
F387
4387
0387
0387
03FF
03FF
0387
0387
0387
0387
0387
0387
0387
ENDCHAR
STARTCHAR 1FCC
ENCODING 8140
SWIDTH 480 0
DWIDTH 12 0
BBX 12 15 0 0
BITMAP
E700
E700
E700
E760
E760
E760
FF60
FF60
E760
E760
E760
E760
E770
E770
E730
ENDCHAR
STARTCHAR 1FCD
ENCODING 8141
SWIDTH 480 0
DWIDTH 12 0
BBX 9 6 2 13
BITMAP
4000
E600
E600
6300
C380
8100
ENDCHAR
STARTCHAR 1FCE
ENCODING 8142
SWIDTH 480 0
DWIDTH 12 0
BBX 8 5 2 14
BITMAP
73
77
66
6C
C4
ENDCHAR
STARTCHAR 1FCF
ENCODING 8143
SWIDTH 480 0
DWIDTH 12 0
BBX 7 8 3 13
BITMAP
30
7C
CC
C6
30
38
30
20
ENDCHAR
STARTCHAR 1FD0
ENCODING 8144
SWIDTH 480 0
DWIDTH 12 0
BBX 11 17 1 0
BITMAP
6300
7F00
3E00
1800
0000
FC00
FC00
FC00
1C00
1C00
1C00
1C00
1C00
1C00
1FC0
0FE0
07E0
ENDCHAR
STARTCHAR 1FD1
ENCODING 8145
SWIDTH 480 0
DWIDTH 12 0
BBX 11 16 1 0
BITMAP
7F00
7F00
0000
0000
FC00
FC00
FC00
1C00
1C00
1C00
1C00
1C00
1C00
1FC0
0FE0
07E0
ENDCHAR
STARTCHAR 1FD2
ENCODING 8146
SWIDTH 480 0
DWIDTH 12 0
BBX 11 18 1 0
BITMAP
1800
D880
EDC0
EDC0
0680
0000
FC00
FC00
FC00
1C00
1C00
1C00
1C00
1C00
1C00
1FC0
0FE0
07E0
ENDCHAR
STARTCHAR 1FD3
ENCODING 8147
SWIDTH 480 0
DWIDTH 12 0
BBX 11 18 1 0
BITMAP
0600
CE80
EDC0
FDC0
1880
0000
FC00
FC00
FC00
1C00
1C00
1C00
1C00
1C00
1C00
1FC0
0FE0
07E0
ENDCHAR
STARTCHAR 1FD6
ENCODING 8150
SWIDTH 480 0
DWIDTH 12 0
BBX 11 17 1 0
BITMAP
3C00
7E00
6700
6300
0000
FC00
FC00
FC00
1C00
1C00
1C00
1C00
1C00
1C00
1FC0
0FE0
07E0
ENDCHAR
STARTCHAR 1FD7
ENCODING 8151
SWIDTH 480 0
DWIDTH 12 0
BBX 11 21 1 0
BITMAP
0800
3E00
7700
6300
0000
6300
E700
6200
0000
FC00
FC00
FC00
1C00
1C00
1C00
1C00
1C00
1C00
1FC0
0FE0
07E0
ENDCHAR
STARTCHAR 1FD8
ENCODING 8152
SWIDTH 480 0
DWIDTH 12 0
BBX 10 21 1 0
BITMAP
3180
3380
3F00
1F00
0000
0000
FFC0
FFC0
0E00
0E00
0E00
0E00
0E00
0E00
0E00
0E00
0E00
0E00
FFC0
FFC0
FFC0
ENDCHAR
STARTCHAR 1FD9
ENCODING 8153
SWIDTH 480 0
DWIDTH 12 0
BBX 10 20 1 0
BITMAP
3F80
3F80
3F80
0000
0000
FFC0
FFC0
0E00
0E00
0E00
0E00
0E00
0E00
0E00
0E00
0E00
0E00
FFC0
FFC0
FFC0
ENDCHAR
STARTCHAR 1FDA
ENCODING 8154
SWIDTH 480 0
DWIDTH 12 0
BBX 16 15 -5 0
BITMAP
C3FF
F3FF
7838
1038
0038
0038
0038
0038
0038
0038
0038
0038
03FF
03FF
03FF
ENDCHAR
STARTCHAR 1FDB
ENCODING 8155
SWIDTH 480 0
DWIDTH 12 0
BBX 17 15 -6 0
BITMAP
19FF80
3DFF80
F81C00
601C00
001C00
001C00
001C00
001C00
001C00
001C00
001C00
001C00
01FF80
01FF80
01FF80
ENDCHAR
STARTCHAR 1FDD
ENCODING 8157
SWIDTH 480 0
DWIDTH 12 0
BBX 8 6 2 13
BITMAP
40
EC
EE
C7
63
21
ENDCHAR
STARTCHAR 1FDE
ENCODING 8158
SWIDTH 480 0
DWIDTH 12 0
BBX 8 5 2 14
BITMAP
E3
E7
C6
6E
24
ENDCHAR
STARTCHAR 1FDF
ENCODING 8159
SWIDTH 480 0
DWIDTH 12 0
BBX 7 8 3 13
BITMAP
30
7C
CC
C6
30
30
30
18
ENDCHAR
STARTCHAR 1FE0
ENCODING 8160
SWIDTH 480 0
DWIDTH 12 0
BBX 10 17 1 0
BITMAP
3180
3F80
3F00
0C00
0000
E1C0
E1C0
E1C0
E1C0
E1C0
E1C0
E1C0
E1C0
F1C0
7FC0
7F80
3F00
ENDCHAR
STARTCHAR 1FE1
ENCODING 8161
SWIDTH 480 0
DWIDTH 12 0
BBX 10 16 1 0
BITMAP
3F80
3F80
0000
0000
E1C0
E1C0
E1C0
E1C0
E1C0
E1C0
E1C0
E1C0
F1C0
7FC0
7F80
3F00
ENDCHAR
STARTCHAR 1FE2
ENCODING 8162
SWIDTH 480 0
DWIDTH 12 0
BBX 11 18 1 0
BITMAP
0800
5CC0
EDE0
E7C0
0680
0000
E1C0
E1C0
E1C0
E1C0
E1C0
E1C0
E1C0
E1C0
F1C0
7FC0
7F80
3F00
ENDCHAR
STARTCHAR 1FE3
ENCODING 8163
SWIDTH 480 0
DWIDTH 12 0
BBX 11 18 1 0
BITMAP
0600
46C0
EFE0
EDC0
0880
0000
E1C0
E1C0
E1C0
E1C0
E1C0
E1C0
E1C0
E1C0
F1C0
7FC0
7F80
3F00
ENDCHAR
STARTCHAR 1FE4
ENCODING 8164
SWIDTH 480 0
DWIDTH 12 0
BBX 10 23 2 -4
BITMAP
0800
1C00
1C00
0C00
1800
1000
0000
3E00
7F00
FF80
E380
E3C0
E1C0
E1C0
E3C0
E380
E780
FF80
FE00
E000
E000
E000
E000
ENDCHAR
STARTCHAR 1FE5
ENCODING 8165
SWIDTH 480 0
DWIDTH 12 0
BBX 10 22 2 -3
BITMAP
3C00
3800
1800
1C00
0C00
0000
3E00
7F00
FF80
E380
E3C0
E1C0
E1C0
E3C0
E380
E780
FF80
FE00
E000
E000
E000
E000
ENDCHAR
STARTCHAR 1FE6
ENCODING 8166
SWIDTH 480 0
DWIDTH 12 0
BBX 10 17 1 0
BITMAP
1E00
3F00
3380
3180
0000
E1C0
E1C0
E1C0
E1C0
E1C0
E1C0
E1C0
E1C0
F1C0
7FC0
7F80
3F00
ENDCHAR
STARTCHAR 1FE7
ENCODING 8167
SWIDTH 480 0
DWIDTH 12 0
BBX 10 21 1 0
BITMAP
0C00
1F00
3300
3180
0000
3380
7380
2100
0000
E1C0
E1C0
E1C0
E1C0
E1C0
E1C0
E1C0
E1C0
F1C0
7FC0
7F80
3F00
ENDCHAR
STARTCHAR 1FE8
ENCODING 8168
SWIDTH 480 0
DWIDTH 12 0
BBX 11 21 1 0
BITMAP
3180
3380
3F00
1F00
0000
0000
E0E0
E1C0
F1C0
71C0
7380
3B80
3F00
1F00
1E00
0E00
0E00
0E00
0E00
0E00
0E00
ENDCHAR
STARTCHAR 1FE9
ENCODING 8169
SWIDTH 480 0
DWIDTH 12 0
BBX 11 20 1 0
BITMAP
3F80
3F80
3F80
0000
0000
E0E0
E1C0
F1C0
71C0
7380
3B80
3F00
1F00
1E00
0E00
0E00
0E00
0E00
0E00
0E00
ENDCHAR
STARTCHAR 1FEA
ENCODING 8170
SWIDTH 480 0
DWIDTH 12 0
BBX 17 15 -5 0
BITMAP
638380
F38700
7BC700
19C700
01CE00
00EE00
00FC00
007C00
007800
003800
003800
003800
003800
003800
003800
ENDCHAR
STARTCHAR 1FEB
ENCODING 8171
SWIDTH 480 0
DWIDTH 12 0
BBX 17 15 -5 0
BITMAP
338380
7B8700
F3C700
C1C700
01CE00
00EE00
00FC00
007C00
007800
003800
003800
003800
003800
003800
003800
ENDCHAR
STARTCHAR 1FEC
ENCODING 8172
SWIDTH 480 0
DWIDTH 12 0
BBX 16 16 -4 0
BITMAP
E1E0
E7FC
E7FE
E70F
7707
0707
0707
070F
07FE
07FC
07F0
0700
0700
0700
0700
0700
ENDCHAR
STARTCHAR 1FED
ENCODING 8173
SWIDTH 480 0
DWIDTH 12 0
BBX 11 5 1 13
BITMAP
0800
5CC0
EDE0
E7C0
0680
ENDCHAR
STARTCHAR 1FEE
ENCODING 8174
SWIDTH 480 0
DWIDTH 12 0
BBX 11 5 1 13
BITMAP
0600
46C0
EFE0
EDC0
0880
ENDCHAR
STARTCHAR 1FEF
ENCODING 8175
SWIDTH 480 0
DWIDTH 12 0
BBX 6 4 3 14
BITMAP
60
F8
3C
08
ENDCHAR
STARTCHAR 1FF2
ENCODING 8178
SWIDTH 480 0
DWIDTH 12 0
BBX 11 21 1 -3
BITMAP
1800
3E00
0F00
0200
0000
6180
71C0
E1C0
E0C0
E0E0
CCE0
CCE0
CCE0
CEE0
EEE0
FFC0
7BC0
0000
0C00
0E00
0F00
ENDCHAR
STARTCHAR 1FF3
ENCODING 8179
SWIDTH 480 0
DWIDTH 12 0
BBX 11 16 1 -4
BITMAP
6180
71C0
E1C0
E0C0
E0E0
CCE0
CCE0
CCE0
CEE0
EEE0
FFC0
7BC0
0000
0C00
0E00
0F00
ENDCHAR
STARTCHAR 1FF4
ENCODING 8180
SWIDTH 480 0
DWIDTH 12 0
BBX 11 22 1 -4
BITMAP
0100
0300
0F80
1E00
0C00
0000
6180
71C0
E1C0
E0C0
E0E0
CCE0
CCE0
CCE0
CEE0
EEE0
FFC0
7BC0
0000
0C00
0E00
0F00
ENDCHAR
STARTCHAR 1FF6
ENCODING 8182
SWIDTH 480 0
DWIDTH 12 0
BBX 11 17 1 0
BITMAP
1E00
3F00
3380
3180
0000
6180
71C0
E1C0
E0C0
E0E0
CCE0
CCE0
CCE0
CEE0
EEE0
FFC0
7BC0
ENDCHAR
STARTCHAR 1FF7
ENCODING 8183
SWIDTH 480 0
DWIDTH 12 0
BBX 11 21 1 -4
BITMAP
1E00
3F00
3380
3180
0000
6180
71C0
E1C0
E0C0
E0E0
CCE0
CCE0
CCE0
CEE0
EEE0
FFC0
7BC0
0000
0C00
0E00
0F00
ENDCHAR
STARTCHAR 1FF8
ENCODING 8184
SWIDTH 480 0
DWIDTH 12 0
BBX 18 16 -6 0
BITMAP
003C00
607F00
F0FF80
7DE380
19C380
01C1C0
01C1C0
01C1C0
01C1C0
01C1C0
01C1C0
01C3C0
01C380
00F780
00FF00
007E00
ENDCHAR
STARTCHAR 1FF9
ENCODING 8185
SWIDTH 480 0
DWIDTH 12 0
BBX 17 16 -5 0
BITMAP
007800
18FE00
39FF00
FBC700
638700
038380
038380
038380
038380
038380
038380
038780
038700
01EF00
01FE00
00FC00
ENDCHAR
STARTCHAR 1FFA
ENCODING 8186
SWIDTH 480 0
DWIDTH 12 0
BBX 18 16 -6 0
BITMAP
003C00
C07F00
F0FF80
79E380
11C1C0
03C1C0
03C1C0
0381C0
0381C0
01C1C0
01C1C0
01C380
00E380
03E7C0
03F7C0
03F7C0
ENDCHAR
STARTCHAR 1FFB
ENCODING 8187
SWIDTH 480 0
DWIDTH 12 0
BBX 17 16 -5 0
BITMAP
007800
10FE00
79FF00
F3C700
438380
078380
078380
070380
070380
038380
038380
038700
01C700
07CF80
07EF80
07EF80
ENDCHAR
STARTCHAR 1FFC
ENCODING 8188
SWIDTH 480 0
DWIDTH 12 0
BBX 13 16 0 0
BITMAP
1800
3E00
7E00
6700
6770
E370
E370
E370
E370
6370
6770
6770
6670
3670
F738
F738
ENDCHAR
STARTCHAR 1FFD
ENCODING 8189
SWIDTH 480 0
DWIDTH 12 0
BBX 6 4 3 14
BITMAP
18
3C
F8
60
ENDCHAR
STARTCHAR 1FFE
ENCODING 8190
SWIDTH 480 0
DWIDTH 12 0
BBX 4 5 4 14
BITMAP
F0
E0
60
70
30
ENDCHAR
STARTCHAR 2013
ENCODING 8211
SWIDTH 480 0
DWIDTH 12 0
BBX 10 2 1 6
BITMAP
FFC0
FFC0
ENDCHAR
STARTCHAR 2014
ENCODING 8212
SWIDTH 480 0
DWIDTH 12 0
BBX 13 2 0 6
BITMAP
FFF8
FFF8
ENDCHAR
STARTCHAR 2015
ENCODING 8213
SWIDTH 480 0
DWIDTH 12 0
BBX 13 2 0 6
BITMAP
FFF8
FFF8
ENDCHAR
STARTCHAR 2018
ENCODING 8216
SWIDTH 480 0
DWIDTH 12 0
BBX 5 8 4 10
BITMAP
18
78
E0
C0
F0
F0
F0
E0
ENDCHAR
STARTCHAR 2019
ENCODING 8217
SWIDTH 480 0
DWIDTH 12 0
BBX 5 8 4 10
BITMAP
78
78
78
78
38
F0
E0
80
ENDCHAR
STARTCHAR 201A
ENCODING 8218
SWIDTH 480 0
DWIDTH 12 0
BBX 6 8 3 -4
BITMAP
38
7C
7C
3C
18
38
F0
C0
ENDCHAR
STARTCHAR 201C
ENCODING 8220
SWIDTH 480 0
DWIDTH 12 0
BBX 11 7 1 10
BITMAP
38E0
79E0
6300
E380
F3C0
F3C0
4100
ENDCHAR
STARTCHAR 201D
ENCODING 8221
SWIDTH 480 0
DWIDTH 12 0
BBX 11 7 1 11
BITMAP
31C0
79E0
79E0
18C0
30C0
E380
C300
ENDCHAR
STARTCHAR 201E
ENCODING 8222
SWIDTH 480 0
DWIDTH 12 0
BBX 11 7 0 -4
BITMAP
38E0
38E0
38E0
1860
38C0
F3C0
4000
ENDCHAR
STARTCHAR 2020
ENCODING 8224
SWIDTH 480 0
DWIDTH 12 0
BBX 9 18 2 -3
BITMAP
1C00
1C00
1C00
1C00
FF80
FF80
FF80
1C00
1C00
1C00
1C00
1C00
1C00
1C00
1C00
1800
1800
1800
ENDCHAR
STARTCHAR 2021
ENCODING 8225
SWIDTH 480 0
DWIDTH 12 0
BBX 10 18 1 -3
BITMAP
0E00
0E00
0E00
0E00
FFC0
FFC0
FFC0
0E00
0E00
0E00
FFC0
FFC0
FFC0
0E00
0C00
0C00
0C00
0C00
ENDCHAR
STARTCHAR 2022
ENCODING 8226
SWIDTH 480 0
DWIDTH 12 0
BBX 7 7 3 4
BITMAP
7C
FC
FE
FE
FC
7C
38
ENDCHAR
STARTCHAR 2026
ENCODING 8230
SWIDTH 480 0
DWIDTH 12 0
BBX 11 3 1 0
BITMAP
CCC0
EEE0
CEE0
ENDCHAR
STARTCHAR 2030
ENCODING 8240
SWIDTH 480 0
DWIDTH 12 0
BBX 12 16 0 0
BITMAP
7000
7800
D800
D810
D870
79C0
7700
1C00
7000
C800
3CF0
36B0
3790
37B0
3EF0
1CF0
ENDCHAR
STARTCHAR 2039
ENCODING 8249
SWIDTH 480 0
DWIDTH 12 0
BBX 6 10 3 2
BITMAP
1C
3C
38
78
F0
78
38
3C
1C
08
ENDCHAR
STARTCHAR 203A
ENCODING 8250
SWIDTH 480 0
DWIDTH 12 0
BBX 6 11 4 1
BITMAP
20
E0
F0
78
38
3C
3C
78
70
E0
60
ENDCHAR
STARTCHAR 2044
ENCODING 8260
SWIDTH 480 0
DWIDTH 12 0
BBX 10 15 1 0
BITMAP
00C0
01C0
0180
0380
0300
0600
0E00
0C00
1C00
1800
3800
3000
7000
E000
C000
ENDCHAR
STARTCHAR 2070
ENCODING 8304
SWIDTH 480 0
DWIDTH 12 0
BBX 7 9 3 7
BITMAP
38
FC
EE
CE
D6
D6
CE
FC
7C
ENDCHAR
STARTCHAR 2074
ENCODING 8308
SWIDTH 480 0
DWIDTH 12 0
BBX 8 9 2 7
BITMAP
0E
1E
3E
3E
6E
FF
FF
0E
0E
ENDCHAR
STARTCHAR 2075
ENCODING 8309
SWIDTH 480 0
DWIDTH 12 0
BBX 7 9 3 7
BITMAP
7C
7C
60
60
FC
3C
0E
FC
FC
ENDCHAR
STARTCHAR 2076
ENCODING 8310
SWIDTH 480 0
DWIDTH 12 0
BBX 7 9 2 7
BITMAP
06
3E
7C
60
7E
EE
E6
7E
7C
ENDCHAR
STARTCHAR 2077
ENCODING 8311
SWIDTH 480 0
DWIDTH 12 0
BBX 7 9 3 7
BITMAP
FE
FE
FC
1C
38
38
30
70
70
ENDCHAR
STARTCHAR 2078
ENCODING 8312
SWIDTH 480 0
DWIDTH 12 0
BBX 7 9 3 7
BITMAP
78
FC
CE
EC
78
FC
CE
EE
FC
ENDCHAR
STARTCHAR 2079
ENCODING 8313
SWIDTH 480 0
DWIDTH 12 0
BBX 7 9 3 7
BITMAP
38
7C
EE
E6
FE
7E
0E
7C
78
ENDCHAR
STARTCHAR 2080
ENCODING 8320
SWIDTH 480 0
DWIDTH 12 0
BBX 7 9 3 0
BITMAP
78
FC
CE
C6
D6
C6
CE
FC
78
ENDCHAR
STARTCHAR 2081
ENCODING 8321
SWIDTH 480 0
DWIDTH 12 0
BBX 8 9 3 0
BITMAP
1C
7C
FC
5C
1C
1C
1C
FF
FF
ENDCHAR
STARTCHAR 2082
ENCODING 8322
SWIDTH 480 0
DWIDTH 12 0
BBX 7 9 3 0
BITMAP
7C
FC
4C
0C
1C
78
70
FE
FE
ENDCHAR
STARTCHAR 2083
ENCODING 8323
SWIDTH 480 0
DWIDTH 12 0
BBX 7 9 3 0
BITMAP
F8
FC
0C
3C
3C
0C
0E
FC
F8
ENDCHAR
STARTCHAR 2084
ENCODING 8324
SWIDTH 480 0
DWIDTH 12 0
BBX 8 9 2 0
BITMAP
0E
1E
3E
7E
6E
FF
FF
0E
0E
ENDCHAR
STARTCHAR 2085
ENCODING 8325
SWIDTH 480 0
DWIDTH 12 0
BBX 6 9 3 0
BITMAP
7C
7C
60
70
FC
0C
0C
FC
F8
ENDCHAR
STARTCHAR 2086
ENCODING 8326
SWIDTH 480 0
DWIDTH 12 0
BBX 7 9 2 0
BITMAP
0E
3E
70
78
FE
E6
66
7E
3C
ENDCHAR
STARTCHAR 2087
ENCODING 8327
SWIDTH 480 0
DWIDTH 12 0
BBX 7 9 3 0
BITMAP
FE
FE
1C
18
38
38
30
70
70
ENDCHAR
STARTCHAR 2088
ENCODING 8328
SWIDTH 480 0
DWIDTH 12 0
BBX 7 9 3 0
BITMAP
7C
FC
CE
EC
7C
CE
CE
FE
7C
ENDCHAR
STARTCHAR 2089
ENCODING 8329
SWIDTH 480 0
DWIDTH 12 0
BBX 7 9 3 0
BITMAP
7C
7E
E6
E6
7E
36
1C
7C
70
ENDCHAR
STARTCHAR 20AC
ENCODING 8364
SWIDTH 480 0
DWIDTH 12 0
BBX 11 16 1 0
BITMAP
03C0
0FC0
1FC0
3C00
3800
FF80
FF80
7000
7000
FF00
FF00
7800
3800
3EC0
1FE0
0FE0
ENDCHAR
STARTCHAR 20AE
ENCODING 8366
SWIDTH 480 0
DWIDTH 12 0
BBX 11 15 1 0
BITMAP
FFE0
FFE0
0E00
0E00
0F80
0FC0
1F00
7E00
6F80
0FC0
1F00
7E00
7E00
0E00
0E00
ENDCHAR
STARTCHAR 20B4
ENCODING 8372
SWIDTH 480 0
DWIDTH 12 0
BBX 11 16 1 0
BITMAP
3E00
7F80
7F80
01C0
01C0
FFE0
FFE0
0F00
3E00
FFE0
FFE0
E000
E000
78C0
7FC0
3FC0
ENDCHAR
STARTCHAR 20B9
ENCODING 8377
SWIDTH 480 0
DWIDTH 12 0
BBX 11 15 1 0
BITMAP
FFE0
FFE0
0780
FFE0
FFC0
FFC0
0700
FF00
FC00
F000
7800
3C00
1E00
0F00
0700
ENDCHAR
STARTCHAR 2113
ENCODING 8467
SWIDTH 480 0
DWIDTH 12 0
BBX 8 17 2 0
BITMAP
1E
3B
31
31
31
33
33
36
36
3C
38
70
F0
B0
30
3F
1F
ENDCHAR
STARTCHAR 2116
ENCODING 8470
SWIDTH 480 0
DWIDTH 12 0
BBX 12 16 0 0
BITMAP
0060
C6F0
E7B0
E7B0
E7B0
F7B0
F6F0
F6E0
FE00
FE00
FFF0
EFF0
EE00
EE00
E600
E600
ENDCHAR
STARTCHAR 2122
ENCODING 8482
SWIDTH 480 0
DWIDTH 12 0
BBX 12 6 0 9
BITMAP
FB20
3370
32F0
32F0
3230
3230
ENDCHAR
STARTCHAR 2126
ENCODING 8486
SWIDTH 480 0
DWIDTH 12 0
BBX 12 16 0 0
BITMAP
0F00
1FC0
3FE0
78E0
7070
F070
F070
E070
E070
7070
7070
70E0
38E0
F9F0
FDF0
FDF0
ENDCHAR
STARTCHAR 212E
ENCODING 8494
SWIDTH 480 0
DWIDTH 12 0
BBX 11 10 1 0
BITMAP
0E00
7180
4040
C040
C060
FF80
C000
C000
4040
3F80
ENDCHAR
STARTCHAR 2153
ENCODING 8531
SWIDTH 480 0
DWIDTH 12 0
BBX 13 16 0 0
BITMAP
1000
70E0
F0C0
31C0
3180
3380
3300
0700
0600
0E00
0DF0
1C30
18F0
3870
7138
71F0
ENDCHAR
STARTCHAR 2154
ENCODING 8532
SWIDTH 480 0
DWIDTH 12 0
BBX 13 16 0 0
BITMAP
7000
F860
18E0
38C0
71C0
F980
FB80
0300
0700
0600
0FF0
0C30
1CF0
3870
3938
71F0
ENDCHAR
STARTCHAR 2155
ENCODING 8533
SWIDTH 480 0
DWIDTH 12 0
BBX 12 16 0 0
BITMAP
1000
70E0
F0C0
31C0
3180
3380
3300
0700
0600
0E00
0CF0
1CC0
18F0
3830
31B0
71F0
ENDCHAR
STARTCHAR 2156
ENCODING 8534
SWIDTH 480 0
DWIDTH 12 0
BBX 12 16 0 0
BITMAP
7000
F860
18E0
38C0
71C0
F980
FB80
0300
0700
0600
0EF0
0CC0
1CF0
1830
39B0
31F0
ENDCHAR
STARTCHAR 2157
ENCODING 8535
SWIDTH 480 0
DWIDTH 12 0
BBX 11 16 1 0
BITMAP
F000
F0C0
31C0
7180
3B80
FB00
F700
0600
0E00
0C00
1DE0
1980
39E0
3060
7360
63E0
ENDCHAR
STARTCHAR 2158
ENCODING 8536
SWIDTH 480 0
DWIDTH 12 0
BBX 12 16 0 0
BITMAP
3800
3870
78E0
58E0
FDC0
FD80
1B80
0300
0700
0600
0EF0
0CC0
1CF0
1830
39B0
31F0
ENDCHAR
STARTCHAR 2159
ENCODING 8537
SWIDTH 480 0
DWIDTH 12 0
BBX 12 16 0 0
BITMAP
1000
70E0
F0C0
31C0
3180
3380
3300
0700
0600
0E00
0CF0
1DC0
19E0
3930
31B0
71E0
ENDCHAR
STARTCHAR 215A
ENCODING 8538
SWIDTH 480 0
DWIDTH 12 0
BBX 12 16 0 0
BITMAP
7800
7860
70E0
78C0
19C0
F980
7380
0300
0700
0E00
0EF0
1DC0
19E0
3930
31B0
71E0
ENDCHAR
STARTCHAR 215B
ENCODING 8539
SWIDTH 480 0
DWIDTH 12 0
BBX 12 16 0 0
BITMAP
1000
70C0
F1C0
3180
3380
3300
3700
0600
0E00
0C00
1DF0
19B0
39F0
31F0
73B0
61F0
ENDCHAR
STARTCHAR 215C
ENCODING 8540
SWIDTH 480 0
DWIDTH 12 0
BBX 12 16 0 0
BITMAP
7000
78E0
18C0
79C0
1D80
FB80
F300
0700
0600
0E00
0DF0
1DB0
19F0
39F0
31B0
71F0
ENDCHAR
STARTCHAR 215D
ENCODING 8541
SWIDTH 480 0
DWIDTH 12 0
BBX 12 16 0 0
BITMAP
7800
78E0
70C0
79C0
1980
FB80
7300
0700
0600
0E00
0DF0
1DB0
19F0
39F0
31B0
71F0
ENDCHAR
STARTCHAR 215E
ENCODING 8542
SWIDTH 480 0
DWIDTH 12 0
BBX 11 16 1 0
BITMAP
F800
F980
3380
6300
6700
6600
CE00
0C00
1C00
1800
3BE0
3360
73E0
63E0
E360
C3E0
ENDCHAR
STARTCHAR 2202
ENCODING 8706
SWIDTH 480 0
DWIDTH 12 0
BBX 10 17 1 0
BITMAP
7E00
7F80
4780
01C0
01C0
01C0
3FC0
7FC0
F1C0
E1C0
E1C0
C1C0
C1C0
E380
F780
7F00
3E00
ENDCHAR
STARTCHAR 2206
ENCODING 8710
SWIDTH 480 0
DWIDTH 12 0
BBX 12 15 0 0
BITMAP
0F00
0F80
0F80
1F80
1DC0
19C0
39C0
39C0
38E0
38E0
70E0
70E0
7FF0
7FF0
FFF0
ENDCHAR
STARTCHAR 220F
ENCODING 8719
SWIDTH 480 0
DWIDTH 12 0
BBX 10 17 1 -2
BITMAP
FFC0
FFC0
E1C0
E1C0
E1C0
E1C0
E1C0
E1C0
E1C0
E1C0
E1C0
E1C0
E1C0
E1C0
E1C0
E1C0
E1C0
ENDCHAR
STARTCHAR 2211
ENCODING 8721
SWIDTH 480 0
DWIDTH 12 0
BBX 11 17 1 -2
BITMAP
FFE0
FFE0
7000
7000
3800
1C00
1C00
0E00
0E00
1E00
1C00
3800
3800
7000
F000
FFE0
FFE0
ENDCHAR
STARTCHAR 2212
ENCODING 8722
SWIDTH 480 0
DWIDTH 12 0
BBX 11 3 1 5
BITMAP
FFE0
FFE0
FFE0
ENDCHAR
STARTCHAR 2215
ENCODING 8725
SWIDTH 480 0
DWIDTH 12 0
BBX 10 15 1 0
BITMAP
00C0
01C0
0180
0380
0300
0600
0E00
0C00
1C00
1800
3800
3000
7000
E000
C000
ENDCHAR
STARTCHAR 2219
ENCODING 8729
SWIDTH 480 0
DWIDTH 12 0
BBX 4 4 4 5
BITMAP
70
F0
F0
70
ENDCHAR
STARTCHAR 221A
ENCODING 8730
SWIDTH 480 0
DWIDTH 12 0
BBX 12 17 0 0
BITMAP
0070
0070
00F0
00E0
00E0
00E0
01C0
01C0
39C0
F9C0
7B80
1F80
1F80
0F80
0F00
0F00
0700
ENDCHAR
STARTCHAR 221E
ENCODING 8734
SWIDTH 480 0
DWIDTH 12 0
BBX 12 7 0 3
BITMAP
39E0
7FF0
EF30
E630
EF70
7FF0
39E0
ENDCHAR
STARTCHAR 222B
ENCODING 8747
SWIDTH 480 0
DWIDTH 12 0
BBX 10 21 1 -4
BITMAP
07C0
0FC0
0F00
0E00
0E00
0E00
0E00
0E00
0E00
0E00
0E00
0E00
0E00
0E00
0E00
0E00
0E00
1E00
FC00
FC00
F800
ENDCHAR
STARTCHAR 2248
ENCODING 8776
SWIDTH 480 0
DWIDTH 12 0
BBX 11 9 1 3
BITMAP
7CE0
FFE0
EFC0
C380
0000
7860
FEE0
FFE0
C7C0
ENDCHAR
STARTCHAR 2260
ENCODING 8800
SWIDTH 480 0
DWIDTH 12 0
BBX 11 13 1 0
BITMAP
0180
0180
0380
FFE0
FFE0
0600
0C00
0C00
FFE0
FFE0
3000
7000
2000
ENDCHAR
STARTCHAR 2264
ENCODING 8804
SWIDTH 480 0
DWIDTH 12 0
BBX 11 14 1 0
BITMAP
0040
03C0
0FE0
7F00
FC00
F000
FE00
3FC0
07C0
01C0
0000
FFE0
FFE0
FFE0
ENDCHAR
STARTCHAR 2265
ENCODING 8805
SWIDTH 480 0
DWIDTH 12 0
BBX 11 14 1 0
BITMAP
4000
F800
FE00
3FC0
07E0
03E0
0FE0
7F00
FC00
6000
0000
FFE0
FFE0
FFE0
ENDCHAR
STARTCHAR 2500
ENCODING 9472
SWIDTH 480 0
DWIDTH 12 0
BBX 13 2 0 7
BITMAP
FFF8
FFF8
ENDCHAR
STARTCHAR 2502
ENCODING 9474
SWIDTH 480 0
DWIDTH 12 0
BBX 2 25 5 -4
BITMAP
C0
C0
C0
C0
C0
C0
C0
C0
C0
C0
C0
C0
C0
C0
C0
C0
C0
C0
C0
C0
C0
C0
C0
C0
C0
ENDCHAR
STARTCHAR 250C
ENCODING 9484
SWIDTH 480 0
DWIDTH 12 0
BBX 8 13 5 -4
BITMAP
FF
FF
C0
C0
C0
C0
C0
C0
C0
C0
C0
C0
C0
ENDCHAR
STARTCHAR 2510
ENCODING 9488
SWIDTH 480 0
DWIDTH 12 0
BBX 7 13 0 -4
BITMAP
FE
FE
06
06
06
06
06
06
06
06
06
06
06
ENDCHAR
STARTCHAR 2514
ENCODING 9492
SWIDTH 480 0
DWIDTH 12 0
BBX 8 14 5 7
BITMAP
C0
C0
C0
C0
C0
C0
C0
C0
C0
C0
C0
C0
FF
FF
ENDCHAR
STARTCHAR 2518
ENCODING 9496
SWIDTH 480 0
DWIDTH 12 0
BBX 7 14 0 7
BITMAP
06
06
06
06
06
06
06
06
06
06
06
06
FE
FE
ENDCHAR
STARTCHAR 251C
ENCODING 9500
SWIDTH 480 0
DWIDTH 12 0
BBX 8 25 5 -4
BITMAP
C0
C0
C0
C0
C0
C0
C0
C0
C0
C0
C0
C0
FF
FF
C0
C0
C0
C0
C0
C0
C0
C0
C0
C0
C0
ENDCHAR
STARTCHAR 2524
ENCODING 9508
SWIDTH 480 0
DWIDTH 12 0
BBX 7 25 0 -4
BITMAP
06
06
06
06
06
06
06
06
06
06
06
06
FE
FE
06
06
06
06
06
06
06
06
06
06
06
ENDCHAR
STARTCHAR 252C
ENCODING 9516
SWIDTH 480 0
DWIDTH 12 0
BBX 13 13 0 -4
BITMAP
FFF8
FFF8
0600
0600
0600
0600
0600
0600
0600
0600
0600
0600
0600
ENDCHAR
STARTCHAR 2534
ENCODING 9524
SWIDTH 480 0
DWIDTH 12 0
BBX 13 14 0 7
BITMAP
0600
0600
0600
0600
0600
0600
0600
0600
0600
0600
0600
0600
FFF8
FFF8
ENDCHAR
STARTCHAR 253C
ENCODING 9532
SWIDTH 480 0
DWIDTH 12 0
BBX 13 25 0 -4
BITMAP
0600
0600
0600
0600
0600
0600
0600
0600
0600
0600
0600
0600
FFF8
FFF8
0600
0600
0600
0600
0600
0600
0600
0600
0600
0600
0600
ENDCHAR
STARTCHAR 2550
ENCODING 9552
SWIDTH 480 0
DWIDTH 12 0
BBX 13 6 0 5
BITMAP
FFF8
FFF8
0000
0000
FFF8
FFF8
ENDCHAR
STARTCHAR 2551
ENCODING 9553
SWIDTH 480 0
DWIDTH 12 0
BBX 6 25 3 -4
BITMAP
CC
CC
CC
CC
CC
CC
CC
CC
CC
CC
CC
CC
CC
CC
CC
CC
CC
CC
CC
CC
CC
CC
CC
CC
CC
ENDCHAR
STARTCHAR 2552
ENCODING 9554
SWIDTH 480 0
DWIDTH 12 0
BBX 8 15 5 -4
BITMAP
FF
FF
00
00
FF
FF
C0
C0
C0
C0
C0
C0
C0
C0
C0
ENDCHAR
STARTCHAR 2553
ENCODING 9555
SWIDTH 480 0
DWIDTH 12 0
BBX 10 13 3 -4
BITMAP
CFC0
CFC0
CC00
CC00
CC00
CC00
CC00
CC00
CC00
CC00
CC00
CC00
CC00
ENDCHAR
STARTCHAR 2554
ENCODING 9556
SWIDTH 480 0
DWIDTH 12 0
BBX 10 15 3 -4
BITMAP
FFC0
FFC0
C000
C000
CFC0
CFC0
CC00
CC00
CC00
CC00
CC00
CC00
CC00
CC00
CC00
ENDCHAR
STARTCHAR 2555
ENCODING 9557
SWIDTH 480 0
DWIDTH 12 0
BBX 7 15 0 -4
BITMAP
FE
FE
00
00
FE
FE
06
06
06
06
06
06
06
06
06
ENDCHAR
STARTCHAR 2556
ENCODING 9558
SWIDTH 480 0
DWIDTH 12 0
BBX 9 13 0 -4
BITMAP
F980
F980
1980
1980
1980
1980
1980
1980
1980
1980
1980
1980
1980
ENDCHAR
STARTCHAR 2557
ENCODING 9559
SWIDTH 480 0
DWIDTH 12 0
BBX 9 15 0 -4
BITMAP
FF80
FF80
0180
0180
F980
F980
1980
1980
1980
1980
1980
1980
1980
1980
1980
ENDCHAR
STARTCHAR 2558
ENCODING 9560
SWIDTH 480 0
DWIDTH 12 0
BBX 8 16 5 5
BITMAP
C0
C0
C0
C0
C0
C0
C0
C0
C0
C0
FF
FF
00
00
FF
FF
ENDCHAR
STARTCHAR 2559
ENCODING 9561
SWIDTH 480 0
DWIDTH 12 0
BBX 10 14 3 7
BITMAP
CC00
CC00
CC00
CC00
CC00
CC00
CC00
CC00
CC00
CC00
CC00
CC00
CFC0
CFC0
ENDCHAR
STARTCHAR 255A
ENCODING 9562
SWIDTH 480 0
DWIDTH 12 0
BBX 10 16 3 5
BITMAP
CC00
CC00
CC00
CC00
CC00
CC00
CC00
CC00
CC00
CC00
CFC0
CFC0
C000
C000
FFC0
FFC0
ENDCHAR
STARTCHAR 255B
ENCODING 9563
SWIDTH 480 0
DWIDTH 12 0
BBX 7 16 0 5
BITMAP
06
06
06
06
06
06
06
06
06
06
FE
FE
00
00
FE
FE
ENDCHAR
STARTCHAR 255C
ENCODING 9564
SWIDTH 480 0
DWIDTH 12 0
BBX 9 14 0 7
BITMAP
1980
1980
1980
1980
1980
1980
1980
1980
1980
1980
1980
1980
F980
F980
ENDCHAR
STARTCHAR 255D
ENCODING 9565
SWIDTH 480 0
DWIDTH 12 0
BBX 9 16 0 5
BITMAP
1980
1980
1980
1980
1980
1980
1980
1980
1980
1980
F980
F980
0180
0180
FF80
FF80
ENDCHAR
STARTCHAR 255E
ENCODING 9566
SWIDTH 480 0
DWIDTH 12 0
BBX 8 25 5 -4
BITMAP
C0
C0
C0
C0
C0
C0
C0
C0
C0
C0
FF
FF
00
00
FF
FF
C0
C0
C0
C0
C0
C0
C0
C0
C0
ENDCHAR
STARTCHAR 255F
ENCODING 9567
SWIDTH 480 0
DWIDTH 12 0
BBX 10 25 3 -4
BITMAP
CC00
CC00
CC00
CC00
CC00
CC00
CC00
CC00
CC00
CC00
CC00
CC00
CFC0
CFC0
CC00
CC00
CC00
CC00
CC00
CC00
CC00
CC00
CC00
CC00
CC00
ENDCHAR
STARTCHAR 2560
ENCODING 9568
SWIDTH 480 0
DWIDTH 12 0
BBX 10 25 3 -4
BITMAP
CC00
CC00
CC00
CC00
CC00
CC00
CC00
CC00
CC00
CC00
CFC0
CFC0
C000
C000
CFC0
CFC0
CC00
CC00
CC00
CC00
CC00
CC00
CC00
CC00
CC00
ENDCHAR
STARTCHAR 2561
ENCODING 9569
SWIDTH 480 0
DWIDTH 12 0
BBX 7 25 0 -4
BITMAP
06
06
06
06
06
06
06
06
06
06
FE
FE
00
00
FE
FE
06
06
06
06
06
06
06
06
06
ENDCHAR
STARTCHAR 2562
ENCODING 9570
SWIDTH 480 0
DWIDTH 12 0
BBX 9 25 0 -4
BITMAP
1980
1980
1980
1980
1980
1980
1980
1980
1980
1980
1980
1980
F980
F980
1980
1980
1980
1980
1980
1980
1980
1980
1980
1980
1980
ENDCHAR
STARTCHAR 2563
ENCODING 9571
SWIDTH 480 0
DWIDTH 12 0
BBX 9 25 0 -4
BITMAP
1980
1980
1980
1980
1980
1980
1980
1980
1980
1980
F980
F980
0180
0180
F980
F980
1980
1980
1980
1980
1980
1980
1980
1980
1980
ENDCHAR
STARTCHAR 2564
ENCODING 9572
SWIDTH 480 0
DWIDTH 12 0
BBX 13 15 0 -4
BITMAP
FFF8
FFF8
0000
0000
FFF8
FFF8
0600
0600
0600
0600
0600
0600
0600
0600
0600
ENDCHAR
STARTCHAR 2565
ENCODING 9573
SWIDTH 480 0
DWIDTH 12 0
BBX 13 13 0 -4
BITMAP
FFF8
FFF8
1980
1980
1980
1980
1980
1980
1980
1980
1980
1980
1980
ENDCHAR
STARTCHAR 2566
ENCODING 9574
SWIDTH 480 0
DWIDTH 12 0
BBX 13 15 0 -4
BITMAP
FFF8
FFF8
0000
0000
F9F8
F9F8
1980
1980
1980
1980
1980
1980
1980
1980
1980
ENDCHAR
STARTCHAR 2567
ENCODING 9575
SWIDTH 480 0
DWIDTH 12 0
BBX 13 16 0 5
BITMAP
0600
0600
0600
0600
0600
0600
0600
0600
0600
0600
FFF8
FFF8
0000
0000
FFF8
FFF8
ENDCHAR
STARTCHAR 2568
ENCODING 9576
SWIDTH 480 0
DWIDTH 12 0
BBX 13 14 0 7
BITMAP
1980
1980
1980
1980
1980
1980
1980
1980
1980
1980
1980
1980
FFF8
FFF8
ENDCHAR
STARTCHAR 2569
ENCODING 9577
SWIDTH 480 0
DWIDTH 12 0
BBX 13 16 0 5
BITMAP
1980
1980
1980
1980
1980
1980
1980
1980
1980
1980
F9F8
F9F8
0000
0000
FFF8
FFF8
ENDCHAR
STARTCHAR 256A
ENCODING 9578
SWIDTH 480 0
DWIDTH 12 0
BBX 13 25 0 -4
BITMAP
0600
0600
0600
0600
0600
0600
0600
0600
0600
0600
FFF8
FFF8
0600
0600
FFF8
FFF8
0600
0600
0600
0600
0600
0600
0600
0600
0600
ENDCHAR
STARTCHAR 256B
ENCODING 9579
SWIDTH 480 0
DWIDTH 12 0
BBX 13 25 0 -4
BITMAP
1980
1980
1980
1980
1980
1980
1980
1980
1980
1980
1980
1980
FFF8
FFF8
1980
1980
1980
1980
1980
1980
1980
1980
1980
1980
1980
ENDCHAR
STARTCHAR 256C
ENCODING 9580
SWIDTH 480 0
DWIDTH 12 0
BBX 13 25 0 -4
BITMAP
1980
1980
1980
1980
1980
1980
1980
1980
1980
1980
F9F8
F9F8
0000
0000
F9F8
F9F8
1980
1980
1980
1980
1980
1980
1980
1980
1980
ENDCHAR
STARTCHAR 2588
ENCODING 9608
SWIDTH 480 0
DWIDTH 12 0
BBX 13 25 0 -4
BITMAP
FFF8
FFF8
FFF8
FFF8
FFF8
FFF8
FFF8
FFF8
FFF8
FFF8
FFF8
FFF8
FFF8
FFF8
FFF8
FFF8
FFF8
FFF8
FFF8
FFF8
FFF8
FFF8
FFF8
FFF8
FFF8
ENDCHAR
STARTCHAR 2591
ENCODING 9617
SWIDTH 480 0
DWIDTH 12 0
BBX 13 25 0 -4
BITMAP
8888
0000
2220
0000
8888
0000
2220
0000
8888
0000
2220
0000
8888
0000
2220
0000
8888
0000
2220
0000
8888
0000
2220
0000
8888
ENDCHAR
STARTCHAR 2592
ENCODING 9618
SWIDTH 480 0
DWIDTH 12 0
BBX 13 25 0 -4
BITMAP
AAA8
0000
5550
0000
AAA8
0000
5550
0000
AAA8
0000
5550
0000
AAA8
0000
5550
0000
AAA8
0000
5550
0000
AAA8
0000
5550
0000
AAA8
ENDCHAR
STARTCHAR 2593
ENCODING 9619
SWIDTH 480 0
DWIDTH 12 0
BBX 13 25 0 -4
BITMAP
FFF8
AAA8
FFF8
AAA8
FFF8
AAA8
FFF8
AAA8
FFF8
AAA8
FFF8
AAA8
FFF8
AAA8
FFF8
AAA8
FFF8
AAA8
FFF8
AAA8
FFF8
AAA8
FFF8
AAA8
FFF8
ENDCHAR
STARTCHAR 25CA
ENCODING 9674
SWIDTH 480 0
DWIDTH 12 0
BBX 11 16 1 0
BITMAP
0400
0C00
0E00
1F00
3F00
7B80
73C0
E1C0
E1E0
F1C0
7380
3B80
3F00
1E00
0E00
0400
ENDCHAR
STARTCHAR E0FF
ENCODING 57599
SWIDTH 480 0
DWIDTH 12 0
BBX 10 9 1 8
BITMAP
1F00
7D80
73C0
6EC0
9FC0
6EC0
73C0
7D80
1F00
ENDCHAR
STARTCHAR EFFD
ENCODING 61437
SWIDTH 480 0
DWIDTH 12 0
BBX 15 16 0 0
BITMAP
3C38
7EFC
66CE
E7EE
FF7C
E7FE
E6C6
7EEE
7CFC
0000
0000
0000
0380
07C0
07C0
0380
ENDCHAR
STARTCHAR F000
ENCODING 61440
SWIDTH 480 0
DWIDTH 12 0
BBX 21 17 -4 0
BITMAP
FF97E8
809008
809008
809008
809008
809008
809008
809008
7F0FF0
809008
809008
809008
809008
809008
809008
809008
7F0FF0
ENDCHAR
STARTCHAR F001
ENCODING 61441
SWIDTH 480 0
DWIDTH 12 0
BBX 12 17 0 0
BITMAP
1F70
3EF0
3EF0
3860
3800
FE60
FE60
FE60
3860
3860
3860
3860
3860
3860
3860
3860
3860
ENDCHAR
STARTCHAR F002
ENCODING 61442
SWIDTH 480 0
DWIDTH 12 0
BBX 13 17 0 0
BITMAP
1FE0
3EE0
3EE0
38E0
38E0
FEE0
FEE0
FEE0
38E0
38E0
38E0
38E0
38E0
38E0
38F8
3870
3830
ENDCHAR
STARTCHAR F506
ENCODING 62726
SWIDTH 480 0
DWIDTH 12 0
BBX 13 16 0 0
BITMAP
1000
7060
F0E0
30C0
31C0
3180
3380
0300
0700
0E00
0EF8
1C30
1860
3860
3060
70C0
ENDCHAR
STARTCHAR F507
ENCODING 62727
SWIDTH 480 0
DWIDTH 12 0
BBX 13 16 0 0
BITMAP
7000
F860
18E0
38C0
71C0
F980
FB80
0300
0700
0600
0EF8
0C30
1C60
1860
3860
30C0
ENDCHAR
STARTCHAR F508
ENCODING 62728
SWIDTH 480 0
DWIDTH 12 0
BBX 12 16 1 0
BITMAP
F000
F0C0
31C0
7180
3B80
FB00
F700
0600
0E00
0C00
1DF0
1860
38C0
70C0
70C0
E180
ENDCHAR
STARTCHAR F509
ENCODING 62729
SWIDTH 480 0
DWIDTH 12 0
BBX 13 16 0 0
BITMAP
3800
3860
78E0
58C0
FDC0
FD80
1B80
0300
0700
0600
0EF8
0C30
1C60
1860
3860
30C0
ENDCHAR
STARTCHAR F50A
ENCODING 62730
SWIDTH 480 0
DWIDTH 12 0
BBX 13 16 0 0
BITMAP
7800
7860
70E0
78C0
19C0
F980
7380
0300
0700
0600
0EF8
0C30
1C60
3860
3860
70C0
ENDCHAR
STARTCHAR F50B
ENCODING 62731
SWIDTH 480 0
DWIDTH 12 0
BBX 13 16 0 0
BITMAP
1800
7860
E0E0
F8C0
CDC0
F980
3380
0300
0700
0600
0EF8
0C30
1C60
3860
3860
70C0
ENDCHAR
STARTCHAR F50C
ENCODING 62732
SWIDTH 480 0
DWIDTH 12 0
BBX 12 16 0 0
BITMAP
1000
70E0
F0C0
31C0
3180
3380
3300
0700
0600
0E00
0DF0
1DB0
19F0
38F0
31F0
71E0
ENDCHAR
STARTCHAR F50D
ENCODING 62733
SWIDTH 480 0
DWIDTH 12 0
BBX 12 16 0 0
BITMAP
7000
F860
18E0
38C0
71C0
F980
FB80
0300
0700
0600
0FF0
0DB0
1DF0
38F0
39F0
71E0
ENDCHAR
STARTCHAR F50E
ENCODING 62734
SWIDTH 480 0
DWIDTH 12 0
BBX 12 16 0 0
BITMAP
3800
3860
78E0
58C0
FDC0
FD80
1B80
0300
0700
0600
0FF0
0DB0
1DF0
18F0
38F0
31E0
ENDCHAR
STARTCHAR F50F
ENCODING 62735
SWIDTH 480 0
DWIDTH 12 0
BBX 12 16 0 0
BITMAP
7800
78E0
70C0
79C0
1980
FB80
7300
0700
0600
0E00
0DF0
1DB0
19F0
38F0
31F0
71E0
ENDCHAR
STARTCHAR F510
ENCODING 62736
SWIDTH 480 0
DWIDTH 12 0
BBX 11 16 1 0
BITMAP
F800
F980
3380
6300
6700
6600
CE00
0C00
1C00
1800
3BC0
3260
73E0
63E0
E3C0
C380
ENDCHAR
STARTCHAR F511
ENCODING 62737
SWIDTH 480 0
DWIDTH 12 0
BBX 12 16 0 0
BITMAP
7000
FC60
FCE0
78C0
CDC0
FD80
7B80
0300
0700
0600
0FF0
1DB0
1DF0
38F0
30F0
71E0
ENDCHAR
STARTCHAR F80A
ENCODING 63498
SWIDTH 480 0
DWIDTH 12 0
BBX 7 9 3 10
BITMAP
7C
FC
CE
DE
D6
CE
EE
FC
38
ENDCHAR
STARTCHAR F80B
ENCODING 63499
SWIDTH 480 0
DWIDTH 12 0
BBX 8 9 3 9
BITMAP
3C
FC
7C
1C
1C
1C
1C
FF
FF
ENDCHAR
STARTCHAR F80C
ENCODING 63500
SWIDTH 480 0
DWIDTH 12 0
BBX 7 10 3 9
BITMAP
10
FC
FC
0C
1C
38
70
60
FE
FE
ENDCHAR
STARTCHAR F80D
ENCODING 63501
SWIDTH 480 0
DWIDTH 12 0
BBX 7 9 3 10
BITMAP
FC
7C
0C
38
3C
0E
8E
FC
78
ENDCHAR
STARTCHAR F80E
ENCODING 63502
SWIDTH 480 0
DWIDTH 12 0
BBX 8 9 2 9
BITMAP
0E
1E
3E
6E
6E
FF
FF
0E
0E
ENDCHAR
STARTCHAR F80F
ENCODING 63503
SWIDTH 480 0
DWIDTH 12 0
BBX 6 9 3 9
BITMAP
7C
7C
60
78
FC
0C
9C
FC
78
ENDCHAR
STARTCHAR F810
ENCODING 63504
SWIDTH 480 0
DWIDTH 12 0
BBX 7 9 2 9
BITMAP
1E
3E
70
7C
FE
E6
66
7E
38
ENDCHAR
STARTCHAR F811
ENCODING 63505
SWIDTH 480 0
DWIDTH 12 0
BBX 7 9 3 9
BITMAP
FE
FE
1C
18
38
30
70
70
70
ENDCHAR
STARTCHAR F812
ENCODING 63506
SWIDTH 480 0
DWIDTH 12 0
BBX 7 10 3 9
BITMAP
10
7C
EE
CE
FC
7C
CE
CE
FC
78
ENDCHAR
STARTCHAR F813
ENCODING 63507
SWIDTH 480 0
DWIDTH 12 0
BBX 7 9 3 10
BITMAP
7C
EE
C6
FE
7E
0E
3C
78
40
ENDCHAR
STARTCHAR F814
ENCODING 63508
SWIDTH 480 0
DWIDTH 12 0
BBX 7 9 3 -3
BITMAP
7C
FC
CE
D6
D6
CE
EE
FC
38
ENDCHAR
STARTCHAR F815
ENCODING 63509
SWIDTH 480 0
DWIDTH 12 0
BBX 8 9 3 -3
BITMAP
3C
FC
7C
1C
1C
1C
1C
FF
FF
ENDCHAR
STARTCHAR F816
ENCODING 63510
SWIDTH 480 0
DWIDTH 12 0
BBX 7 9 3 -3
BITMAP
FC
FC
0C
1C
38
70
60
FE
FE
ENDCHAR
ENDFONT
